<?xml version="1.0" encoding="UTF-8"?>
<!-- Generator: visioncortex VTracer 0.6.12 -->
<svg version="1.1" xmlns="http://www.w3.org/2000/svg" width="182" height="187">
<path d="M0 0 C1.97437 0.76709 1.97437 0.76709 3.56421 4.04053 C5.42657 9.69938 6.46182 15.54303 7.53687 21.39209 C7.75375 22.54185 7.97063 23.69162 8.19409 24.87622 C9.53333 32.07083 10.72576 39.25596 11.61499 46.521 C11.97437 48.76709 11.97437 48.76709 12.97437 49.76709 C13.41007 49.05424 13.84577 48.34139 14.29468 47.60693 C25.22764 30.02427 40.10192 18.2825 60.41187 13.26709 C80.38909 8.85597 100.36936 12.45509 117.78687 23.20459 C127.6007 29.75652 135.03161 37.47732 140.97437 47.76709 C142.76313 45.97832 142.63625 43.27681 143.02515 40.85303 C143.22705 39.6231 143.42895 38.39317 143.63696 37.12598 C143.74293 36.47434 143.84889 35.82269 143.95807 35.15131 C149.09427 3.76491 149.09427 3.76491 153.97437 -0.23291 C156.41187 0.57959 156.41187 0.57959 158.97437 1.76709 C164.32737 17.82609 159.15697 40.72288 156.43555 56.9873 C155.65311 61.70345 155.07626 67.28067 156.97437 71.76709 C157.96437 72.42709 158.95437 73.08709 159.97437 73.76709 C163.63894 83.79645 162.85164 95.60212 159.97437 105.76709 C159.64437 106.42709 159.31437 107.08709 158.97437 107.76709 C158.31437 107.76709 157.65437 107.76709 156.97437 107.76709 C156.97437 109.08709 156.97437 110.40709 156.97437 111.76709 C155.51343 113.25146 155.51343 113.25146 153.59937 114.51709 C152.97288 114.94506 152.3464 115.37303 151.70093 115.81396 C149.97437 116.76709 149.97437 116.76709 147.97437 116.76709 C144.82877 110.4759 145.83566 101.49895 145.87671 94.60303 C145.87742 94.14399 145.87742 94.14399 145.881 91.82095 C145.88653 88.92796 145.89907 86.03506 145.91187 83.14209 C145.91689 81.16423 145.92145 79.18636 145.92554 77.2085 C145.93648 72.39466 145.9537 67.58089 145.97437 62.76709 C145.64437 62.93209 145.64437 62.93209 143.97437 63.76709 C143.94938 69.77702 143.93137 75.78691 143.91943 81.79688 C143.91445 83.83529 143.90766 85.87371 143.89893 87.91211 C143.81209 108.72272 143.81209 108.72272 144.9043 118.95947 C145.13317 128.1304 139.01709 137.47795 133.97437 144.76709 C130.97437 146.76709 130.97437 146.76709 128.97437 146.76709 C127.62554 147.40183 126.2897 148.06558 124.97437 148.76709 C124.97437 149.42709 124.97437 150.08709 124.97437 150.76709 C123.98437 151.09709 123.98437 151.09709 118.97437 152.76709 C119.30437 151.44709 119.63437 150.12709 119.97437 148.76709 C119.65726 149.28658 119.34015 149.80607 119.01343 150.34131 C112.72449 159.73996 103.13619 162.74102 92.44312 165.03662 C73.49037 168.50369 52.44156 165.3104 36.11108 154.95068 C26.15007 148.06289 20.37755 140.53388 14.97437 129.76709 C14.64437 131.08709 14.31437 132.40709 13.97437 133.76709 C9.29092 126.03469 8.75965 119.76237 10.00464 111.05811 C11.30988 101.06226 11.15426 91.07835 11.09937 81.01709 C11.09537 80.11864 11.09137 79.2202 11.08725 78.29453 C11.06296 73.11855 11.02471 67.94287 10.97437 62.76709 C10.64437 62.93209 10.64437 62.93209 8.97437 63.76709 C8.97698 64.19474 8.97698 64.19474 8.99023 66.35889 C9.19238 104.37231 9.19238 104.37231 6.97437 116.76709 C3.03383 116.18331 0.63449 114.72278 -2.02563 111.76709 C-2.33184 109.37696 -2.27927 107.19184 -2.10376 104.79053 C-2.02563 102.76709 -2.02563 102.76709 -3.02563 100.76709 C-3.35563 102.74709 -3.68563 104.72709 -4.02563 106.76709 C-7.44334 101.64053 -7.20784 96.47131 -7.21313 90.45459 C-7.22538 89.73336 -7.23763 89.01213 -7.25024 88.26904 C-7.26409 83.12314 -6.44032 78.71571 -5.02563 73.76709 C-4.36563 73.76709 -3.70563 73.76709 -3.02563 73.76709 C-0.575 65.74449 -1.44924 59.26748 -2.83813 51.07959 C-4.79797 39.02363 -6.14558 27.05613 -6.21313 14.82959 C-6.22731 13.64494 -6.24149 12.46029 -6.2561 11.23975 C-6.00664 7.48091 -5.29018 4.31226 -4.02563 0.76709 C-2.02563 -0.23291 -2.02563 -0.23291 0 0 Z " fill="#F9F6F3" transform="translate(15.025634765625,8.23291015625)"/>
<path d="M0 0 C8.10218 7.0024 12.72099 16.39329 14 27 C14.85174 41.28989 14.87067 55.63515 5 67 C-6.424 78.9136 -26.18029 79.83748 -41.68774 80.2832 C-58.51131 80.50228 -76.63262 78.21757 -90.02344 67.16406 C-97.70733 58.75127 -99.19239 49.22013 -99.25 38.375 C-99.27062 37.42754 -99.29125 36.48008 -99.3125 35.50391 C-99.37671 23.76929 -95.87575 13.67106 -88.06641 4.80469 C-67.32007 -15.21838 -23.08431 -16.80568 0 0 Z " fill="#201E24" transform="translate(135,63)"/>
<path d="M0 0 C3.42611 0.78761 6.48213 1.10051 10 1 C10.165 1.495 10.165 1.495 11 4 C13.0625 4.9375 13.0625 4.9375 16 6 C18.68889 7.28967 21.34469 8.64269 24 10 C23.87754 10.36609 23.87754 10.36609 23.25781 12.21875 C23 15 23 15 24.61719 17.28125 C25.36227 18.01344 26.10734 18.74563 26.875 19.5 C30.03445 22.62642 31.51182 24.52763 32 29 C30.3125 30.625 30.3125 30.625 28 32 C25.25 31.1875 25.25 31.1875 23 30 C23 30.99 23 31.98 23 33 C23.66 33.33 24.32 33.66 25 34 C21 34 21 34 18.75 32 C18.1725 31.34 17.595 30.68 17 30 C17.66 30 18.32 30 19 30 C18.73217 23.97378 18.14253 19.6876 14 15 C11.72595 13.43354 9.48192 12.24096 7 11 C7 15.29 7 19.58 7 24 C6.07445 23.71125 5.14891 23.4225 4.19531 23.125 C-14.83281 17.6877 -37.42345 17.54998 -56.12109 24.40234 C-58.4649 25.14788 -60.55923 25.2362 -63 25 C-63.12697 25.30293 -63.12697 25.30293 -63.76953 26.83594 C-65.15914 29.27989 -66.34168 30.12257 -68.6875 31.625 C-77.0102 37.66689 -82.30267 46.90536 -84 57 C-84.77048 70.43525 -82.95466 84.97867 -74.80859 96.07031 C-64.67257 106.88498 -46.92209 109.67858 -32.77734 110.1875 C-16.36031 110.53314 -1.48785 108.46139 14 103 C14 103.66 14 104.32 14 105 C14.495 105.165 14.495 105.165 17 106 C17 106.66 17 107.32 17 108 C17.99 108 18.98 108 20 108 C20.33 109.65 20.66 111.3 21 113 C-0.09474 125.56708 -25.99994 128.97996 -50.06494 123.56592 C-64.78015 119.66831 -78.5107 111.91024 -86.48926 98.57056 C-89.76518 92.8228 -92.07637 88.02854 -92.20532 81.32324 C-92.22527 80.40259 -92.24521 79.48194 -92.26576 78.53339 C-92.28247 77.54784 -92.29919 76.56229 -92.31641 75.54688 C-92.33719 74.53152 -92.35797 73.51616 -92.37938 72.47003 C-92.44471 69.23009 -92.50368 65.99007 -92.5625 62.75 C-92.6057 60.55208 -92.64932 58.35416 -92.69336 56.15625 C-92.80037 50.77092 -92.90217 45.38551 -93 40 C-92.34 40 -91.68 40 -91 40 C-90.94844 39.40574 -90.89687 38.81148 -90.84375 38.19922 C-89.30007 26.91981 -81.93241 19.39602 -73.6875 12.07031 C-72 10 -72 10 -71.75 7.24219 C-71.79125 6.87223 -71.79125 6.87223 -72 5 C-71.56107 5.11021 -71.56107 5.11021 -69.33984 5.66797 C-65.35088 6.06453 -63.9778 5.31323 -60.5625 3.3125 C-41.61644 -6.61163 -20.03623 -6.66091 0 0 Z " fill="#F8F4F1" transform="translate(119,32)"/>
<path d="M0 0 C6.43681 0.51086 11.95942 1.72943 18 4 C18.33 3.01 18.66 2.02 19 1 C29.71453 7.50015 35.02518 13.98052 39 26 C41.96099 39.35239 41.50456 56.03847 34.3125 67.875 C26.85994 77.89616 15.8668 81.73767 3.88281 83.75391 C-8.96995 85.60354 -22.14342 85.80773 -35 84 C-35 83.67 -35 83.34 -35 83 C-32.69 83 -30.38 83 -28 83 C-28 82.01 -28 81.02 -28 80 C-27.67 79.835 -27.67 79.835 -26 79 C-25.375 76.9375 -25.375 76.9375 -25 75 C-25.66 75 -26.32 75 -27 75 C-28.375 72.9375 -28.375 72.9375 -30 70 C-30.70125 68.9275 -31.4025 67.855 -32.125 66.75 C-34.42564 62.74812 -35.04925 58.58975 -35 54 C-34 53 -34 53 -31.22437 52.97827 C-30.01466 53.0254 -28.80496 53.07253 -27.55859 53.12109 C-26.90601 53.14526 -26.90601 53.14526 -23.60352 53.26758 C-22.21484 53.32411 -20.82617 53.38075 -19.4375 53.4375 C-18.04494 53.49071 -16.65236 53.54345 -15.25977 53.5957 C-11.83964 53.72588 -8.41977 53.86086 -5 54 C-5.33 53.01 -5.66 52.02 -6 51 C-5.01 51 -4.02 51 -3 51 C-2.67 50.01 -2.34 49.02 -2 48 C-2 48.66 -2 49.32 -2 50 C-1.70094 49.90719 -1.70094 49.90719 -0.1875 49.4375 C2 49 2 49 5 50 C5 49.34 5 48.68 5 48 C6.32 48 7.64 48 9 48 C8.67 47.01 8.34 46.02 8 45 C5.69 44.67 3.38 44.34 1 44 C0.0188 40.94736 0.0188 39.05264 1 36 C1.99 35.835 1.99 35.835 7 35 C7 34.34 7 33.68 7 33 C10.03453 32.76657 12.9725 32.64321 16 33 C18.3125 35 18.3125 35 20 37 C21.32 37 22.64 37 24 37 C24.33 37.33 24.66 37.66 25 38 C25 35.03 25 32.06 25 29 C24.34 29 23.68 29 23 29 C23 28.34 23 27.68 23 27 C21.02 27 19.04 27 17 27 C17 26.34 17 25.68 17 25 C15.02 25 13.04 25 11 25 C11.165 25.495 11.165 25.495 12 28 C9.69 27.67 7.38 27.34 5 27 C4.34 24.69 3.68 22.38 3 20 C3.66 20 4.32 20 5 20 C5 19.34 5 18.68 5 18 C5.66 17.67 6.32 17.34 7 17 C7 14.69 7 12.38 7 10 C6.37609 9.9291 5.75219 9.8582 5.10938 9.78516 C3 9 3 9 1.95312 6.93359 C1.83711 6.52174 1.83711 6.52174 1.25 4.4375 C1.00766 3.61121 0.76531 2.78492 0.51562 1.93359 C0.34547 1.29551 0.17531 0.65742 0 0 Z " fill="#212026" transform="translate(109,58)"/>
<path d="M0 0 C4.66348 1.86539 8.43759 3.46243 11.13281 7.83984 C12.11255 10.28036 12.23513 12.06768 12.1875 14.6875 C12.18105 15.47512 12.17461 16.26273 12.16797 17.07422 C12 19 12 19 11 20 C11.76055 20.54656 12.52109 21.09313 13.30469 21.65625 C21.3219 28.62774 23.78449 40.63295 25.44922 50.72266 C26 53 26 53 28 55 C28.99 54.34 29.98 53.68 31 53 C31 59.6 31 66.2 31 73 C31.66 73 32.32 73 33 73 C34.98594 87.78663 31.45351 97.78065 23 110 C20 112 20 112 18 112 C16.65118 112.63474 15.31533 113.29849 14 114 C14 114.66 14 115.32 14 116 C12.02 116.66 10.04 117.32 8 118 C8.165 117.34 8.165 117.34 9 114 C8.68289 114.51949 8.36578 115.03898 8.03906 115.57422 C1.75013 124.97287 -7.83817 127.97393 -18.53125 130.26953 C-37.484 133.7366 -58.53281 130.54331 -74.86328 120.18359 C-84.82429 113.2958 -90.59681 105.76679 -96 95 C-96.33 96.32 -96.66 97.64 -97 99 C-103.47051 88.31714 -101.89289 78.84595 -100 67 C-99.67 67 -99.34 67 -99 67 C-98.94844 67.70383 -98.89687 68.40766 -98.84375 69.13281 C-97.58378 80.10027 -92.82702 89.83127 -84.75 97.4375 C-83.19942 98.66745 -81.61434 99.85501 -80 101 C-79.1518 101.61359 -78.30359 102.22719 -77.42969 102.85938 C-57.41063 115.90801 -31.67212 115.29261 -9 111 C-1.8798 109.33789 4.52154 107.21166 10.51172 102.95312 C12 102 12 102 14 102 C13.67 100.35 13.34 98.7 13 97 C12.01 97 11.02 97 10 97 C8.3125 95.6875 8.3125 95.6875 7 94 C7 93.01 7 92.02 7 91 C8.57422 89.74609 8.57422 89.74609 10.6875 88.4375 C17.55176 83.52925 19.92994 76.39916 21.60742 68.4021 C22.24653 64.49153 22.34097 60.64363 22.3125 56.6875 C22.30686 55.85936 22.30122 55.03122 22.29541 54.17798 C22.06394 42.41542 19.33891 32.22859 11.44141 23.22266 C-0.11669 12.32977 -16.12418 10.75184 -31.1875 10.6875 C-32.29231 10.68194 -33.39711 10.67638 -34.5354 10.67065 C-41.25463 10.72957 -47.4761 11.39509 -54 13 C-54.93973 13.22301 -55.87945 13.44602 -56.84766 13.67578 C-67.29922 16.68038 -77.31122 21.81398 -83.01953 31.38672 C-87.49804 39.89319 -89.1066 46.84314 -89.5625 56.3125 C-89.60568 57.14846 -89.64887 57.98441 -89.69336 58.8457 C-89.79885 60.89697 -89.89987 62.94846 -90 65 C-90.33 65 -90.66 65 -91 65 C-92.44564 49.97788 -92.26605 38.7731 -82.86719 26.1875 C-80.66742 23.61036 -78.34719 21.43003 -75.67578 19.35156 C-74 18 -74 18 -72.33594 16.00391 C-69.00052 13.14259 -65.51557 12.38658 -61.3125 11.3125 C-60.54744 11.10045 -59.78238 10.8884 -58.99414 10.66992 C-41.06306 5.88125 -16.96901 4.51549 0 13 C0 8.71 0 4.42 0 0 Z " fill="#E9E4E9" transform="translate(126,43)"/>
<path d="M0 0 C1.32 1.32 2.64 2.64 4 4 C3.67 4.66 3.34 5.32 3 6 C3.63938 6.28875 4.27875 6.5775 4.9375 6.875 C7 8 7 8 8 10 C8.86625 9.81437 9.7325 9.62875 10.625 9.4375 C14.05153 8.99332 16.64212 9.28046 20 10 C20.165 10.99 20.165 10.99 21 16 C18.03 16 15.06 16 12 16 C12 18.97 12 21.94 12 25 C14.31 25.33 16.62 25.66 19 26 C19 26.66 19 27.32 19 28 C19.61875 28.12375 20.2375 28.2475 20.875 28.375 C23 29 23 29 25 31 C24.97656 33.38281 24.97656 33.38281 24.625 36.125 C24.51414 37.03508 24.40328 37.94516 24.28906 38.88281 C24.19367 39.58148 24.09828 40.28016 24 41 C23.34 41 22.68 41 22 41 C22 40.34 22 39.68 22 39 C19.5625 39.75 19.5625 39.75 17 41 C16.1875 43.125 16.1875 43.125 16 45 C16.66 45 17.32 45 18 45 C18.165 44.67 18.165 44.67 19 43 C23.29 43.33 27.58 43.66 32 44 C32 44.66 32 45.32 32 46 C39.26 46 46.52 46 54 46 C54 46.33 54 46.66 54 47 C44.43 47 34.86 47 25 47 C26.1202 57.08178 26.1202 57.08178 28.5 60.3125 C30.35475 62.88435 31.39215 64.87096 32 68 C32.66 68 33.32 68 34 68 C33.67 69.65 33.34 71.3 33 73 C32.34 73 31.68 73 31 73 C31 73.99 31 74.98 31 76 C18.2433 76.82746 6.21083 73.98706 -4 66 C-6.49273 63.55034 -8.28477 61.03917 -10 58 C-10.4125 57.27941 -10.825 56.55883 -11.25 55.81641 C-14.22608 49.3579 -14.38267 42.92932 -14.4375 35.9375 C-14.44765 35.01566 -14.4578 34.09382 -14.46826 33.14404 C-14.31976 21.40011 -10.52279 10.34436 -2.125 1.875 C-1.42375 1.25625 -0.7225 0.6375 0 0 Z " fill="#202126" transform="translate(50,65)"/>
<path d="M0 0 C4.66348 1.86539 8.43759 3.46243 11.13281 7.83984 C12.11255 10.28036 12.23513 12.06768 12.1875 14.6875 C12.18105 15.47512 12.17461 16.26273 12.16797 17.07422 C12 19 12 19 11 20 C11.76055 20.54656 12.52109 21.09313 13.30469 21.65625 C21.3219 28.62774 23.78449 40.63295 25.44922 50.72266 C26 53 26 53 28 55 C28.99 54.34 29.98 53.68 31 53 C31 59.6 31 66.2 31 73 C31.66 73 32.32 73 33 73 C34.98594 87.78663 31.45351 97.78065 23 110 C22.01 110.66 21.02 111.32 20 112 C21.87072 107.28856 23.82482 102.61385 25.78125 97.9375 C26.18344 96.96812 26.58562 95.99875 27 95 C27.36867 94.12988 27.73734 93.25977 28.11719 92.36328 C29.26617 89.28746 29.61761 86.2503 30 83 C29.34 83 28.68 83 28 83 C27.92395 83.70898 27.84789 84.41797 27.76953 85.14844 C26.79312 88.7666 25.0937 90.76592 22.6875 93.625 C21.90762 94.56602 21.12773 95.50703 20.32422 96.47656 C18.32357 98.64869 16.4295 100.34327 14 102 C13.67 100.35 13.34 98.7 13 97 C12.01 97 11.02 97 10 97 C8.3125 95.6875 8.3125 95.6875 7 94 C7 93.01 7 92.02 7 91 C8.57422 89.74609 8.57422 89.74609 10.6875 88.4375 C17.55176 83.52925 19.92994 76.39916 21.60742 68.4021 C22.24653 64.49153 22.34097 60.64363 22.3125 56.6875 C22.30686 55.85936 22.30122 55.03122 22.29541 54.17798 C22.06394 42.41542 19.33891 32.22859 11.44141 23.22266 C-0.11669 12.32977 -16.12418 10.75184 -31.1875 10.6875 C-31.7399 10.68472 -31.7399 10.68472 -34.5354 10.67065 C-41.25463 10.72957 -47.4761 11.39509 -54 13 C-54.93973 13.22301 -55.87945 13.44602 -56.84766 13.67578 C-67.29922 16.68038 -77.31122 21.81398 -83.01953 31.38672 C-87.49804 39.89319 -89.1066 46.84314 -89.5625 56.3125 C-89.60568 57.14846 -89.64887 57.98441 -89.69336 58.8457 C-89.79885 60.89697 -89.89987 62.94846 -90 65 C-90.33 65 -90.66 65 -91 65 C-92.44564 49.97788 -92.26605 38.7731 -82.86719 26.1875 C-80.66742 23.61036 -78.34719 21.43003 -75.67578 19.35156 C-74 18 -74 18 -72.33594 16.00391 C-69.00052 13.14259 -65.51557 12.38658 -61.3125 11.3125 C-60.54744 11.10045 -59.78238 10.8884 -58.99414 10.66992 C-41.06306 5.88125 -16.96901 4.51549 0 13 C0 8.71 0 4.42 0 0 Z " fill="#F6F4F0" transform="translate(126,43)"/>
<path d="M0 0 C2.4375 0.8125 2.4375 0.8125 5 2 C10.353 18.059 5.18261 40.95579 2.46118 57.22021 C1.67875 61.93636 1.1019 67.51358 3 72 C3.99 72.66 4.98 73.32 6 74 C9.66457 84.02936 8.87727 95.83503 6 106 C5.835 106.33 5.835 106.33 5 108 C4.34 108 3.68 108 3 108 C3 109.32 3 110.64 3 112 C1.53906 113.48438 1.53906 113.48438 -0.375 114.75 C-1.00148 115.17797 -1.62797 115.60594 -2.27344 116.04688 C-4 117 -4 117 -6 117 C-9.07488 110.85023 -8.15883 102.06094 -8.16797 95.30078 C-8.1713 94.42149 -8.17463 93.54221 -8.17805 92.63628 C-8.18307 90.7952 -8.18546 88.95412 -8.1853 87.11304 C-8.1875 84.30893 -8.20575 81.50521 -8.22461 78.70117 C-8.22754 76.90104 -8.22953 75.10091 -8.23047 73.30078 C-8.23765 72.47146 -8.24484 71.64213 -8.25224 70.78767 C-8.23287 65.82547 -7.50004 61.7727 -6 57 C-5.57553 54.63078 -5.19443 52.25349 -4.85156 49.87109 C-4.75412 49.20719 -4.65668 48.54328 -4.55629 47.85925 C-4.34902 46.44663 -4.14364 45.03373 -3.94003 43.62057 C-1.92936 29.68725 0.35271 15.82803 3 2 C1.35 2 -0.3 2 -2 2 C-1.34 1.34 -0.68 0.68 0 0 Z " fill="#F9F9F8" transform="translate(169,8)"/>
<path d="M0 0 C0.5102 6.91607 0.1642 12.26945 -4 18 C-8.28419 22.49672 -12.14534 24.15043 -18.3125 24.3125 C-23.37478 24.25907 -26.1451 23.47881 -30 20 C-34.33022 15.54606 -36.72442 10.23801 -37.25 4.0625 C-37 2 -37 2 -36 1 C-33.901 0.92442 -31.79948 0.91692 -29.69922 0.9375 C-28.41209 0.94523 -27.12496 0.95297 -25.79883 0.96094 C-23.74486 0.97958 -21.69091 0.99997 -19.63696 1.02051 C-17.65775 1.03864 -15.67848 1.05064 -13.69922 1.0625 C-13.1054 1.0683 -13.1054 1.0683 -10.10034 1.09766 C-6.59844 0.98735 -3.48852 0 0 0 Z " fill="#37C9E3" transform="translate(111,110)"/>
<path d="M0 0 C4.66348 1.86539 8.43759 3.46243 11.13281 7.83984 C12.11255 10.28036 12.23513 12.06768 12.1875 14.6875 C12.18105 15.47512 12.17461 16.26273 12.16797 17.07422 C12 19 12 19 11 20 C11.75797 20.53496 12.51594 21.06992 13.29688 21.62109 C16.28733 24.25287 17.5621 26.47794 19.25 30.0625 C19.75016 31.10535 20.25031 32.1482 20.76562 33.22266 C22.97231 38.1877 23.08769 41.6512 23 47 C22.67 47 22.34 47 22 47 C21.85305 46.24977 21.70609 45.49953 21.55469 44.72656 C19.26112 34.26052 15.28655 24.97632 6 19 C-6.044 12.23371 -17.61277 10.74548 -31.1875 10.6875 C-31.7399 10.68472 -31.7399 10.68472 -34.5354 10.67065 C-41.25463 10.72957 -47.4761 11.39509 -54 13 C-54.93973 13.22301 -55.87945 13.44602 -56.84766 13.67578 C-67.29922 16.68038 -77.31122 21.81398 -83.01953 31.38672 C-87.49804 39.89319 -89.1066 46.84314 -89.5625 56.3125 C-89.60568 57.14846 -89.64887 57.98441 -89.69336 58.8457 C-89.79885 60.89697 -89.89987 62.94846 -90 65 C-90.33 65 -90.66 65 -91 65 C-92.44564 49.97788 -92.26605 38.7731 -82.86719 26.1875 C-80.66742 23.61036 -78.34719 21.43003 -75.67578 19.35156 C-74 18 -74 18 -72.33594 16.00391 C-69.00052 13.14259 -65.51557 12.38658 -61.3125 11.3125 C-60.54744 11.10045 -59.78238 10.8884 -58.99414 10.66992 C-41.06306 5.88125 -16.96901 4.51549 0 13 C0 8.71 0 4.42 0 0 Z " fill="#A4E9FA" transform="translate(126,43)"/>
<path d="M0 0 C2.4375 0.8125 2.4375 0.8125 5 2 C11.38432 21.15297 4.05812 48.53598 1 68 C-1.31 66.68 -3.62 65.36 -6 64 C-5.44186 52.02843 -3.42735 40.31056 -1.5 28.5 C-1.17532 26.48185 -0.8511 24.46362 -0.52734 22.44531 C2.0116 6.68164 2.0116 6.68164 3 2 C1.35 2 -0.3 2 -2 2 C-1.34 1.34 -0.68 0.68 0 0 Z " fill="#EEEAEA" transform="translate(169,8)"/>
<path d="M0 0 C0.66 0.33 1.32 0.66 2 1 C2.49953 2.76375 2.49953 2.76375 2.85376 5.08911 C2.99053 5.95704 3.12729 6.82496 3.2682 7.71919 C3.40786 8.66393 3.54752 9.60867 3.69141 10.58203 C3.84158 11.54776 3.99175 12.51348 4.14647 13.50847 C4.62692 16.60858 5.09509 19.7104 5.5625 22.8125 C6.03591 25.90347 6.51181 28.99404 6.98924 32.0844 C7.28596 34.01048 7.57989 35.93699 7.87074 37.86397 C8.00436 38.74135 8.13797 39.61873 8.27563 40.52271 C8.39174 41.29246 8.50784 42.06222 8.62746 42.8553 C9 45 9 45 9.53258 47.12309 C10.12061 49.48432 10.20646 51.69391 10.25 54.125 C10.26289 54.55941 10.26289 54.55941 10.32812 56.75781 C10.21984 57.49773 10.11156 58.23766 10 59 C7 61 7 61 4.8125 60.625 C4.21438 60.41875 3.61625 60.2125 3 60 C2.34562 55.62624 1.70313 51.2508 1.0625 46.875 C0.8801 45.65684 0.6977 44.43867 0.50977 43.18359 C-1.10265 32.10191 -2.12746 21.01587 -2.1875 9.8125 C-2.20168 8.58145 -2.21586 7.35039 -2.23047 6.08203 C-2 3 -2 3 0 0 Z " fill="#EFEAEB" transform="translate(11,13)"/>
<path d="M0 0 C5.91954 0.38927 10.63922 1.27259 16 4 C16.79535 4.3893 17.5907 4.77859 18.41016 5.17969 C25.91247 9.18545 31.2724 14.81721 34 23 C34.03954 25.333 34.04402 27.66708 34 30 C32.68 30 31.36 30 30 30 C28.59297 28.05115 27.26942 26.04117 26 24 C20.79712 18.30935 15.83126 13.99988 8.5 11.4375 C3.37458 9.6051 3.37458 9.6051 1.57812 6.70312 C0.83761 4.45362 0.30659 2.3454 0 0 Z " fill="#3B3841" transform="translate(109,58)"/>
<path d="M0 0 C0.33 0 0.66 0 1 0 C1.33 7.92 1.66 15.84 2 24 C4.64 24.66 7.28 25.32 10 26 C10.02717 28.54174 10.04692 31.08318 10.0625 33.625 C10.07088 34.33785 10.07926 35.0507 10.08789 35.78516 C10.1071 39.97344 9.82673 43.87285 9 48 C5.05946 47.41622 2.66012 45.95569 0 43 C-0.30621 40.60987 -0.25364 38.42475 -0.07812 36.02344 C0 34 0 34 -1 32 C-1.33 33.98 -1.66 35.96 -2 38 C-5.4177 32.87345 -5.18221 27.70422 -5.1875 21.6875 C-5.19975 20.96627 -5.21199 20.24504 -5.22461 19.50195 C-5.23845 14.35605 -4.41469 9.94862 -3 5 C-2.34 5 -1.68 5 -1 5 C-0.67 3.35 -0.34 1.7 0 0 Z " fill="#C2E7F0" transform="translate(13,77)"/>
<path d="M0 0 C0.47889 0.08121 0.47889 0.08121 2.90234 0.49219 C7.45826 1.1409 11.96803 1.14666 16.5625 1.125 C16.97468 1.12693 16.97468 1.12693 19.06055 1.13672 C23.48701 1.12964 27.64287 0.88979 32 0 C31.52389 4.99912 29.96838 7.97833 27 12 C26.29746 11.67516 25.59492 11.35031 24.87109 11.01562 C18.31852 8.69771 10.32945 9.18691 4 12 C1.24332 8.04476 0.46821 4.77576 0 0 Z " fill="#0F3B48" transform="translate(77,114)"/>
<path d="M0 0 C1.12406 -0.02063 2.24813 -0.04125 3.40625 -0.0625 C9.94364 -0.09305 16.09461 0.15755 22 3.25 C22.165 3.58 22.165 3.58 23 5.25 C22.67874 5.17926 22.67874 5.17926 21.05298 4.82129 C13.62092 3.3122 6.50747 2.94691 -1.0625 3 C-1.61583 2.99613 -1.61583 2.99613 -4.41602 2.97656 C-11.18814 2.99256 -17.42722 3.62275 -24 5.25 C-24.46986 5.3615 -24.46986 5.3615 -26.84766 5.92578 C-37.29922 8.93038 -47.31122 14.06398 -53.01953 23.63672 C-57.49804 32.14319 -59.1066 39.09314 -59.5625 48.5625 C-59.60568 49.39846 -59.64887 50.23441 -59.69336 51.0957 C-59.79885 53.14697 -59.89987 55.19846 -60 57.25 C-60.33 57.25 -60.66 57.25 -61 57.25 C-62.44564 42.22788 -62.26605 31.0231 -52.86719 18.4375 C-50.66742 15.86036 -48.34719 13.68003 -45.67578 11.60156 C-44 10.25 -44 10.25 -42.33594 8.25391 C-39.00052 5.39259 -35.51557 4.63658 -31.3125 3.5625 C-30.54744 3.35045 -29.78238 3.1384 -28.99414 2.91992 C-19.37092 0.34995 -9.92632 0.04553 0 0 Z " fill="#BCB9BB" transform="translate(96,50.75)"/>
<path d="M0 0 C0.66 0 1.32 0 2 0 C2.31777 5.66074 1.34682 9.86262 -0.6875 15.125 C-0.93178 15.81465 -1.17605 16.5043 -1.42773 17.21484 C-3.16855 21.82469 -5.24393 24.67826 -9 28 C-9.55687 28.59813 -10.11375 29.19625 -10.6875 29.8125 C-12 31 -12 31 -14 31 C-14 31.66 -14 32.32 -14 33 C-15.98 33.66 -17.96 34.32 -20 35 C-16.91102 25.67647 -14.24606 17.92439 -7 11 C-3.89029 7.5875 -1.4415 4.45555 0 0 Z " fill="#9EE5F9" transform="translate(154,126)"/>
<path d="M0 0 C0.90105 0.01805 1.80211 0.03609 2.73047 0.05469 C3.41754 0.07789 4.10461 0.10109 4.8125 0.125 C5.1425 1.445 5.4725 2.765 5.8125 4.125 C2.8425 4.125 -0.1275 4.125 -3.1875 4.125 C-3.1875 7.095 -3.1875 10.065 -3.1875 13.125 C-0.8775 13.455 1.4325 13.785 3.8125 14.125 C3.8125 14.785 3.8125 15.445 3.8125 16.125 C4.43125 16.24875 5.05 16.3725 5.6875 16.5 C7.8125 17.125 7.8125 17.125 9.8125 19.125 C9.9375 22.25 9.9375 22.25 9.8125 25.125 C8.8225 25.125 7.8325 25.125 6.8125 25.125 C6.6475 24.48562 6.4825 23.84625 6.3125 23.1875 C4.8125 21.125 4.8125 21.125 1 20.0625 C-1.15234 19.875 -1.15234 19.875 -3.1875 20.125 C-6.0625 22.5625 -6.0625 22.5625 -8.1875 25.125 C-8.8475 25.125 -9.5075 25.125 -10.1875 25.125 C-9.52083 21.79167 -8.85417 18.45833 -8.1875 15.125 C-7.1975 14.795 -6.2075 14.465 -5.1875 14.125 C-5.1875 12.145 -5.1875 10.165 -5.1875 8.125 C-6.8375 8.125 -8.4875 8.125 -10.1875 8.125 C-10.1875 6.805 -10.1875 5.485 -10.1875 4.125 C-9.5275 4.125 -8.8675 4.125 -8.1875 4.125 C-8.1875 3.465 -8.1875 2.805 -8.1875 2.125 C-4.87379 -0.08414 -3.8429 -0.09982 0 0 Z " fill="#122D36" transform="translate(65.1875,76.875)"/>
<path d="M0 0 C3.03453 -0.23343 5.9725 -0.35679 9 0 C11.3125 2 11.3125 2 13 4 C14.32 4 15.64 4 17 4 C17 6.64 17 9.28 17 12 C14.23724 11.47732 11.67391 10.8913 9 10 C9 9.34 9 8.68 9 8 C8.33613 8.13277 7.67227 8.26555 6.98828 8.40234 C2.65885 9.26823 -1.67057 10.13411 -6 11 C-6.9812 7.94736 -6.9812 6.05264 -6 3 C-4.02 2.67 -2.04 2.34 0 2 C0 1.34 0 0.68 0 0 Z " fill="#142F39" transform="translate(116,91)"/>
<path d="M0 0 C4.61287 0.30966 8.77604 0.75588 13.0625 2.5625 C17.18178 4.26989 20.57128 4.23725 25 4 C25.33 4.99 25.66 5.98 26 7 C28.0625 7.9375 28.0625 7.9375 31 9 C33.68889 10.28967 36.34469 11.64269 39 13 C38.75379 13.72574 38.50758 14.45148 38.25391 15.19922 C38 18 38 18 39.65234 20.45703 C40.40645 21.23434 41.16055 22.01164 41.9375 22.8125 C42.68902 23.6027 43.44055 24.39289 44.21484 25.20703 C44.80395 25.79871 45.39305 26.39039 46 27 C45.67 27.66 45.34 28.32 45 29 C44.34 28.34 43.68 27.68 43 27 C42.01 27.99 41.02 28.98 40 30 C39.34 28.68 38.68 27.36 38 26 C38.99 25.34 39.98 24.68 41 24 C35.80763 18.42563 30.50296 13.97403 24 10 C23.67 10.66 23.34 11.32 23 12 C20.08483 10.92599 18.2219 10.2219 16 8 C15.67 8.165 15.67 8.165 14 9 C11.875 8.0625 11.875 8.0625 10 7 C10.66 7 11.32 7 12 7 C11.67 6.01 11.34 5.02 11 4 C8.49609 3.05078 8.49609 3.05078 5.4375 2.3125 C4.93154 2.18682 4.93154 2.18682 2.37109 1.55078 C1.97986 1.4599 1.97986 1.4599 0 1 C0 0.67 0 0.34 0 0 Z " fill="#F2EEEC" transform="translate(104,29)"/>
<path d="M0 0 C1.875 0.5 1.875 0.5 4 2 C7.80489 11.89271 6.84782 23.9391 4 34 C3.67 34.66 3.34 35.32 3 36 C2.34 36 1.68 36 1 36 C1 34.35 1 32.7 1 31 C0.67 32.65 0.34 34.3 0 36 C-0.33 36 -0.66 36 -1 36 C-1.02923 31.50001 -1.04687 27.00005 -1.0625 22.5 C-1.07088 21.23156 -1.07926 19.96312 -1.08789 18.65625 C-1.10434 12.33917 -1.00091 6.2419 0 0 Z " fill="#D9F2F7" transform="translate(171,80)"/>
<path d="M0 0 C1.04027 -0.01676 2.08055 -0.03352 3.15234 -0.05078 C6.3972 0.35428 7.75531 1.03252 10.0625 3.3125 C10.625 5.8125 10.625 5.8125 10.0625 8.3125 C6.81813 11.55687 3.61393 11.48875 -0.75 11.5 C-2.47963 11.45202 -4.20914 11.39423 -5.9375 11.3125 C-5.9375 10.6525 -5.9375 9.9925 -5.9375 9.3125 C-6.9275 8.6525 -7.9175 7.9925 -8.9375 7.3125 C-9.3125 4.8125 -9.3125 4.8125 -8.9375 2.3125 C-5.50249 0.0225 -4.05022 0.01502 0 0 Z " fill="#31C8E5" transform="translate(92.9375,122.6875)"/>
<path d="M0 0 C0.99 5.94 1.98 11.88 3 18 C-4 23 -4 23 -6 23 C-9.13463 16.73075 -8.13119 7.85124 -8 1 C-2.25 0 -2.25 0 0 0 Z " fill="#E7E8EF" transform="translate(169,102)"/>
<path d="M0 0 C0 0.99 0 1.98 0 3 C-0.66 3 -1.32 3 -2 3 C-2 3.99 -2 4.98 -2 6 C-3.9375 6.5625 -3.9375 6.5625 -6 7 C-6.33 6.67 -6.66 6.34 -7 6 C-13.39881 5.61765 -19.67465 6.04523 -26 7 C-26 5.02 -26 3.04 -26 1 C-22.22921 0.83227 -18.45836 0.666 -14.6875 0.5 C-13.61564 0.4523 -12.54379 0.40461 -11.43945 0.35547 C-10.92544 0.33291 -10.92544 0.33291 -8.32422 0.21875 C-7.37635 0.17686 -6.42849 0.13496 -5.4519 0.0918 C-3.63562 0.0238 -1.81756 0 0 0 Z " fill="#1C2025" transform="translate(107,116)"/>
<path d="M0 0 C0.71285 0.32484 1.4257 0.64969 2.16016 0.98438 C8.53283 3.26346 15.82921 2.66845 22 0 C22 0.66 22 1.32 22 2 C18.83759 4.10827 17.49343 4.33817 13.8125 4.625 C12.91145 4.69977 12.01039 4.77453 11.08203 4.85156 C10.39496 4.90055 9.70789 4.94953 9 5 C9.99 5.66 10.98 6.32 12 7 C10.68 7.99 9.36 8.98 8 10 C11.3 10.33 14.6 10.66 18 11 C18 11.33 18 11.66 18 12 C15.1666 12.02724 12.33347 12.04696 9.5 12.0625 C9.10426 12.06669 9.10426 12.06669 7.10156 12.08789 C1.97238 12.10891 -2.92336 11.73937 -8 11 C-8 10.67 -8 10.34 -8 10 C-5.69 10 -3.38 10 -1 10 C-1 9.01 -1 8.02 -1 7 C-0.34 6.67 0.32 6.34 1 6 C1.625 3.9375 1.625 3.9375 2 2 C1.34 2 0.68 2 0 2 C0 1.34 0 0.68 0 0 Z " fill="#3D3B40" transform="translate(82,131)"/>
<path d="M0 0 C0.48469 0.2475 0.48469 0.2475 2.9375 1.5 C2.6075 3.15 2.2775 4.8 1.9375 6.5 C0.6175 6.5 -0.7025 6.5 -2.0625 6.5 C-2.0625 5.84 -2.0625 5.18 -2.0625 4.5 C-4.0425 4.5 -6.0225 4.5 -8.0625 4.5 C-7.7325 5.49 -7.4025 6.48 -7.0625 7.5 C-9.3725 7.17 -11.6825 6.84 -14.0625 6.5 C-14.7225 4.19 -15.3825 1.88 -16.0625 -0.5 C-10.67 -2.2975 -5.25004 -2.26682 0 0 Z " fill="#142830" transform="translate(128.0625,78.5)"/>
<path d="M0 0 C0.33 0 0.66 0 1 0 C2.98594 14.78663 -0.54649 24.78065 -9 37 C-9.99 37.66 -10.98 38.32 -12 39 C-10.12928 34.28856 -8.17518 29.61385 -6.21875 24.9375 C-5.81656 23.96812 -5.41438 22.99875 -5 22 C-4.61715 21.1402 -4.2343 20.28039 -3.83984 19.39453 C-2.96605 16.9032 -2.87646 15.2968 -3.0625 12.6875 C-3.20088 7.83589 -1.93063 4.42436 0 0 Z " fill="#DEEAF2" transform="translate(158,116)"/>
<path d="M0 0 C0.66 0.33 1.32 0.66 2 1 C2.02914 5.20832 2.04685 9.41661 2.0625 13.625 C2.07088 14.8148 2.07926 16.00461 2.08789 17.23047 C2.09111 18.38418 2.09434 19.53789 2.09766 20.72656 C2.10289 21.7844 2.10813 22.84224 2.11353 23.93213 C1.99876 27.03362 1.57696 29.95348 1 33 C-2.4177 27.87345 -2.18221 22.70422 -2.1875 16.6875 C-2.19975 15.96627 -2.21199 15.24504 -2.22461 14.50195 C-2.23845 9.35605 -1.41469 4.94862 0 0 Z " fill="#E6F6F8" transform="translate(10,82)"/>
<path d="M0 0 C0.66 0 1.32 0 2 0 C1.45892 4.88835 -0.7415 8.23308 -3.375 12.25 C-3.77461 12.8868 -4.17422 13.52359 -4.58594 14.17969 C-7.62233 18.87411 -7.62233 18.87411 -11 20 C-10.67 17.36 -10.34 14.72 -10 12 C-8.68 11.67 -7.36 11.34 -6 11 C-7.32 10.67 -8.64 10.34 -10 10 C-10.33 8.68 -10.66 7.36 -11 6 C-10.28973 5.65066 -9.57945 5.30133 -8.84766 4.94141 C-7.92855 4.48637 -7.00945 4.03133 -6.0625 3.5625 C-5.60424 3.33627 -5.60424 3.33627 -3.28516 2.19141 C-1 1 -1 1 0 0 Z " fill="#E4E5ED" transform="translate(138,145)"/>
<path d="M0 0 C1.65 0.33 3.3 0.66 5 1 C3.67993 9.12884 3.67993 9.12884 1 12.5625 C-1 14 -1 14 -3 14 C-3 14.66 -3 15.32 -3 16 C-4.98 16.66 -6.96 17.32 -9 18 C-8.40651 16.22556 -7.79978 14.45554 -7.1875 12.6875 C-7.01928 12.19443 -7.01928 12.19443 -6.16797 9.69922 C-5.038 7.08781 -4.08333 5.85688 -2 4 C-0.8125 1.8125 -0.8125 1.8125 0 0 Z " fill="#92E7FB" transform="translate(143,143)"/>
<path d="M0 0 C0.51077 6.92374 0.10001 12.22398 -4 18 C-6.25 20 -6.25 20 -8 21 C-8.57413 16.11992 -6.72382 13.92551 -4 10 C-2.75 6.625 -2.75 6.625 -2 4 C-2.88688 4.33 -3.77375 4.66 -4.6875 5 C-7.70923 5.91222 -9.88374 6.18331 -13 6 C-12.01 5.34 -11.02 4.68 -10 4 C-14.29 3.67 -18.58 3.34 -23 3 C-23 2.67 -23 2.34 -23 2 C-21.89141 1.93941 -20.78281 1.87883 -19.64062 1.81641 C-18.17707 1.73197 -16.71353 1.64732 -15.25 1.5625 C-14.8852 1.54284 -14.8852 1.54284 -13.03906 1.44336 C-7.44646 1.11289 -7.44646 1.11289 -4.94434 0.48022 C-3 0 -3 0 0 0 Z " fill="#37BBD1" transform="translate(111,110)"/>
<path d="M0 0 C0.66 0 1.32 0 2 0 C-0.09237 9.2195 -5.35819 15.56354 -13 21 C-13.76953 18.30469 -13.76953 18.30469 -14 15 C-12.19922 12.44531 -12.19922 12.44531 -9.6875 10.125 C-8.86637 9.34383 -8.04523 8.56266 -7.19922 7.75781 C-5 6 -5 6 -3 6 C-2.67 5.34 -2.34 4.68 -2 4 C-1.34 4 -0.68 4 0 4 C0 2.68 0 1.36 0 0 Z " fill="#F3F4F3" transform="translate(153,124)"/>
<path d="M0 0 C2.31 0.66 4.62 1.32 7 2 C8.05405 5.98196 7.84099 8.98195 7 13 C3.61818 12.3961 1.24796 11.66425 -1 9 C-1.03818 5.92905 -0.58053 3.00992 0 0 Z " fill="#E1E1E9" transform="translate(15,112)"/>
<path d="M0 0 C2 6.625 2 6.625 2 10 C-3.25714 14 -3.25714 14 -6 14 C-7.0316 10.90521 -6.97483 9.47369 -6.5625 6.3125 C-6.46066 5.50426 -6.35883 4.69602 -6.25391 3.86328 C-6.17012 3.2484 -6.08633 2.63352 -6 2 C-1.125 0 -1.125 0 0 0 Z " fill="#E1E0E8" transform="translate(169,111)"/>
<path d="M0 0 C3.3125 1.6875 3.3125 1.6875 6 4 C6.875 6.75 6.875 6.75 7 9 C4 8 4 8 2.6875 6.5 C0.18341 4.27414 -1.68474 4.06631 -5 4 C-7.75 5.9375 -7.75 5.9375 -10 8 C-10.66 8 -11.32 8 -12 8 C-11.8125 5.6875 -11.8125 5.6875 -11 3 C-7.42904 0.0412 -4.56774 -0.65253 0 0 Z " fill="#38BCD0" transform="translate(123,93)"/>
<path d="M0 0 C0.33 1.32 0.66 2.64 1 4 C1.99 4 2.98 4 4 4 C4.1875 6.375 4.1875 6.375 4 9 C3.01 9.66 2.02 10.32 1 11 C1 11.99 1 12.98 1 14 C1 14.99 1 15.98 1 17 C-2 19 -2 19 -4.1875 18.625 C-4.48656 18.52187 -4.48656 18.52187 -6 18 C-5.73445 17.45473 -5.46891 16.90945 -5.19531 16.34766 C-2.67845 10.97407 -1.04874 5.83704 0 0 Z " fill="#EDE9E8" transform="translate(148,109)"/>
<path d="M0 0 C0.66 0 1.32 0 2 0 C2.19397 1.97854 2.38001 3.95786 2.5625 5.9375 C2.66691 7.03965 2.77133 8.1418 2.87891 9.27734 C2.91887 10.17582 2.95883 11.0743 3 12 C2.67 12.33 2.34 12.66 2 13 C1.76472 15.34987 1.58614 17.70556 1.4375 20.0625 C1.35371 21.35285 1.26992 22.6432 1.18359 23.97266 C1.12301 24.97168 1.06242 25.9707 1 27 C0.34 26.67 -0.32 26.34 -1 26 C-1.02887 21.85418 -1.04675 17.70839 -1.0625 13.5625 C-1.07088 12.3785 -1.07926 11.19449 -1.08789 9.97461 C-1.09111 8.8499 -1.09434 7.7252 -1.09766 6.56641 C-1.10289 5.52428 -1.10813 4.48215 -1.11353 3.40845 C-1 1 -1 1 0 0 Z " fill="#EDFAFB" transform="translate(15,75)"/>
<path d="M0 0 C0.66 0.33 1.32 0.66 2 1 C2.02687 2.97909 2.04633 4.95829 2.0625 6.9375 C2.0741 8.03965 2.0857 9.1418 2.09766 10.27734 C2 13 2 13 1 14 C0.93945 17.52701 0.9796 21.04004 1.03906 24.56641 C1.0801 28.52649 0.99038 32.13131 0 36 C-0.33 36 -0.66 36 -1 36 C-1.02923 31.50001 -1.04687 27.00005 -1.0625 22.5 C-1.07088 21.23156 -1.07926 19.96312 -1.08789 18.65625 C-1.10434 12.33917 -1.00091 6.2419 0 0 Z " fill="#8AE7F4" transform="translate(171,80)"/>
<path d="M0 0 C1.78906 1.42188 1.78906 1.42188 3 3 C2.6875 5.1875 2.6875 5.1875 2 7 C1.67 6.52563 1.34 6.05125 1 5.5625 C-2.03727 3.18963 -5.17403 2.58901 -9 3 C-11.875 5.4375 -11.875 5.4375 -14 8 C-14.66 8 -15.32 8 -16 8 C-15.79755 4.35587 -15.18969 3.1802 -12.5 0.625 C-8.09986 -1.41792 -4.62539 -1.47131 0 0 Z " fill="#3EBFD1" transform="translate(71,94)"/>
<path d="M0 0 C0.66 0.33 1.32 0.66 2 1 C0 3 0 3 -3.4375 4.4375 C-13.18591 9.20536 -20.318 19.06005 -26 28 C-26.33 27.34 -26.66 26.68 -27 26 C-22.41655 19.31841 -17.75741 13.46351 -11.6875 8.07031 C-10 6 -10 6 -9.75 3.24219 C-9.79125 2.87223 -9.79125 2.87223 -10 1 C-9.54625 1.10312 -9.54625 1.10312 -7.25 1.625 C-3.80118 2.02294 -2.89131 1.65218 0 0 Z " fill="#EAE5E2" transform="translate(57,36)"/>
<path d="M0 0 C3.6875 1.0625 3.6875 1.0625 5.6875 4.0625 C2.82573 5.49339 0.75374 4.66242 -2.3125 4.0625 C-2.3125 4.7225 -2.3125 5.3825 -2.3125 6.0625 C-2.91062 5.83562 -3.50875 5.60875 -4.125 5.375 C-4.48594 5.32344 -4.48594 5.32344 -6.3125 5.0625 C-6.78688 5.53687 -7.26125 6.01125 -7.75 6.5 C-9.3125 8.0625 -9.3125 8.0625 -12 8.25 C-12.76313 8.18812 -13.52625 8.12625 -14.3125 8.0625 C-13.9825 6.0825 -13.6525 4.1025 -13.3125 2.0625 C-12.6525 2.0625 -11.9925 2.0625 -11.3125 2.0625 C-11.3125 3.3825 -11.3125 4.7025 -11.3125 6.0625 C-10.9 5.61777 -10.4875 5.17305 -10.0625 4.71484 C-6.83174 1.54899 -4.68783 -0.47992 0 0 Z " fill="#12303A" transform="translate(66.3125,95.9375)"/>
<path d="M0 0 C0.91008 0.00902 1.82016 0.01805 2.75781 0.02734 C3.45648 0.03895 4.15516 0.05055 4.875 0.0625 C4.37355 0.67609 3.87211 1.28969 3.35547 1.92188 C1.875 4.0625 1.875 4.0625 2.1875 6.3125 C2.30094 6.60125 2.30094 6.60125 2.875 8.0625 C-3.56039 8.42677 -3.56039 8.42677 -6.0625 6.8125 C-7.125 5.0625 -7.125 5.0625 -7.125 1.0625 C-4.60025 -0.19988 -2.813 -0.03606 0 0 Z " fill="#28CFF0" transform="translate(91.125,124.9375)"/>
<path d="M0 0 C3.56007 2.37338 3.85111 3.66191 5.1875 7.625 C5.35959 8.12645 5.35959 8.12645 6.23047 10.66406 C6.48441 11.43492 6.73836 12.20578 7 13 C7.99 13 8.98 13 10 13 C10.10313 13.78375 10.20625 14.5675 10.3125 15.375 C11 18 11 18 14 20 C13.01 20.33 12.02 20.66 11 21 C5.32341 18.08926 2.79765 13.20883 0.62891 7.46484 C-0.03085 4.87907 -0.11841 2.65722 0 0 Z " fill="#38B8CE" transform="translate(74,112)"/>
<path d="M0 0 C1.42312 -0.06188 2.84625 -0.12375 4.3125 -0.1875 C4.71275 -0.2049 4.71275 -0.2049 6.73828 -0.29297 C9 0 9 0 10.75391 1.35156 C12.3709 3.49065 12.59629 5.37586 13 8 C13.33 8.66 13.66 9.32 14 10 C14.07034 11.8738 14.0843 13.75001 14.0625 15.625 C14.05348 16.62789 14.04445 17.63078 14.03516 18.66406 C14.02355 19.43492 14.01195 20.20578 14 21 C13.01 21 12.02 21 11 21 C11.66 20.67 12.32 20.34 13 20 C12.73217 13.97378 12.14253 9.6876 8 5 C5.72595 3.43354 3.48192 2.24096 1 1 C1 4.96 1 8.92 1 13 C0.67 13 0.34 13 0 13 C0 8.71 0 4.42 0 0 Z " fill="#DFF2F8" transform="translate(125,42)"/>
<path d="M0 0 C5.75743 2.42869 9.45316 4.79058 13 10 C13 10.99 13 11.98 13 13 C10 13 10 13 7.625 10.6875 C6.75875 9.80062 5.8925 8.91375 5 8 C4.07188 7.505 3.14375 7.01 2.1875 6.5 C1.46562 6.005 0.74375 5.51 0 5 C-0.3125 2.3125 -0.3125 2.3125 0 0 Z " fill="#23232A" transform="translate(127,59)"/>
<path d="M0 0 C4.98876 1.00884 8.4633 3.37505 12 7 C16.71317 14.68298 19.14631 21.07495 19 30 C18.67 30 18.34 30 18 30 C17.85305 29.24977 17.70609 28.49953 17.55469 27.72656 C15.13317 16.67663 11.02333 8.88378 2 2 C1.34 1.34 0.68 0.68 0 0 Z " fill="#C3C3C8" transform="translate(130,60)"/>
<path d="M0 0 C0.33 0 0.66 0 1 0 C1.66 3.63 2.32 7.26 3 11 C3.33 11 3.66 11 4 11 C4 14.63 4 18.26 4 22 C3.01 22.33 2.02 22.66 1 23 C-0.22638 20.54725 -0.11415 18.94942 -0.09766 16.21094 C-0.09443 15.26992 -0.09121 14.32891 -0.08789 13.35938 C-0.07951 12.37453 -0.07113 11.38969 -0.0625 10.375 C-0.05799 9.38242 -0.05348 8.38984 -0.04883 7.36719 C-0.03702 4.9114 -0.02055 2.45573 0 0 Z " fill="#ECE9E8" transform="translate(149,85)"/>
<path d="M0 0 C0.66 0 1.32 0 2 0 C2.17836 4.54806 1.99785 7.87943 0 12 C-0.66 11.01 -1.32 10.02 -2 9 C-2.39187 9.78375 -2.78375 10.5675 -3.1875 11.375 C-5.24275 14.35156 -6.59679 14.98824 -10 16 C-8.35002 13.0474 -6.64338 10.5825 -4.4375 8 C-2.24642 5.30328 -1.05712 3.26746 0 0 Z " fill="#B0E7F6" transform="translate(154,126)"/>
<path d="M0 0 C0 1.32 0 2.64 0 4 C-8.42857 6.28571 -8.42857 6.28571 -13 6 C-12.01 5.34 -11.02 4.68 -10 4 C-14.29 3.67 -18.58 3.34 -23 3 C-23 2.67 -23 2.34 -23 2 C-21.89141 1.93941 -20.78281 1.87883 -19.64062 1.81641 C-18.17707 1.73197 -16.71353 1.64732 -15.25 1.5625 C-14.8852 1.54284 -14.8852 1.54284 -13.03906 1.44336 C-7.44646 1.11289 -7.44646 1.11289 -4.94434 0.48022 C-3 0 -3 0 0 0 Z " fill="#38AFC5" transform="translate(111,110)"/>
<path d="M0 0 C9.88776 -0.58163 9.88776 -0.58163 14 3 C14 3.99 14 4.98 14 6 C13.19563 5.67 12.39125 5.34 11.5625 5 C7.26195 3.79283 3.43034 3.82279 -1 4 C-0.67 2.68 -0.34 1.36 0 0 Z " fill="#35B5C5" transform="translate(115,77)"/>
<path d="M0 0 C0.99 0.33 1.98 0.66 3 1 C3 2.32 3 3.64 3 5 C0.92507 6.11157 -0.79436 6.96371 -3.125 7.375 C-5 8 -5 8 -6.25 10.0625 C-6.4975 10.70188 -6.745 11.34125 -7 12 C-8.0625 10.25 -8.0625 10.25 -9 8 C-8.67 6.68 -8.34 5.36 -8 4 C-5.03 4 -2.06 4 1 4 C0.67 2.68 0.34 1.36 0 0 Z " fill="#192329" transform="translate(70,77)"/>
<path d="M0 0 C0.90105 0.01805 1.80211 0.03609 2.73047 0.05469 C3.41754 0.07789 4.10461 0.10109 4.8125 0.125 C5.1425 1.445 5.4725 2.765 5.8125 4.125 C5.14863 4.1018 4.48477 4.07859 3.80078 4.05469 C-4.96957 3.87544 -4.96957 3.87544 -9.1875 6.125 C-8.875 4.25 -8.875 4.25 -8.1875 2.125 C-4.87379 -0.08414 -3.8429 -0.09982 0 0 Z " fill="#3BB6CA" transform="translate(65.1875,76.875)"/>
<path d="M0 0 C2.4375 0.375 2.4375 0.375 5 1 C5.33 1.66 5.66 2.32 6 3 C5.34 3.66 4.68 4.32 4 5 C3.34 4.67 2.68 4.34 2 4 C2 4.66 2 5.32 2 6 C4.31 6 6.62 6 9 6 C9 6.66 9 7.32 9 8 C9.66 8 10.32 8 11 8 C10.67 8.66 10.34 9.32 10 10 C9.34 9.67 8.68 9.34 8 9 C6.29297 8.93004 4.58332 8.9156 2.875 8.9375 C1.96492 8.94652 1.05484 8.95555 0.11719 8.96484 C-0.23215 8.97064 -0.23215 8.97064 -2 9 C-2 8.34 -2 7.68 -2 7 C-1.34 6.67 -0.68 6.34 0 6 C0 4.02 0 2.04 0 0 Z " fill="#142D35" transform="translate(116,69)"/>
<path d="M0 0 C2.70789 0.98469 3.99419 1.75646 5.75 4 C5.42 4.165 5.42 4.165 3.75 5 C3.75 4.34 3.75 3.68 3.75 3 C3.08613 3.13277 2.42227 3.26555 1.73828 3.40234 C-2.59115 4.26823 -6.92057 5.13411 -11.25 6 C-11.58 4.68 -11.91 3.36 -12.25 2 C-11.59 2 -10.93 2 -10.25 2 C-10.25 2.99 -10.25 3.98 -10.25 5 C-9.8143 4.62746 -9.37859 4.25492 -8.92969 3.87109 C-4.05654 0 -4.05654 0 0 0 Z " fill="#0D303A" transform="translate(121.25,96)"/>
<path d="M0 0 C0.99 0 1.98 0 3 0 C2.34 10.23 1.68 20.46 1 31 C0.67 31 0.34 31 0 31 C0 20.77 0 10.54 0 0 Z " fill="#DEFCFD" transform="translate(169,77)"/>
<path d="M0 0 C0.66 0.66 1.32 1.32 2 2 C1.67 2.495 1.67 2.495 0 5 C-0.66 5 -1.32 5 -2 5 C-1.34 6.65 -0.68 8.3 0 10 C-1.8125 10.6875 -1.8125 10.6875 -4 11 C-5.75 9.75 -5.75 9.75 -7 8 C-7 7.01 -7 6.02 -7 5 C-5.46875 3.61328 -5.46875 3.61328 -3.5 2.3125 C-2.85031 1.87551 -2.20063 1.43852 -1.53125 0.98828 C-1.27859 0.82521 -1.27859 0.82521 0 0 Z " fill="#F1EDEA" transform="translate(140,129)"/>
<path d="M0 0 C1.65 0.33 1.65 0.33 10 2 C10 2.33 10 2.66 10 3 C8.02 3 6.04 3 4 3 C4 5.31 4 7.62 4 10 C4.99 10.33 5.98 10.66 7 11 C5.68 11 4.36 11 3 11 C2.49385 9.7316 1.99531 8.46017 1.5 7.1875 C1.22156 6.4798 0.94312 5.77211 0.65625 5.04297 C0 3 0 3 0 0 Z " fill="#0A2E3C" transform="translate(77,114)"/>
<path d="M0 0 C0.33 1.98 0.66 3.96 1 6 C0.34 6 -0.32 6 -1 6 C-1 5.34 -1 4.68 -1 4 C-1.66 4 -2.32 4 -3 4 C-3.33 4.99 -3.66 5.98 -4 7 C-4.99 7 -5.98 7 -7 7 C-7.66 5.35 -8.32 3.7 -9 2 C-5.62903 0.50179 -3.79558 0 0 0 Z " fill="#F0EAE9" transform="translate(37,112)"/>
<path d="M0 0 C0.99 0.33 1.98 0.66 3 1 C3 1.66 3 2.32 3 3 C3.99 3 4.98 3 6 3 C6 4.98 6 6.96 6 9 C3.69 8.67 1.38 8.34 -1 8 C-1 7.01 -1 6.02 -1 5 C-0.34 5 0.32 5 1 5 C1 4.01 1 3.02 1 2 C0.34 1.67 -0.32 1.34 -1 1 C-0.67 0.67 -0.34 0.34 0 0 Z " fill="#98E9FB" transform="translate(131,51)"/>
<path d="M0 0 C0.33 0 0.66 0 1 0 C1 1.98 1 3.96 1 6 C1.99 6.33 2.98 6.66 4 7 C4 8.32 4 9.64 4 11 C2.55903 10.57405 1.12231 10.13373 -0.3125 9.6875 C-1.11301 9.44387 -1.91352 9.20023 -2.73828 8.94922 C-5.09965 7.95818 -6.3388 6.91925 -8 5 C-2.25 5.875 -2.25 5.875 0 7 C0 4.69 0 2.38 0 0 Z " fill="#B6CFD7" transform="translate(126,49)"/>
<path d="M0 0 C0.33 0.66 0.66 1.32 1 2 C1.99 2.33 2.98 2.66 4 3 C2.95125 5.62187 2.35069 6.79371 -0.125 8.25 C-0.74375 8.4975 -1.3625 8.745 -2 9 C-3.32 8.01 -4.64 7.02 -6 6 C-5.19563 5.7525 -4.39125 5.505 -3.5625 5.25 C-1 4 -1 4 -0.1875 1.875 C-0.12563 1.25625 -0.06375 0.6375 0 0 Z M-8 7 C-6 8 -6 8 -6 8 Z " fill="#272529" transform="translate(136,125)"/>
<path d="M0 0 C3.88398 1.55003 6.0298 4.00477 8.75 7.125 C9.54922 8.03508 10.34844 8.94516 11.17188 9.88281 C11.47352 10.23215 11.47352 10.23215 13 12 C12.67 12.66 12.34 13.32 12 14 C11.34 13.34 10.68 12.68 10 12 C9.01 12.99 8.02 13.98 7 15 C6.34 13.68 5.68 12.36 5 11 C5.99 10.34 6.98 9.68 8 9 C7.4225 8.4341 6.845 7.8682 6.25 7.28516 C5.87875 6.91842 5.87875 6.91842 4 5.0625 C3.62875 4.69705 3.62875 4.69705 1.75 2.84766 C0 1 0 1 0 0 Z " fill="#EBE8E7" transform="translate(137,44)"/>
<path d="M0 0 C0.35643 0.16242 0.35643 0.16242 2.16016 0.98438 C8.53283 3.26346 15.82921 2.66845 22 0 C22 0.66 22 1.32 22 2 C19.03652 3.97566 18.3198 4.26377 14.98828 4.41406 C14.60962 4.4334 14.60962 4.4334 12.69336 4.53125 C11.90768 4.56219 11.12199 4.59312 10.3125 4.625 C9.51521 4.66367 8.71793 4.70234 7.89648 4.74219 C5.93137 4.83632 3.96571 4.91925 2 5 C2 4.01 2 3.02 2 2 C1.34 2 0.68 2 0 2 C0 1.34 0 0.68 0 0 Z " fill="#0E3640" transform="translate(82,131)"/>
<path d="M0 0 C0.66 0 1.32 0 2 0 C0.4755 5.80054 -0.65326 9.67635 -6 13 C-6 11.02 -6 9.04 -6 7 C-5.01 6.67 -4.02 6.34 -3 6 C-2.67 5.34 -2.34 4.68 -2 4 C-1.34 4 -0.68 4 0 4 C0 2.68 0 1.36 0 0 Z " fill="#EBF6F8" transform="translate(153,124)"/>
<path d="M0 0 C-0.33 0.66 -0.66 1.32 -1 2 C-3.31 1.67 -5.62 1.34 -8 1 C-8 3.64 -8 6.28 -8 9 C-9.64826 6.03313 -10.44271 3.34373 -11 0 C-6.53464 -1.86922 -4.33629 -2.29568 0 0 Z " fill="#F2F4F7" transform="translate(133,41)"/>
<path d="M0 0 C-0.55688 0.22688 -1.11375 0.45375 -1.6875 0.6875 C-4 2 -4 2 -6.5625 4.5625 C-9 7 -9 7 -12 8 C-11.8125 5.6875 -11.8125 5.6875 -11 3 C-7.38921 0.0082 -4.60389 -0.3212 0 0 Z " fill="#38A6B8" transform="translate(123,93)"/>
<path d="M0 0 C0.66 0 1.32 0 2 0 C1.43454 3.95821 0.19098 6.66591 -2 10 C-2.33 9.34 -2.66 8.68 -3 8 C-2.67 7.01 -2.34 6.02 -2 5 C-3.65 5.33 -5.3 5.66 -7 6 C-7 5.34 -7 4.68 -7 4 C-6.03062 3.52562 -5.06125 3.05125 -4.0625 2.5625 C-1 1 -1 1 0 0 Z " fill="#DEE9F1" transform="translate(138,145)"/>
<path d="M0 0 C4.29 0.33 8.58 0.66 13 1 C11.68 1.33 10.36 1.66 9 2 C9 2.66 9 3.32 9 4 C6.36 3.67 3.72 3.34 1 3 C0.67 3.66 0.34 4.32 0 5 C0 3.35 0 1.7 0 0 Z " fill="#41C6DC" transform="translate(75,111)"/>
<path d="M0 0 C2.97 0 5.94 0 9 0 C8.67 0.66 8.34 1.32 8 2 C6.10938 2.52734 6.10938 2.52734 3.75 2.9375 C-0.02974 3.69104 -2.81636 4.74064 -6 7 C-6 5.68 -6 4.36 -6 3 C-4.02 2.67 -2.04 2.34 0 2 C0 1.34 0 0.68 0 0 Z " fill="#12262E" transform="translate(116,91)"/>
<path d="M0 0 C1.59986 4.85437 0.01171 8.47556 -2 13 C-3.53212 15.4914 -5.18562 17.69525 -7 20 C-7 16.8875 -6.63137 16.00316 -5.1875 13.375 C-2.93515 9.06267 -1.41895 4.64384 0 0 Z " fill="#D2EBF5" transform="translate(154,135)"/>
<path d="M0 0 C0.33 0 0.66 0 1 0 C1.47093 13.23837 1.47093 13.23837 -3.125 18.375 C-3.74375 18.91125 -4.3625 19.4475 -5 20 C-5.66 19.67 -6.32 19.34 -7 19 C-6.21625 18.0925 -5.4325 17.185 -4.625 16.25 C-1.06645 11.36078 -0.6467 5.87823 0 0 Z " fill="#0D4150" transform="translate(111,111)"/>
<path d="M0 0 C0.66 0 1.32 0 2 0 C2 0.66 2 1.32 2 2 C3.65 2.33 5.3 2.66 7 3 C7 3.33 7 3.66 7 4 C2.32799 5.20568 -2.21496 5.09382 -7 5 C-7 4.34 -7 3.68 -7 3 C-4.69 3 -2.38 3 0 3 C0 2.01 0 1.02 0 0 Z " fill="#363438" transform="translate(110,137)"/>
<path d="M0 0 C1.32 0.66 1.32 0.66 8 4 C7.67 4.165 7.67 4.165 6 5 C5.67 5.99 5.34 6.98 5 8 C2.5 6.8125 2.5 6.8125 0 5 C-0.3125 2.3125 -0.3125 2.3125 0 0 Z " fill="#2A262D" transform="translate(127,59)"/>
<path d="M0 0 C0.66 0.33 1.32 0.66 2 1 C-0.46599 3.46599 -2.79033 4.65194 -6 6 C-8.375 5.6875 -8.375 5.6875 -10 5 C-10 3.68 -10 2.36 -10 1 C-9.0925 1.20625 -8.185 1.4125 -7.25 1.625 C-3.80118 2.02294 -2.89131 1.65218 0 0 Z " fill="#F0ECE9" transform="translate(57,36)"/>
<path d="M0 0 C-0.33 0.22688 -0.33 0.22688 -2 1.375 C-2.66 1.91125 -3.32 2.4475 -4 3 C-4 3.66 -4 4.32 -4 5 C-8.75 4.25 -8.75 4.25 -11 2 C-9.54495 1.47007 -8.08582 0.95132 -6.625 0.4375 C-5.81289 0.14746 -5.00078 -0.14258 -4.16406 -0.44141 C-2 -1 -2 -1 0 0 Z " fill="#DBD7D6" transform="translate(131,137)"/>
<path d="M0 0 C0.66 0.99 1.32 1.98 2 3 C0.3766 4.70884 -1.29319 6.37447 -3 8 C-3.66 8 -4.32 8 -5 8 C-4.6495 4.75791 -4.43779 3.38472 -1.9375 1.1875 C-1.61781 0.99156 -1.61781 0.99156 0 0 Z " fill="#41BACB" transform="translate(60,94)"/>
<path d="M0 0 C1 2 1 2 0.0625 5.125 C-0.28813 6.07375 -0.63875 7.0225 -1 8 C-1.66 8 -2.32 8 -3 8 C-3 6.68 -3 5.36 -3 4 C-3.99 4.33 -4.98 4.66 -6 5 C-5.67 4.01 -5.34 3.02 -5 2 C-2.4375 0.8125 -2.4375 0.8125 0 0 Z " fill="#F0EEEB" transform="translate(29,64)"/>
<path d="M0 0 C0 3 0 3 -1.67969 4.82422 C-2.40414 5.4391 -3.12859 6.05398 -3.875 6.6875 C-4.5943 7.31012 -5.31359 7.93273 -6.05469 8.57422 C-8 10 -8 10 -10 10 C-10 9.34 -10 8.68 -10 8 C-8.06641 6.30859 -8.06641 6.30859 -5.5625 4.4375 C-1.01266 1.01266 -1.01266 1.01266 0 0 Z " fill="#D7E7F2" transform="translate(145,155)"/>
<path d="M0 0 C0.99 0.99 1.98 1.98 3 3 C2.67 3.66 2.34 4.32 2 5 C1.34 3.35 0.68 1.7 0 0 Z " fill="#DFE5EE" transform="translate(30,142)"/>
<path d="M0 0 C1.32 0 2.64 0 4 0 C3.67 0.66 3.34 1.32 3 2 C2.01 2 1.02 2 0 2 C0 1.34 0 0.68 0 0 Z " fill="#D3E2F0" transform="translate(131,165)"/>
<path d="M0 0 C2 1 2 1 2 1 Z " fill="#DADEEE" transform="translate(129,167)"/>
<path d="" fill="#DCE4ED" transform="translate(0,0)"/>
<path d="" fill="#E0E6ED" transform="translate(0,0)"/>
<path d="" fill="#DEE1F0" transform="translate(0,0)"/>
<path d="" fill="#E1DEE9" transform="translate(0,0)"/>
<path d="" fill="#E1DAEC" transform="translate(0,0)"/>
<path d="" fill="#8FE5F6" transform="translate(0,0)"/>
<path d="" fill="#E2E2EC" transform="translate(0,0)"/>
<path d="" fill="#E4E7F0" transform="translate(0,0)"/>
<path d="" fill="#DDE1EA" transform="translate(0,0)"/>
<path d="" fill="#E0E5EB" transform="translate(0,0)"/>
<path d="" fill="#DFE8EF" transform="translate(0,0)"/>
</svg>
