<?xml version="1.0" encoding="UTF-8"?>
<!-- Generator: visioncortex VTracer 0.6.12 -->
<svg version="1.1" xmlns="http://www.w3.org/2000/svg" width="153" height="172">
<path d="M0 0 C2.64 0 5.28 0 8 0 C10.88326 11.14961 12.96685 22.3198 14.69238 33.70679 C14.77085 34.2231 14.77085 34.2231 15.16797 36.83594 C15.30485 37.75939 15.44173 38.68284 15.58276 39.63428 C16 42 16 42 17 45 C17.62906 44.08219 18.25812 43.16437 18.90625 42.21875 C30.57542 25.39284 44.83467 13.15116 65.38281 8.50781 C86.09582 5.59994 105.68746 9.0899 123.03516 21.10156 C129.31456 25.99034 134.43033 31.49037 139 38 C139.26009 38.35231 139.26009 38.35231 140.57628 40.13522 C142.41684 43.83876 142.44303 47.15039 142.43579 51.1958 C142.44587 52.00792 142.45594 52.82003 142.46632 53.65675 C142.49477 56.33641 142.50068 59.01551 142.50391 61.69531 C142.51355 63.56754 142.52365 65.43976 142.53416 67.31198 C142.55212 71.23766 142.55769 75.16315 142.55591 79.08887 C142.5556 84.09569 142.59647 89.10123 142.64822 94.10774 C142.68175 97.97708 142.68766 101.84611 142.68608 105.71557 C142.6896 107.55981 142.70275 109.40405 142.72608 111.24814 C142.84848 121.92743 142.61891 130.06891 136 139 C135.34 139.94875 134.68 140.8975 134 141.875 C131.50785 144.5229 128.84575 146.73634 126 149 C125.34 148.67 124.68 148.34 124 148 C124 147.67 124 147.34 124 147 C123.69063 147.2475 123.69063 147.2475 122.125 148.5 C120 150 120 150 118 150 C119.4495 146.20899 121.15173 142.61254 123 139 C122.78795 139.36223 122.78795 139.36223 121.71484 141.19531 C115.00824 152.25016 109.39516 156.84205 96.80859 160.01953 C78.00891 164.18821 57.24356 162.42772 40.73438 151.92188 C30.89931 144.79993 25.48389 137.75386 20 127 C20.82115 130.40297 21.87024 133.68604 23 137 C17.52433 132.23633 14.40156 124.999 13 118 C12.72349 111.18359 13.60364 104.43028 14.30859 97.66016 C15.13695 89.52792 15.19281 81.47603 15.125 73.3125 C15.1167 71.99943 15.1084 70.68636 15.09985 69.3335 C15.07473 66.22216 15.04075 63.11116 15 60 C15 59.67 15 59.34 15 59 C14.67 59.165 14.67 59.165 13 60 C13.00524 60.71317 13.01047 61.42635 13.01587 62.16113 C13.16856 86.24328 13.16856 86.24328 12.625 98.25 C12.59414 99.03923 12.56329 99.82846 12.53149 100.6416 C12.28415 105.37863 11.46866 109.48657 10 114 C7.03 112.02 4.06 110.04 1 108 C1.66 106.35 2.32 104.7 3 103 C3.19582 100.97629 3.19582 100.97629 3.11938 98.9917 C3.09599 98.24097 3.07259 97.49024 3.04848 96.71677 C3.01314 95.92078 2.97781 95.12479 2.94141 94.30469 C2.91401 93.47543 2.88661 92.64617 2.85838 91.79178 C2.76991 89.15238 2.66718 86.5138 2.5625 83.875 C2.46325 81.22905 2.36713 78.58308 2.27733 75.9368 C2.22099 74.29276 2.1589 72.64892 2.09047 71.00534 C1.9726 67.70078 1.94498 65.16505 3 62 C2.81189 60.05821 2.53943 58.12421 2.22266 56.19922 C0.10336 42.48364 -1.40288 29.14375 -1.3125 15.25 C-1.30533 13.95409 -1.29816 12.65818 -1.29077 11.323 C-1.16023 2.32046 -1.16023 2.32046 0 0 Z " fill="#F8F4F1" transform="translate(11,0)"/>
<path d="M0 0 C15.58405 -0.47063 32.21466 2.3224 44.64844 12.42969 C53.49249 21.15503 56.48725 32.57906 56.58008 44.6875 C56.58072 45.45965 56.58137 46.2318 56.58203 47.02734 C56.59428 47.79176 56.60652 48.55617 56.61914 49.34375 C56.64578 59.80521 53.58344 70.71004 46.33203 78.52344 C31.59942 90.90953 8.72168 91.13567 -9.60547 90.15234 C-23.69799 88.80862 -36.89659 84.89189 -46.60547 74.15234 C-52.55042 66.54755 -52.9519 56.99126 -52.91797 47.71484 C-52.93408 46.83764 -52.9502 45.96043 -52.9668 45.05664 C-52.97585 32.76554 -48.52338 23.35425 -40.60547 14.15234 C-28.93016 4.33616 -14.98226 0.63305 0 0 Z " fill="#201F25" transform="translate(88.60546875,39.84765625)"/>
<path d="M0 0 C4.87723 1.95089 9.53171 4.06343 12 9 C12.07033 10.66531 12.0843 12.33335 12.0625 14 C12.05348 14.88688 12.04445 15.77375 12.03516 16.6875 C12.02355 17.45063 12.01195 18.21375 12 19 C12 22.57615 15.1669 25.04809 17.37109 27.71094 C18.93144 29.90366 19.57454 31.37535 20 34 C20.66 34 21.32 34 22 34 C22.0825 33.23687 22.165 32.47375 22.25 31.6875 C23.15269 28.45285 24.13593 27.64901 27 26 C27.66 26 28.32 26 29 26 C25.58597 19.3051 22.1373 13.50425 17 8 C17.33 7.34 17.66 6.68 18 6 C19.65 7.98 21.3 9.96 23 12 C23.78375 11.81437 24.5675 11.62875 25.375 11.4375 C28 11 28 11 30 12 C30.13948 22.89248 30.24587 33.78474 30.31087 44.67794 C30.34209 49.73703 30.38437 54.79551 30.45264 59.85425 C30.51819 64.74319 30.55378 69.63154 30.56926 74.52088 C30.58029 76.37912 30.60181 78.23733 30.63438 80.09532 C30.81494 90.82896 30.6855 99.02933 24 108 C23.34 108.94875 22.68 109.8975 22 110.875 C19.50785 113.5229 16.84575 115.73634 14 118 C13.34 117.67 12.68 117.34 12 117 C12 116.67 12 116.34 12 116 C11.38125 116.495 10.7625 116.99 10.125 117.5 C8 119 8 119 6 119 C7.4495 115.20899 9.15173 111.61254 11 108 C10.78795 108.36223 10.78795 108.36223 9.71484 110.19531 C3.00824 121.25016 -2.60484 125.84205 -15.19141 129.01953 C-33.99109 133.18821 -54.75644 131.42772 -71.26562 120.92188 C-81.10069 113.79993 -86.51611 106.75386 -92 96 C-91.17885 99.40297 -90.12976 102.68604 -89 106 C-92.28531 102.95465 -93.95193 99.4196 -95.75 95.375 C-95.90892 95.01761 -95.90892 95.01761 -96.71313 93.20898 C-99.0199 87.68827 -99.57618 83.8844 -98 78 C-97.505 77.835 -97.505 77.835 -95 77 C-94.50371 77.91781 -94.00742 78.83562 -93.49609 79.78125 C-89.92291 86.27313 -86.46224 92.19502 -81.25 97.54688 C-80 99 -80 99 -80 101 C-78.02 101.33 -76.04 101.66 -74 102 C-74 102.66 -74 103.32 -74 104 C-73.14664 104.27844 -72.29328 104.55687 -71.41406 104.84375 C-69.18744 105.59785 -66.97263 106.38806 -64.77344 107.21875 C-42.37587 115.66289 -18.14375 115.40197 4 106 C6.41347 104.75936 8.68558 103.42021 11 102 C11.66 102 12.32 102 13 102 C13.99 98.04 14.98 94.08 16 90 C16.66 90 17.32 90 18 90 C18 89.34 18 88.68 18 88 C18.66 88 19.32 88 20 88 C20 87.01 20 86.02 20 85 C19.34 84.835 19.34 84.835 16 84 C16 80.04916 17.47457 77.2577 19.02734 73.66797 C23.58497 61.16653 21.96459 44.74017 17.05078 32.66797 C12.84895 23.71624 6.82714 19.22298 -2 15 C-22.64198 7.71845 -44.92665 7.82494 -65 17 C-75.04518 22.76528 -81.05634 30.20681 -85 41 C-86.03027 45.23305 -86.30944 49.47722 -86.5625 53.8125 C-86.60568 54.50537 -86.64887 55.19824 -86.69336 55.91211 C-86.79861 57.60789 -86.89973 59.30392 -87 61 C-87.33 61 -87.66 61 -88 61 C-88.92735 36.49654 -88.92735 36.49654 -79.75 25.75 C-68.87159 14.44706 -55.73713 8.14943 -39.92969 7.66406 C-37.9268 7.64632 -35.92386 7.62892 -33.9209 7.62939 C-31.89951 7.62505 -29.88037 7.58874 -27.85938 7.55078 C-18.15761 7.5223 -8.8116 8.5942 0 13 C0 8.71 0 4.42 0 0 Z " fill="#EBE7EB" transform="translate(123,31)"/>
<path d="M0 0 C6.94162 -0.77129 11.95721 1.74753 18 5 C18.73863 5.38801 19.47727 5.77602 20.23828 6.17578 C25.72036 9.61406 28.10211 14.43051 30.56738 20.23804 C32.56953 24.82064 32.56953 24.82064 35.20312 25.91797 C35.79609 25.94504 36.38906 25.97211 37 26 C37.99874 31.0017 38.18326 35.79821 38.1875 40.875 C38.19975 41.63941 38.21199 42.40383 38.22461 43.19141 C38.25125 53.65287 35.18891 64.5577 27.9375 72.37109 C15.39633 82.91478 -2.77792 84.21104 -18.5 84.0625 C-19.41781 84.05799 -20.33562 84.05348 -21.28125 84.04883 C-23.5209 84.03716 -25.76042 84.0208 -28 84 C-28.33 83.34 -28.66 82.68 -29 82 C-24.05 81.67 -19.1 81.34 -14 81 C-14 79.35 -14 77.7 -14 76 C-14.99 76 -15.98 76 -17 76 C-17 77.32 -17 78.64 -17 80 C-21.75 79.25 -21.75 79.25 -24 77 C-23.34 76.01 -22.68 75.02 -22 74 C-22 72.68 -22 71.36 -22 70 C-22.66 70 -23.32 70 -24 70 C-24.165 69.01 -24.165 69.01 -25 64 C-25.66 64 -26.32 64 -27 64 C-27 64.66 -27 65.32 -27 66 C-27.99 66 -28.98 66 -30 66 C-29.6875 64.125 -29.6875 64.125 -29 62 C-26 60 -26 60 -23 60 C-22.67 58.68 -22.34 57.36 -22 56 C-10.29385 57.7426 -10.29385 57.7426 -6 61 C-6.0825 59.90687 -6.165 58.81375 -6.25 57.6875 C-6 54 -6 54 -4.125 52.0625 C-2 51 -2 51 0 51 C-0.33 50.01 -0.66 49.02 -1 48 C-1.34711 41.52066 -1.34711 41.52066 1 38 C1.66 38 2.32 38 3 38 C3 37.01 3 36.02 3 35 C3.99 35 4.98 35 6 35 C6 34.34 6 33.68 6 33 C8.64 32.67 11.28 32.34 14 32 C13.34 31.34 12.68 30.68 12 30 C12 28.68 12 27.36 12 26 C10.02 25.67 8.04 25.34 6 25 C6 23.68 6 22.36 6 21 C8.97 21.33 11.94 21.66 15 22 C15.33 21.34 15.66 20.68 16 20 C16.99 20 17.98 20 19 20 C17.54436 16.15645 15.80404 15.06714 12.125 13.375 C11.26133 12.97023 10.39766 12.56547 9.50781 12.14844 C7.95364 11.43672 6.38232 10.75991 4.78906 10.14062 C2.34071 8.57967 2.0365 7.12775 1.25 4.375 C1.00766 3.55773 0.76531 2.74047 0.51562 1.89844 C0.34547 1.27195 0.17531 0.64547 0 0 Z " fill="#222228" transform="translate(107,46)"/>
<path d="M0 0 C0 0.66 0 1.32 0 2 C2.64 2 5.28 2 8 2 C8 1.34 8 0.68 8 0 C10.97 0 13.94 0 17 0 C17.29297 6.05469 17.29297 6.05469 17 8 C16.01 8.66 15.02 9.32 14 10 C14.66 10.45375 15.32 10.9075 16 11.375 C16.66 11.91125 17.32 12.4475 18 13 C18 13.66 18 14.32 18 15 C18.99 15.33 19.98 15.66 21 16 C21.98438 18.58203 21.98438 18.58203 22.75 21.8125 C22.88148 22.34166 22.88148 22.34166 23.54688 25.01953 C23.97814 27.8562 24.04515 29.36951 23 32 C20.66023 34.72973 18.86339 35.87168 15.29297 36.40234 C13.3397 36.54826 11.38328 36.65769 9.42578 36.72656 C7 37 7 37 5 39 C4.01 39 3.02 39 2 39 C2.33 42.63 2.66 46.26 3 50 C0.69 50.66 -1.62 51.32 -4 52 C-13.18594 42.53723 -15.17849 33.60074 -15.1875 20.6875 C-15.19975 19.77549 -15.21199 18.86348 -15.22461 17.92383 C-15.23678 12.26277 -14.61068 7.43046 -13 2 C-12.60813 2.165 -12.60813 2.165 -10.625 3 C-8 4 -8 4 -6 4 C-5.67 3.01 -5.34 2.02 -5 1 C-2 0 -2 0 0 0 Z " fill="#202126" transform="translate(51,67)"/>
<path d="M0 0 C0.99 0 1.98 0 3 0 C4.64814 6.09528 5.67497 12.11929 6.5 18.375 C7.31752 24.51985 8.28404 30.57663 9.54053 36.64746 C10.20796 40.06477 10.63805 43.4813 11.0625 46.9375 C11.89194 53.67581 11.89194 53.67581 13 57 C14.55035 69.78561 14.1688 82.66425 13.625 95.5 C13.59422 96.33668 13.56345 97.17336 13.53174 98.0354 C13.29186 102.99573 12.56013 107.28155 11 112 C8.03 110.02 5.06 108.04 2 106 C2.66 104.35 3.32 102.7 4 101 C4.19582 98.97629 4.19582 98.97629 4.11938 96.9917 C4.09599 96.24097 4.07259 95.49024 4.04848 94.71677 C4.01314 93.92078 3.97781 93.12479 3.94141 92.30469 C3.91401 91.47543 3.88661 90.64617 3.85838 89.79178 C3.76991 87.15238 3.66718 84.5138 3.5625 81.875 C3.46325 79.22905 3.36713 76.58308 3.27733 73.9368 C3.22099 72.29276 3.1589 70.64892 3.09047 69.00534 C2.9726 65.70078 2.94498 63.16505 4 60 C3.81189 58.05821 3.53943 56.12421 3.22266 54.19922 C3.03864 53.00764 2.85463 51.81606 2.66504 50.58838 C2.4662 49.30109 2.26736 48.0138 2.0625 46.6875 C-0.25851 31.06036 -0.43974 15.78003 0 0 Z " fill="#F0F7F7" transform="translate(10,2)"/>
<path d="M0 0 C4.87723 1.95089 9.53171 4.06343 12 9 C12.07033 10.66531 12.0843 12.33335 12.0625 14 C12.05348 14.88688 12.04445 15.77375 12.03516 16.6875 C12.02355 17.45063 12.01195 18.21375 12 19 C12 21.89507 13.46699 22.93178 15.3125 25.125 C20.92611 32.2386 22.56338 37.98593 22 47 C21.67 47 21.34 47 21 47 C20.82984 46.22656 20.65969 45.45312 20.48438 44.65625 C18.27925 35.17889 15.6194 26.1841 7.47656 20.12109 C-10.27965 9.63763 -31.01089 7.3666 -51 12 C-63.29503 15.35937 -74.13704 20.58302 -80.85547 31.83203 C-84.69416 39.10326 -86.08401 45.61548 -86.5625 53.8125 C-86.60568 54.50537 -86.64887 55.19824 -86.69336 55.91211 C-86.79861 57.60789 -86.89973 59.30392 -87 61 C-87.33 61 -87.66 61 -88 61 C-88.92735 36.49654 -88.92735 36.49654 -79.75 25.75 C-68.87159 14.44706 -55.73713 8.14943 -39.92969 7.66406 C-37.9268 7.64632 -35.92386 7.62892 -33.9209 7.62939 C-31.89951 7.62505 -29.88037 7.58874 -27.85938 7.55078 C-18.15761 7.5223 -8.8116 8.5942 0 13 C0 8.71 0 4.42 0 0 Z " fill="#A5EBF7" transform="translate(123,31)"/>
<path d="M0 0 C0.99 0 1.98 0 3 0 C4.64814 6.09528 5.67497 12.11929 6.5 18.375 C7.31776 24.52171 8.28087 30.58315 9.53613 36.65625 C10.20387 40.03008 10.67507 43.40234 11.125 46.8125 C11.20879 47.43447 11.20879 47.43447 11.63281 50.58203 C11.93878 53.43012 12.07624 56.14112 12 59 C10.03534 60.06775 8.03145 61.06553 6 62 C5.34 61.67 4.68 61.34 4 61 C2.92518 56.50865 2.45825 51.89124 1.875 47.3125 C1.78529 46.62937 1.69558 45.94623 1.60315 45.2424 C-0.34522 30.13811 -0.42683 15.21006 0 0 Z " fill="#EFEAEB" transform="translate(10,2)"/>
<path d="M0 0 C8.35577 -0.92842 15.47605 3.11975 22.3125 7.625 C27.47346 11.75377 31.39501 17.90025 32.36719 24.48828 C32.375 26.6875 32.375 26.6875 32 30 C30.68 30 29.36 30 28 30 C27.74348 29.43152 27.48695 28.86305 27.22266 28.27734 C22.92124 19.60209 17.07306 15.1048 8.125 11.625 C3.38822 9.65741 3.38822 9.65741 1.63672 6.69141 C0.90038 4.45447 0.34975 2.32659 0 0 Z " fill="#38363F" transform="translate(107,46)"/>
<path d="M0 0 C3 1.5 3 1.5 5 4 C5.72251 9.59942 5.14288 13.17344 2 18 C-0.36818 20.44984 -1.60821 20.94286 -5 21.4375 C-8.68006 20.90082 -9.75761 19.90681 -12 17 C-12.96847 14.09458 -13.19583 12.03363 -13.25 9 C-13.27578 8.13375 -13.30156 7.2675 -13.32812 6.375 C-12.93545 3.53275 -12.23186 2.73348 -10 1 C-6.78304 -0.60848 -3.48858 -0.46025 0 0 Z " fill="#2FDBF7" transform="translate(122,81)"/>
<path d="M0 0 C3.5387 1.65139 4.8107 2.71605 7 6 C7.69708 12.04137 6.3062 15.13795 3 20 C-0.1286 21.5643 -2.55603 21.35627 -6 21 C-9.99109 17.00891 -11.17291 14.09463 -11.3125 8.5625 C-11.34988 7.59441 -11.38727 6.62633 -11.42578 5.62891 C-11 3 -11 3 -9.19531 1.17578 C-5.97679 -0.54802 -3.59593 -0.37852 0 0 Z " fill="#27DBF8" transform="translate(65,81)"/>
<path d="M0 0 C1.9375 0.375 1.9375 0.375 4 1 C4.33 1.66 4.66 2.32 5 3 C6.65 3 8.3 3 10 3 C11.23151 28.05012 11.23151 28.05012 4 37 C3.34 37.94875 2.68 38.8975 2 39.875 C-0.49215 42.5229 -3.15425 44.73634 -6 47 C-6.66 46.67 -7.32 46.34 -8 46 C-7.48051 45.46633 -6.96102 44.93266 -6.42578 44.38281 C2.2124 35.15385 5.62113 26.3392 8 14 C7.34 14 6.68 14 6 14 C5.75508 14.72574 5.51016 15.45148 5.25781 16.19922 C3.85949 19.31288 2.18704 21.31401 -0.125 23.8125 C-0.48723 24.2076 -0.48723 24.2076 -2.32031 26.20703 C-2.87461 26.79871 -3.42891 27.39039 -4 28 C-5.15941 24.52177 -4.70821 22.54104 -4 19 C-3.34 19 -2.68 19 -2 19 C-2 18.34 -2 17.68 -2 17 C-1.34 17 -0.68 17 0 17 C0 16.01 0 15.02 0 14 C-1.32 13.67 -2.64 13.34 -4 13 C-4 9.70342 -3.25667 7.83636 -2 4.8125 C-1.62875 3.91145 -1.2575 3.01039 -0.875 2.08203 C-0.73063 1.7385 -0.73063 1.7385 0 0 Z " fill="#F1EEED" transform="translate(143,102)"/>
<path d="M0 0 C0.66 0 1.32 0 2 0 C1.51459 11.4072 -1.92112 20.73559 -10 29 C-13.11731 31.31718 -16.30824 32.76941 -20 34 C-19.02556 31.3765 -18.05691 29.08536 -16.5 26.75 C-15.05375 24.09854 -14.66673 22.42381 -14.1875 19.5 C-13.37777 15.45798 -12.19089 13.86399 -8.72266 11.46094 C-5.6512 8.85612 -3.69093 5.36776 -1.51562 2.01172 C-1.01547 1.34785 -0.51531 0.68398 0 0 Z " fill="#8CE5FB" transform="translate(149,116)"/>
<path d="M0 0 C2.02139 -0.00434 4.04053 -0.04066 6.06152 -0.07861 C15.76328 -0.10709 25.1093 0.96481 33.9209 5.37061 C33.9209 6.03061 33.9209 6.69061 33.9209 7.37061 C32.83551 7.09346 31.75012 6.81631 30.63184 6.53076 C29.18656 6.16475 27.74124 5.79887 26.2959 5.43311 C25.58305 5.2507 24.8702 5.0683 24.13574 4.88037 C4.91374 0.03078 -16.71189 1.12476 -34.19629 11.15967 C-42.96653 17.12533 -49.08399 25.17329 -51.61816 35.58545 C-52.20083 39.10614 -52.43391 42.62517 -52.6416 46.18311 C-52.68479 46.87598 -52.72797 47.56885 -52.77246 48.28271 C-52.87772 49.97849 -52.97883 51.67453 -53.0791 53.37061 C-53.4091 53.37061 -53.7391 53.37061 -54.0791 53.37061 C-55.00645 28.86714 -55.00645 28.86714 -45.8291 18.12061 C-33.01432 4.80573 -18.25541 -0.00437 0 0 Z " fill="#C1BFC2" transform="translate(89.0791015625,38.62939453125)"/>
<path d="M0 0 C6.875 0.875 6.875 0.875 8 2 C8.1272 4.37241 8.17588 6.74921 8.1875 9.125 C8.20168 10.42695 8.21586 11.72891 8.23047 13.07031 C7.99335 17.11341 7.25493 20.18065 6 24 C3.03 22.02 0.06 20.04 -3 18 C-2.34 16.35 -1.68 14.7 -1 13 C-0.71879 10.73704 -0.51295 8.46369 -0.375 6.1875 C-0.30023 5.02605 -0.22547 3.86461 -0.14844 2.66797 C-0.09945 1.78754 -0.05047 0.90711 0 0 Z " fill="#E7E9EF" transform="translate(15,90)"/>
<path d="M0 0 C0.29297 6.05469 0.29297 6.05469 0 8 C-0.99 8.66 -1.98 9.32 -3 10 C-2.34 10.45375 -1.68 10.9075 -1 11.375 C-0.34 11.91125 0.32 12.4475 1 13 C1 13.66 1 14.32 1 15 C1.99 15.33 2.98 15.66 4 16 C3.67 17.32 3.34 18.64 3 20 C2.78344 19.68031 2.78344 19.68031 1.6875 18.0625 C0 16 0 16 -3 15 C-6.68383 14.86843 -9.49054 14.83018 -13 16 C-13 15.34 -13 14.68 -13 14 C-12.34 14 -11.68 14 -11 14 C-10.67 12.68 -10.34 11.36 -10 10 C-10.66 10 -11.32 10 -12 10 C-12 9.34 -12 8.68 -12 8 C-12.99 8 -13.98 8 -15 8 C-15.5625 6.0625 -15.5625 6.0625 -16 4 C-14.36864 2.36864 -12.2909 2.40923 -10.0625 2 C-6.56406 1.35568 -3.49946 0 0 0 Z " fill="#18252C" transform="translate(68,67)"/>
<path d="M0 0 C9.41813 4.46218 16.03459 8.54921 21 18 C21.96441 21.02578 22.4999 23.84935 23 27 C21.68 27.99 20.36 28.98 19 30 C18.79375 28.72125 18.5875 27.4425 18.375 26.125 C16.77248 19.02014 13.36895 12.40326 7.4375 8 C4.64151 6.37324 2.06125 5.02042 -1 4 C-0.67 2.68 -0.34 1.36 0 0 Z " fill="#25242B" transform="translate(120,45)"/>
<path d="M0 0 C3.0625 0.3125 3.0625 0.3125 4.9375 1.4375 C6.59828 4.20546 6.45055 6.14341 6.0625 9.3125 C4.5625 11.6875 4.5625 11.6875 3.0625 13.3125 C0.71938 13.05689 -1.61593 12.71979 -3.9375 12.3125 C-5.05195 10.08359 -5.1023 8.78195 -5.125 6.3125 C-5.13918 5.61125 -5.15336 4.91 -5.16797 4.1875 C-4.74628 0.75682 -3.22792 0.3434 0 0 Z " fill="#33C7E3" transform="translate(89.9375,102.6875)"/>
<path d="M0 0 C0.33 0 0.66 0 1 0 C1.33 11.55 1.66 23.1 2 35 C1.01 35 0.02 35 -1 35 C-2.78536 28.86148 -3.33653 23.31626 -3.3125 16.9375 C-3.32861 16.07834 -3.34473 15.21918 -3.36133 14.33398 C-3.36557 8.78525 -2.54128 4.94176 0 0 Z " fill="#D8F4F8" transform="translate(11,69)"/>
<path d="M0 0 C0.99 0.66 1.98 1.32 3 2 C2.67 2.33 2.34 2.66 2 3 C1.92794 4.68609 1.91614 6.37501 1.9375 8.0625 C1.94201 8.52205 1.94201 8.52205 1.96484 10.84766 C1.97645 11.55793 1.98805 12.2682 2 13 C5.375 13.1875 5.375 13.1875 9 13 C11.30442 9.54338 11.2586 8.05142 11 4 C10.67 3.34 10.34 2.68 10 2 C11.65 2.66 13.3 3.32 15 4 C15.51028 6.80652 15.33365 8.48735 13.76953 10.89062 C12.24682 12.74044 10.83214 14.45315 9 16 C8.01 16 7.02 16 6 16 C5.67 16.99 5.34 17.98 5 19 C2.9375 19.6875 2.9375 19.6875 1 20 C1 18.02 1 16.04 1 14 C0.34 14 -0.32 14 -1 14 C-1.33 12.02 -1.66 10.04 -2 8 C-2.66 8 -3.32 8 -4 8 C-4 8.66 -4 9.32 -4 10 C-4.99 10 -5.98 10 -7 10 C-6.6875 8.125 -6.6875 8.125 -6 6 C-3 4 -3 4 0 4 C0 2.68 0 1.36 0 0 Z " fill="#17282E" transform="translate(84,102)"/>
<path d="M0 0 C3.5387 1.65139 4.8107 2.71605 7 6 C7.25 9.5625 7.25 9.5625 7 13 C6.34 13.66 5.68 14.32 5 15 C5 11.7 5 8.4 5 5 C-3.23628 5.48449 -3.23628 5.48449 -6.5 7.6875 C-8.30181 10.4653 -8.70242 12.72665 -9 16 C-11.59401 13.40599 -11.32712 12.16815 -11.375 8.5625 C-11.40336 7.59441 -11.43172 6.62633 -11.46094 5.62891 C-11 3 -11 3 -9.19141 1.17578 C-5.97536 -0.54976 -3.59422 -0.37834 0 0 Z " fill="#36CDE5" transform="translate(65,81)"/>
<path d="M0 0 C2.31 0.33 4.62 0.66 7 1 C7 1.66 7 2.32 7 3 C9.97 2.34 12.94 1.68 16 1 C13.94483 3.05517 12.71046 3.62927 10.0625 4.6875 C0.09246 9.04039 -7.66428 15.01221 -15 23 C-15 20 -15 20 -13.46875 18.35156 C-12.81906 17.7818 -12.16938 17.21203 -11.5 16.625 C-8.05343 13.35873 -8.05343 13.35873 -7.5625 10.0625 C-7.70687 9.38188 -7.85125 8.70125 -8 8 C-7.01 8 -6.02 8 -5 8 C-3.09277 6.09277 -1.52627 4.22002 0 2 C0 1.34 0 0.68 0 0 Z " fill="#F1ECE9" transform="translate(53,18)"/>
<path d="M0 0 C0.33 0 0.66 0 1 0 C2.14807 20.51642 2.14807 20.51642 -5 30 C-5.66 30.94875 -6.32 31.8975 -7 32.875 C-9.49215 35.5229 -12.15425 37.73634 -15 40 C-15.66 39.67 -16.32 39.34 -17 39 C-16.48051 38.46633 -15.96102 37.93266 -15.42578 37.38281 C-8.05786 29.51099 -1.77023 20.0712 -2 8.875 C-2 5.2364 -1.60219 3.20438 0 0 Z " fill="#D9E5F0" transform="translate(152,109)"/>
<path d="M0 0 C-0.30466 3.35122 -0.67269 5.53421 -2.625 8.3125 C-5.69979 10.49722 -8.28479 10.71421 -12 11 C-12.3125 8.3125 -12.3125 8.3125 -12 5 C-9.82464 2.2808 -8.11436 0.45885 -4.875 -0.875 C-3 -1 -3 -1 0 0 Z " fill="#28DDFB" transform="translate(68,86)"/>
<path d="M0 0 C0.66 0.33 1.32 0.66 2 1 C1.9652 1.66387 1.93039 2.32773 1.89453 3.01172 C1.62466 11.81458 1.62466 11.81458 5 16 C6 17 6 17 8.75 17.25 C12.33357 16.97434 14.09858 16.04806 17 14 C17.66 14.66 18.32 15.32 19 16 C18.67 16.66 18.34 17.32 18 18 C16.03906 18.5625 16.03906 18.5625 13.625 19 C10.32474 19.602 8.88591 20.07606 6 22 C6 21.01 6 20.02 6 19 C4.02 19.66 2.04 20.32 0 21 C0 17.37 0 13.74 0 10 C-0.66 10 -1.32 10 -2 10 C-2.25 3.375 -2.25 3.375 0 0 Z " fill="#14333B" transform="translate(108,84)"/>
<path d="M0 0 C0.66 0 1.32 0 2 0 C1.69381 7.19536 0.42914 13.59463 -3 20 C-3.66 20.33 -4.32 20.66 -5 21 C-4.835 19.515 -4.835 19.515 -4 12 C-4.66 12 -5.32 12 -6 12 C-6.33 12.495 -6.33 12.495 -8 15 C-8.99 15 -9.98 15 -11 15 C-11.33 16.32 -11.66 17.64 -12 19 C-12.66 19 -13.32 19 -14 19 C-13.06311 15.93382 -12.38508 14.29706 -9.8125 12.3125 C-6.22853 9.36568 -4.07078 5.91348 -1.55078 2.04688 C-1.2949 1.70914 -1.2949 1.70914 0 0 Z " fill="#A1E4F4" transform="translate(149,116)"/>
<path d="M0 0 C3.05094 0.10003 4.35909 0.4608 7.1875 1.875 C9.4945 4.75875 9.79273 6.68032 9.54688 10.34766 C8.82742 14.40633 7.21678 17.31023 4.375 20.25 C1.4527 21.7529 -0.57448 21.79735 -3.8125 21.375 C-4.4725 20.385 -5.1325 19.395 -5.8125 18.375 C-3.88078 16.44328 -0.41254 16.72755 2.1875 16.375 C3.52667 16.06596 4.86403 15.74557 6.1875 15.375 C6.1875 14.055 6.1875 12.735 6.1875 11.375 C6.8475 11.375 7.5075 11.375 8.1875 11.375 C8.1875 9.395 8.1875 7.415 8.1875 5.375 C7.5275 5.375 6.8675 5.375 6.1875 5.375 C5.8575 4.715 5.5275 4.055 5.1875 3.375 C2.68359 2.96094 2.68359 2.96094 -0.375 2.75 C-0.88096 2.71262 -0.88096 2.71262 -3.44141 2.52344 C-3.83264 2.49895 -3.83264 2.49895 -5.8125 2.375 C-3.8125 0.375 -3.8125 0.375 0 0 Z " fill="#3FCDE1" transform="translate(117.8125,80.625)"/>
<path d="M0 0 C5 2 5 2 6.3125 4.625 C6.53938 5.40875 6.76625 6.1925 7 7 C7.66 7 8.32 7 9 7 C8.625 9.4375 8.625 9.4375 8 12 C6 13 6 13 0 13 C0 8.71 0 4.42 0 0 Z " fill="#A1EBF9" transform="translate(123,31)"/>
<path d="M0 0 C7.8626 0.3479 14.63528 2.30969 22 5 C22.99 5.33 23.98 5.66 25 6 C25 5.01 25 4.02 25 3 C25.66 3 26.32 3 27 3 C27 3.66 27 4.32 27 5 C27.61875 5.10312 28.2375 5.20625 28.875 5.3125 C31 6 31 6 33 9 C33 9.99 33 10.98 33 12 C33.165 12.33 33.165 12.33 34 14 C33.40187 13.67 32.80375 13.34 32.1875 13 C30 12 30 12 27 12 C24.8125 11 24.8125 11 23 10 C23 9.34 23 8.68 23 8 C15.51098 4.66967 8.01604 2.65849 0 1 C0 0.67 0 0.34 0 0 Z " fill="#EFECEA" transform="translate(98,16)"/>
<path d="M0 0 C1.69142 0.08963 3.3796 0.24578 5.0625 0.4375 C5.52205 0.48842 5.52205 0.48842 7.84766 0.74609 C8.55793 0.82988 9.2682 0.91367 10 1 C10.28875 1.94875 10.5775 2.8975 10.875 3.875 C12 7 12 7 14 9 C14.19531 11.82031 14.19531 11.82031 14.125 15.125 C14.10695 16.2207 14.08891 17.31641 14.07031 18.44531 C14.04711 19.28836 14.02391 20.13141 14 21 C13.67 21 13.34 21 13 21 C12.98711 20.66807 12.98711 20.66807 12.92188 18.98828 C12.56886 13.4925 12.29736 9.84501 8 6 C5.71466 4.51404 3.42612 3.25972 1 2 C1 6.29 1 10.58 1 15 C0.01 14.67 -0.98 14.34 -2 14 C-1.85971 11.8538 -1.71262 9.70804 -1.5625 7.5625 C-1.48129 6.36754 -1.40008 5.17258 -1.31641 3.94141 C-1 1 -1 1 0 0 Z " fill="#E8F7FA" transform="translate(122,29)"/>
<path d="M0 0 C0.12375 0.63938 0.2475 1.27875 0.375 1.9375 C0.47813 2.27781 0.47813 2.27781 1 4 C1.66 4.33 2.32 4.66 3 5 C3 3.68 3 2.36 3 1 C3.99 1 4.98 1 6 1 C4.60412 5.04224 2.69436 7.94148 0 11.25 C-0.35063 11.6857 -0.35063 11.6857 -2.125 13.89062 C-4 16 -4 16 -6 17 C-5.67 14.03 -5.34 11.06 -5 8 C-4.34 8 -3.68 8 -3 8 C-3 7.34 -3 6.68 -3 6 C-2.34 6 -1.68 6 -1 6 C-1 5.01 -1 4.02 -1 3 C-1.99 3 -2.98 3 -4 3 C-4 2.34 -4 1.68 -4 1 C-2.68 0.67 -1.36 0.34 0 0 Z " fill="#EFF4F4" transform="translate(144,113)"/>
<path d="M0 0 C2.3957 3.59355 3 5.68234 3 10 C0.25011 13.51375 -1.39394 14.71578 -5.78125 15.49219 C-7.72051 15.6606 -9.66424 15.78497 -11.60938 15.85938 C-14 16 -14 16 -16 17 C-16.33 14.36 -16.66 11.72 -17 9 C-16.74219 9.33 -16.74219 9.33 -15.4375 11 C-13 13 -13 13 -9.4375 13.4375 C-6 13 -6 13 -4.1875 11.75 C-1.57066 7.89361 -0.6334 4.6449 0 0 Z " fill="#102B33" transform="translate(72,88)"/>
<path d="M0 0 C2.4393 1.92576 4.80091 3.80091 7 6 C8.34262 5.7063 9.67696 5.3721 11 5 C11.66 5.33 12.32 5.66 13 6 C13.37212 12.57404 13.37212 12.57404 11.48828 14.73047 C10.99715 15.14941 10.50602 15.56836 10 16 C9.52949 15.24074 9.05898 14.48148 8.57422 13.69922 C7.9516 12.70535 7.32898 11.71148 6.6875 10.6875 C6.07262 9.70137 5.45773 8.71523 4.82422 7.69922 C3 5 3 5 1.26953 3.26953 C0.85059 2.85059 0.43164 2.43164 0 2 C0 1.34 0 0.68 0 0 Z " fill="#F1EEEC" transform="translate(140,37)"/>
<path d="M0 0 C2.69536 1.99223 3.00866 3.04763 3.625 6.4375 C3.74875 7.61312 3.8725 8.78875 4 10 C4.30904 11.33917 4.62943 12.67653 5 14 C1.00095 14 -0.802 12.27413 -4 10 C-3.34 9.01 -2.68 8.02 -2 7 C-1.29187 4.67891 -0.61976 2.34623 0 0 Z " fill="#E4E2EA" transform="translate(17,99)"/>
<path d="M0 0 C0.825 0.33 0.825 0.33 5 2 C5 2.99 5 3.98 5 5 C4.34 5 3.68 5 3 5 C3 5.66 3 6.32 3 7 C2.34 7 1.68 7 1 7 C1 8.98 1 10.96 1 13 C-3.75 12.25 -3.75 12.25 -6 10 C-4.68 9.34 -3.36 8.68 -2 8 C-2.02062 7.52563 -2.02062 7.52563 -2.125 5.125 C-2 2 -2 2 0 0 Z " fill="#F8F2F0" transform="translate(138,114)"/>
<path d="M0 0 C0.99 0.165 0.99 0.165 6 1 C7.125 4.75 7.125 4.75 6 7 C5.34 6.34 4.68 5.68 4 5 C2.4944 6.96382 1.10868 8.78263 0 11 C-2.2938 7.5593 -3 6.2771 -3 2 C-2.01 2 -1.02 2 0 2 C0 1.34 0 0.68 0 0 Z " fill="#F8F4F0" transform="translate(34,109)"/>
<path d="M0 0 C1.28894 3.86681 0.39887 4.79786 -1.375 8.375 C-4.42649 14.56322 -5.16307 19.96986 -5.5625 26.8125 C-5.60568 27.50537 -5.64887 28.19824 -5.69336 28.91211 C-5.79861 30.60789 -5.89973 32.30392 -6 34 C-6.33 34 -6.66 34 -7 34 C-7.90282 10.1446 -7.90282 10.1446 0 0 Z " fill="#C3C0C3" transform="translate(42,58)"/>
<path d="M0 0 C0.73047 1.58984 0.73047 1.58984 1 4 C-0.13649 6.35227 -1.27676 8.38893 -2.6875 10.5625 C-3.04006 11.13936 -3.39262 11.71621 -3.75586 12.31055 C-5.80256 15.55459 -7.75172 17.93958 -11 20 C-10.67 18.68 -10.34 17.36 -10 16 C-9.34 16 -8.68 16 -8 16 C-8 14.68 -8 13.36 -8 12 C-7.34 12 -6.68 12 -6 12 C-6 11.34 -6 10.68 -6 10 C-5.34 10 -4.68 10 -4 10 C-4.26812 9.27812 -4.53625 8.55625 -4.8125 7.8125 C-5 5 -5 5 -2.5625 2.1875 C-1.71687 1.46562 -0.87125 0.74375 0 0 Z " fill="#DBE6F1" transform="translate(134,133)"/>
<path d="M0 0 C5.056 0.86083 7.13373 3.98108 10 8 C12.95637 13.10136 15.14918 17.70676 15.0625 23.6875 C15.05348 24.49574 15.04445 25.30398 15.03516 26.13672 C15.02355 26.7516 15.01195 27.36648 15 28 C14.67 28 14.34 28 14 28 C13.91492 27.61328 13.91492 27.61328 13.48438 25.65625 C11.07355 15.29483 7.82814 7.43673 0 0 Z " fill="#C1C1C5" transform="translate(130,50)"/>
<path d="M0 0 C0.33 0 0.66 0 1 0 C1.45109 8.69609 1.51481 16.31425 -3 24 C-4.63672 25.76953 -4.63672 25.76953 -6 27 C-5.79504 26.39414 -5.59008 25.78828 -5.37891 25.16406 C-3.66768 19.84207 -2.67218 14.9074 -2.25 9.33984 C-1.8995 6.05936 -1.02099 3.13104 0 0 Z " fill="#D0EAF4" transform="translate(152,109)"/>
<path d="M0 0 C0.66 1.32 1.32 2.64 2 4 C2.66 3.67 3.32 3.34 4 3 C5.20117 7.20411 4.62144 9.03647 3 13 C2.5362 15.9895 2.24955 18.9857 2 22 C-0.1021 18.84685 -0.24348 18.13897 -0.19531 14.55078 C-0.18887 13.70322 -0.18242 12.85566 -0.17578 11.98242 C-0.15902 11.10135 -0.14227 10.22027 -0.125 9.3125 C-0.11598 8.41982 -0.10695 7.52715 -0.09766 6.60742 C-0.0741 4.40468 -0.0412 2.20247 0 0 Z " fill="#F0ECEA" transform="translate(145,73)"/>
<path d="M0 0 C0 0.99 0 1.98 0 3 C-5.12326 5.45489 -9.33895 6.50342 -15 7 C-15 5.68 -15 4.36 -15 3 C-14.30133 2.86723 -13.60266 2.73445 -12.88281 2.59766 C-12.42777 2.50936 -12.42777 2.50936 -10.125 2.0625 C-9.22008 1.88848 -8.31516 1.71445 -7.38281 1.53516 C-0.54745 0 -0.54745 0 0 0 Z " fill="#3CB3C5" transform="translate(68,67)"/>
<path d="M0 0 C0.66 0.66 1.32 1.32 2 2 C4.32275 2.40047 6.65739 2.73971 9 3 C8.67 3.99 8.34 4.98 8 6 C5.9375 6.6875 5.9375 6.6875 4 7 C4 6.34 4 5.68 4 5 C3.01 5.33 2.02 5.66 1 6 C0.3125 8.0625 0.3125 8.0625 0 10 C-0.66 10 -1.32 10 -2 10 C-2.19531 3.94531 -2.19531 3.94531 -2 2 C-1.34 1.34 -0.68 0.68 0 0 Z " fill="#2EDCFC" transform="translate(115,85)"/>
<path d="M0 0 C0.825 0.30938 1.65 0.61875 2.5 0.9375 C6.39126 2.11878 9.96167 2.58224 14 3 C14 3.99 14 4.98 14 6 C8.01007 6.31526 4.3644 5.6822 -1 3 C-0.67 2.01 -0.34 1.02 0 0 Z " fill="#3DB8CA" transform="translate(113,67)"/>
<path d="M0 0 C1 0.5 1 0.5 6 3 C6 4.65 6 6.3 6 8 C5.67 7.01 5.34 6.02 5 5 C4.34 5 3.68 5 3 5 C3 6.65 3 8.3 3 10 C2.01 10 1.02 10 0 10 C-2.15194 6.77208 -2.20086 5.71599 -2 2 C-1.34 2 -0.68 2 0 2 C0 1.34 0 0.68 0 0 Z " fill="#23D6F3" transform="translate(88,105)"/>
<path d="M0 0 C2.79872 2.52788 4.45773 4.20411 5 8 C3.02 8.66 1.04 9.32 -1 10 C-2.1875 8.375 -2.1875 8.375 -3 6 C-1.625 2.75 -1.625 2.75 0 0 Z " fill="#3C3A44" transform="translate(132,58)"/>
<path d="M0 0 C0.33 0 0.66 0 1 0 C1 3.3 1 6.6 1 10 C-3.92991 10.28999 -7.09252 10.19703 -11 7 C-11 6.01 -11 5.02 -11 4 C-9.68 4 -8.36 4 -7 4 C-7 4.66 -7 5.32 -7 6 C-6.60813 6.15469 -6.60813 6.15469 -4.625 6.9375 C-2 8 -2 8 0 9 C0 6.03 0 3.06 0 0 Z " fill="#BFDCE6" transform="translate(134,40)"/>
<path d="M0 0 C0.33 1.32 0.66 2.64 1 4 C2.98 4 4.96 4 7 4 C6.67 3.01 6.34 2.02 6 1 C7.65 1 9.3 1 11 1 C9.25 4.875 9.25 4.875 7 6 C0.65067 6.46177 0.65067 6.46177 -1.9375 4.625 C-3 3 -3 3 -3 1 C-2.01 0.67 -1.02 0.34 0 0 Z " fill="#37CBE0" transform="translate(59,96)"/>
<path d="M0 0 C0.66 0 1.32 0 2 0 C3.33203 1.39062 3.33203 1.39062 4.8125 3.25 C7.29325 6.25493 9.84608 8.68094 13 11 C11.35 11.33 9.7 11.66 8 12 C6.66081 10.37982 5.3288 8.75371 4 7.125 C3.2575 6.22008 2.515 5.31516 1.75 4.38281 C0 2 0 2 0 0 Z " fill="#EDEBEB" transform="translate(40,112)"/>
<path d="M0 0 C0.66 0 1.32 0 2 0 C2 1.65 2 3.3 2 5 C1.34 5 0.68 5 0 5 C0 6.32 0 7.64 0 9 C0.99 8.67 1.98 8.34 3 8 C2.67 10.64 2.34 13.28 2 16 C1.34 15.67 0.68 15.34 0 15 C-0.98783 12.03651 -1.13411 10.02873 -1.125 6.9375 C-1.12758 6.05965 -1.13016 5.1818 -1.13281 4.27734 C-1 2 -1 2 0 0 Z " fill="#3ACFE8" transform="translate(110,83)"/>
<path d="M0 0 C0.66 0 1.32 0 2 0 C1.88558 1.60496 1.75805 3.20898 1.625 4.8125 C1.55539 5.70582 1.48578 6.59914 1.41406 7.51953 C1 10 1 10 -1 13 C-0.67 10.69 -0.34 8.38 0 6 C-0.99 6.99 -1.98 7.98 -3 9 C-3.99 8.67 -4.98 8.34 -6 8 C-5.04957 6.66102 -4.08941 5.32895 -3.125 4 C-2.59133 3.2575 -2.05766 2.515 -1.50781 1.75 C-1.01023 1.1725 -0.51266 0.595 0 0 Z " fill="#AEE7F5" transform="translate(149,116)"/>
<path d="M0 0 C0.99 0.33 1.98 0.66 3 1 C0.48691 3.01047 -2.02541 5.01983 -4.5625 7 C-6.8596 8.8848 -8.93893 10.86259 -11 13 C-10.5373 8.70772 -8.09841 6.97078 -4.9375 4.25 C-4.0184 3.45078 -3.0993 2.65156 -2.15234 1.82812 C-1.44207 1.22484 -0.7318 0.62156 0 0 Z " fill="#B2B0B3" transform="translate(54,47)"/>
<path d="M0 0 C-0.33 1.65 -0.66 3.3 -1 5 C-2.65 5.33 -4.3 5.66 -6 6 C-6.33 4.68 -6.66 3.36 -7 2 C-4 0 -4 0 0 0 Z " fill="#95EEFD" transform="translate(132,38)"/>
<path d="M0 0 C0.66 0.33 1.32 0.66 2 1 C2.22179 4.25295 2.28601 6.42798 0.8125 9.375 C-1 11 -1 11 -3.6875 11.25 C-4.45063 11.1675 -5.21375 11.085 -6 11 C-5.01 10.67 -4.02 10.34 -3 10 C-3 8.35 -3 6.7 -3 5 C-2.34 5 -1.68 5 -1 5 C-0.67 3.35 -0.34 1.7 0 0 Z " fill="#39C4DC" transform="translate(94,105)"/>
<path d="M0 0 C0.33 0.66 0.66 1.32 1 2 C-1.10618 4.94866 -3.39392 7.48378 -6 10 C-6 7.03799 -5.93656 4.80969 -5 2 C-2.4375 0.6875 -2.4375 0.6875 0 0 Z " fill="#F0ECED" transform="translate(30,50)"/>
<path d="M0 0 C0.825 0.33 0.825 0.33 5 2 C5.41177 5.60297 5.15359 6.78402 3 9.8125 C2.34 10.53437 1.68 11.25625 1 12 C0.34 11.67 -0.32 11.34 -1 11 C-0.34 10.01 0.32 9.02 1 8 C1.32727 2.65455 1.32727 2.65455 0 0 Z " fill="#0D2A35" transform="translate(94,104)"/>
<path d="M0 0 C0.99 0.33 1.98 0.66 3 1 C3.66 0.67 4.32 0.34 5 0 C3.73059 3.91403 2.48832 5.79073 -1 8 C-1.625 5.125 -1.625 5.125 -2 2 C-1.34 1.34 -0.68 0.68 0 0 Z " fill="#95E2F6" transform="translate(139,137)"/>
<path d="M0 0 C2.12508 3.18762 2.50202 5.26512 3 9 C1.68 9.99 0.36 10.98 -1 12 C-0.96745 10.01432 -0.9349 8.02865 -0.90234 6.04297 C-1 4 -1 4 -2 1 C-1.34 0.67 -0.68 0.34 0 0 Z " fill="#2B2A30" transform="translate(140,63)"/>
<path d="M0 0 C0 0.66 0 1.32 0 2 C-5.14682 5.16727 -9.15826 5.3505 -15 5 C-12.18178 3.12119 -10.14357 2.30991 -6.9375 1.375 C-6.05965 1.11461 -5.1818 0.85422 -4.27734 0.58594 C-2 0 -2 0 0 0 Z " fill="#0B2F3A" transform="translate(68,70)"/>
<path d="M0 0 C1.98 0 3.96 0 6 0 C2.30827 3.5379 -1.09391 3.59116 -6 4 C-6 4.99 -6 5.98 -6 7 C-6.66 7 -7.32 7 -8 7 C-8 5.35 -8 3.7 -8 2 C-5.36 2 -2.72 2 0 2 C0 1.34 0 0.68 0 0 Z " fill="#0C2C35" transform="translate(59,67)"/>
<path d="M0 0 C0.33 0.165 0.33 0.165 2 1 C1.67 1.66 1.34 2.32 1 3 C0.67 2.01 0.34 1.02 0 0 Z " fill="#E0E4EC" transform="translate(36,140)"/>
<path d="M0 0 C0.33 0.165 0.33 0.165 2 1 C1.67 1.66 1.34 2.32 1 3 C0.67 2.01 0.34 1.02 0 0 Z " fill="#E0E6EC" transform="translate(34,137)"/>
<path d="M0 0 C2 1 2 1 2 1 Z " fill="#C4E7F5" transform="translate(126,153)"/>
<path d="" fill="#E1E3F2" transform="translate(0,0)"/>
<path d="" fill="#E2E1E9" transform="translate(0,0)"/>
<path d="" fill="#87E2F5" transform="translate(0,0)"/>
<path d="" fill="#E3E0E7" transform="translate(0,0)"/>
<path d="" fill="#CDE7F6" transform="translate(0,0)"/>
<path d="" fill="#DEE3E7" transform="translate(0,0)"/>
<path d="" fill="#DEE1EA" transform="translate(0,0)"/>
<path d="" fill="#E0E3EA" transform="translate(0,0)"/>
</svg>
