<?xml version="1.0" encoding="UTF-8"?>
<!-- Generator: visioncortex VTracer 0.6.12 -->
<svg version="1.1" xmlns="http://www.w3.org/2000/svg" width="249" height="195">
<path d="M0 0 C0.83789 0.44086 1.67578 0.88172 2.53906 1.33594 C12.15875 6.72653 20.22133 14.34601 27 23 C27.45496 23.56469 27.90992 24.12938 28.37866 24.71118 C33.63345 32.49415 32.74825 41.41992 32.75 50.4375 C32.77189 52.89181 32.80074 55.34597 32.8302 57.8002 C32.84962 59.42825 32.8668 61.05632 32.88171 62.68442 C32.94401 68.41397 33.14295 74.12623 33.45312 79.84766 C33.49145 80.58028 33.52978 81.31291 33.56927 82.06773 C33.80652 86.10811 34.32639 90.01331 35 94 C34.73047 96.66797 34.73047 96.66797 34.1875 99.1875 C34.01605 100.02668 33.84461 100.86586 33.66797 101.73047 C32.76236 104.80741 31.2506 106.7494 29 109 C27.96166 110.98 27.03471 112.9977 26.09766 115.02734 C24.94661 117.09595 23.81624 118.48725 22 120 C21.34 120 20.68 120 20 120 C19.7525 120.50531 19.7525 120.50531 18.5 123.0625 C14.76895 129.58522 8.84154 134.09235 2 137 C2 133.1086 3.28752 131.94786 5.625 128.875 C8.21991 125.41967 10.69812 121.9688 13 118.3125 C16.63778 112.76637 21.36345 108.4023 26.24219 103.95703 C28 102 28 102 28 99 C27.43152 99.70125 26.86305 100.4025 26.27734 101.125 C22.68302 105.5414 19.09909 109.92754 15.25 114.125 C11.76781 118.03739 9.34303 122.33553 7 127 C6.34 127 5.68 127 5 127 C4.89687 127.34031 4.89687 127.34031 4.375 129.0625 C1.80911 134.54417 -0.51456 137.86415 -6.17969 140.45312 C-23.06213 146.55255 -41.40312 148.4435 -59 145 C-59.66081 144.87206 -60.32161 144.74412 -61.00244 144.6123 C-74.78548 141.78201 -89.75691 136.09831 -97.87891 123.97656 C-98.78493 122.53319 -99.67943 121.08252 -100.5625 119.625 C-110.531 103.48967 -110.531 103.48967 -115 102 C-114.97938 101.0925 -114.95875 100.185 -114.9375 99.25 C-115 96 -115 96 -115.55981 94.01343 C-116.16535 91.24367 -115.2598 89.09782 -114.5249 86.41846 C-113.45663 81.49645 -113.4688 76.45631 -113.3125 71.4375 C-113.26762 70.25672 -113.22275 69.07594 -113.17651 67.85938 C-112.9621 61.00543 -113.09793 54.28533 -113.59888 47.44849 C-114.30639 37.6832 -114.50797 30.9101 -108 23 C-107.34516 22.08477 -106.69031 21.16953 -106.01562 20.22656 C-94.47706 4.85585 -75.60544 -5.89235 -56.56738 -8.71875 C-36.957 -10.86702 -17.57509 -9.48057 0 0 Z " fill="#212025" transform="translate(194,32)"/>
<path d="M0 0 C0.83789 0.44086 1.67578 0.88172 2.53906 1.33594 C12.15875 6.72653 20.22133 14.34601 27 23 C27.45496 23.56469 27.90992 24.12938 28.37866 24.71118 C33.63345 32.49415 32.74825 41.41992 32.75 50.4375 C32.77189 52.89181 32.80074 55.34597 32.8302 57.8002 C32.84962 59.42825 32.8668 61.05632 32.88171 62.68442 C32.94401 68.41397 33.14295 74.12623 33.45312 79.84766 C33.49145 80.58028 33.52978 81.31291 33.56927 82.06773 C33.80652 86.10811 34.32639 90.01331 35 94 C34.73047 96.66797 34.73047 96.66797 34.1875 99.1875 C34.01605 100.02668 33.84461 100.86586 33.66797 101.73047 C32.76236 104.80741 31.2506 106.7494 29 109 C27.96166 110.98 27.03471 112.9977 26.09766 115.02734 C24.94661 117.09595 23.81624 118.48725 22 120 C21.34 120 20.68 120 20 120 C19.7525 120.50531 19.7525 120.50531 18.5 123.0625 C14.76895 129.58522 8.84154 134.09235 2 137 C2 133.1086 3.28752 131.94786 5.625 128.875 C8.21991 125.41967 10.69812 121.9688 13 118.3125 C16.63778 112.76637 21.36345 108.4023 26.24219 103.95703 C28 102 28 102 28 99 C27.43152 99.70125 26.86305 100.4025 26.27734 101.125 C22.68302 105.5414 19.09909 109.92754 15.25 114.125 C11.76781 118.03739 9.34303 122.33553 7 127 C6.34 127 5.68 127 5 127 C4.89687 127.34031 4.89687 127.34031 4.375 129.0625 C1.80911 134.54417 -0.51456 137.86415 -6.17969 140.45312 C-23.06213 146.55255 -41.40312 148.4435 -59 145 C-59.66081 144.87206 -60.32161 144.74412 -61.00244 144.6123 C-74.78548 141.78201 -89.75691 136.09831 -97.87891 123.97656 C-98.78493 122.53319 -99.67943 121.08252 -100.5625 119.625 C-110.531 103.48967 -110.531 103.48967 -115 102 C-114.97938 101.0925 -114.95875 100.185 -114.9375 99.25 C-115 96 -115 96 -115.55981 94.01343 C-116.16535 91.24367 -115.2598 89.09782 -114.5249 86.41846 C-113.45663 81.49645 -113.4688 76.45631 -113.3125 71.4375 C-113.26762 70.25672 -113.22275 69.07594 -113.17651 67.85938 C-112.9621 61.00543 -113.09793 54.28533 -113.59888 47.44849 C-114.30639 37.6832 -114.50797 30.9101 -108 23 C-107.34516 22.08477 -106.69031 21.16953 -106.01562 20.22656 C-94.47706 4.85585 -75.60544 -5.89235 -56.56738 -8.71875 C-36.957 -10.86702 -17.57509 -9.48057 0 0 Z M-92.375 40.4375 C-101.18287 51.5593 -102.70873 65.23576 -102 79 C-100.85456 88.19627 -96.48095 96.70672 -89.22266 102.47266 C-77.60006 110.45936 -64.00606 113.08631 -50.07422 113.23828 C-49.33319 113.24803 -48.59217 113.25778 -47.82869 113.26782 C-17.45739 113.5857 -17.45739 113.5857 -4 109 C-3.43152 108.81309 -3.43152 108.81309 -0.55469 107.86719 C10.22535 103.86771 15.8551 98.3405 20.87109 88.0625 C25.56447 75.3303 24.30425 57.67347 18.86328 45.44531 C13.41644 34.96401 4.17683 28.50599 -6.91797 24.87744 C-16.71845 22.08729 -26.74196 21.63924 -36.875 21.6875 C-37.48863 21.68996 -37.48863 21.68996 -40.59399 21.70239 C-59.39463 21.94539 -79.14792 25.95698 -92.375 40.4375 Z " fill="#F5F0ED" transform="translate(194,32)"/>
<path d="M0 0 C0.83789 0.44086 1.67578 0.88172 2.53906 1.33594 C12.15333 6.7235 20.23326 14.34186 27 23 C27.45931 23.58427 27.91862 24.16854 28.39185 24.77051 C33.33358 32.20895 32.59123 40.20062 32.375 48.75 C32.35845 50.23696 32.34411 51.72394 32.33203 53.21094 C32.23414 61.83838 31.7897 70.40523 31 79 C30.67 79 30.34 79 30 79 C29.93813 78.52562 29.93813 78.52562 29.625 76.125 C29 73 29 73 27 71 C25.03176 66.95377 24.46638 62.99044 23.8125 58.5625 C22.27443 49.49869 19.34049 39.17125 11.76172 33.375 C9 31 9 31 8.69531 28.82422 C8.83711 28.1191 8.97891 27.41398 9.125 26.6875 C9.38515 23.45189 9.25491 22.3511 7.3125 19.67578 C2.21886 14.60943 2.21886 14.60943 -1 13 C-1 16.96 -1 20.92 -1 25 C-3.86458 24.2513 -6.72917 23.5026 -9.59375 22.75391 C-33.96245 17.36038 -64.3691 18.88644 -85.85156 32.50781 C-94.6526 38.62053 -99.83839 47.64736 -102 58 C-102.25847 61.42981 -102.1192 64.75996 -101.875 68.1875 C-101.82223 69.09154 -101.76946 69.99557 -101.71509 70.927 C-101.24423 77.85027 -100.16484 84.50322 -98.62109 91.26172 C-98 94 -98 94 -98 96 C-98.99 96.33 -98.99 96.33 -104 98 C-103.64937 98.59812 -103.29875 99.19625 -102.9375 99.8125 C-102 102 -102 102 -103 105 C-111.34435 90.57879 -113.61875 80.43315 -113.12109 63.74609 C-112.96339 58.29079 -113.2231 52.97091 -113.65161 47.53418 C-114.38547 37.77184 -114.492 30.89068 -108 23 C-107.67258 22.54238 -107.67258 22.54238 -106.01562 20.22656 C-94.47706 4.85585 -75.60544 -5.89235 -56.56738 -8.71875 C-36.957 -10.86702 -17.57509 -9.48057 0 0 Z " fill="#F7F3F0" transform="translate(194,32)"/>
<path d="M0 0 C12.80022 -0.92346 25.16258 2.51725 35 11 C40.10745 17.37918 43.50255 24.70785 43 33 C40.6875 32.875 40.6875 32.875 38 32 C36.92925 30.03697 35.93704 28.03026 35 26 C32.3125 23.125 32.3125 23.125 30 21 C30 23.64 30 26.28 30 29 C29.01 29 28.02 29 27 29 C27 29.99 27 30.98 27 32 C27.66 32.33 28.32 32.66 29 33 C29.66 33.33 30.32 33.66 31 34 C31 34.66 31 35.32 31 36 C30.01 36 29.02 36 28 36 C28.36094 37.03641 28.72188 38.07281 29.09375 39.14062 C29.56282 40.51031 30.03155 41.88011 30.5 43.25 C30.61924 43.59096 30.61924 43.59096 31.22266 45.31641 C32.39421 48.76413 33 51.31703 33 55 C32.505 55.165 32.505 55.165 30 56 C29.835 56.33 29.835 56.33 29 58 C29.66 58 30.32 58 31 58 C32.09659 61.28977 31.79953 62.71304 31 66 C29.68 66 28.36 66 27 66 C27.08709 67.45945 27.19527 68.91766 27.3125 70.375 C27.37051 71.18711 27.42852 71.99922 27.48828 72.83594 C28 75 28 75 31 77 C31 76.34 31 75.68 31 75 C30.34 75 29.68 75 29 75 C29 74.01 29 73.02 29 72 C31.64 71.67 34.28 71.34 37 71 C37.33 71.99 37.66 72.98 38 74 C30.44052 79.22545 22.91627 81.92206 14 84 C13.32534 84.17878 12.65067 84.35755 11.95557 84.54175 C4.28616 86.37616 -3.41908 86.33755 -11.25635 86.31567 C-13.59977 86.31253 -15.94189 86.33597 -18.28516 86.36133 C-32.08265 86.41996 -46.99491 85.54343 -59 78 C-61 75 -61 75 -61 72 C-60.01 71.67 -60.01 71.67 -55 70 C-55 69.01 -55 68.02 -55 67 C-54.67 66.01 -54.34 65.02 -54 64 C-53.34 64 -52.68 64 -52 64 C-52 63.01 -52 62.02 -52 61 C-52.66 61 -53.32 61 -54 61 C-55.73166 51.47584 -55.49349 42.35059 -53 33 C-52.01 33 -51.02 33 -50 33 C-50 32.01 -50 31.02 -50 30 C-50.61875 30.20625 -51.2375 30.4125 -51.875 30.625 C-52.57625 30.74875 -53.2775 30.8725 -54 31 C-54.66 30.34 -55.32 29.68 -56 29 C-56.99 29 -57.98 29 -59 29 C-59.66 28.67 -60.32 28.34 -61 28 C-61 27.34 -61 26.68 -61 26 C-60.01 26 -59.02 26 -58 26 C-57.93812 25.21625 -57.87625 24.4325 -57.8125 23.625 C-57 21 -57 21 -54.83984 19.84766 C-51.67179 18.90203 -49.05072 18.76779 -45.75 18.8125 C-44.69297 18.81895 -43.63594 18.82539 -42.54688 18.83203 C-40 19 -40 19 -39 20 C-38.95936 21.66617 -38.95728 23.33388 -39 25 C-38.34 25.33 -37.68 25.66 -37 26 C-37 25.34 -37 24.68 -37 24 C-35.68 24 -34.36 24 -33 24 C-34.13305 27.39915 -35.12518 28.05254 -38 30 C-36.02 30.66 -34.04 31.32 -32 32 C-32.33 32.99 -32.66 33.98 -33 35 C-33.66 34.67 -34.32 34.34 -35 34 C-34.67 36.64 -34.34 39.28 -34 42 C-33.34 42 -32.68 42 -32 42 C-31.67 45.96 -31.34 49.92 -31 54 C-31.495 54.165 -31.495 54.165 -34 55 C-34.12375 55.70125 -34.2475 56.4025 -34.375 57.125 C-35.03838 60.17656 -35.97212 63.05341 -37 66 C-36.01 66 -35.02 66 -34 66 C-33.835 65.505 -33.835 65.505 -33 63 C-32.67 63.99 -32.34 64.98 -32 66 C-28.9375 67.1875 -28.9375 67.1875 -26 68 C-25.67 65.36 -25.34 62.72 -25 60 C-21 60 -21 60 -19.3125 61.5 C-15.72871 63.82462 -12.15082 63.70542 -8 63 C-5.125 61 -5.125 61 -3 59 C-2.01 59 -1.02 59 0 59 C0 60.65 0 62.3 0 64 C2.78392 62.60804 2.97899 60.84424 4 58 C4.33 58.66 4.66 59.32 5 60 C5.99 60 6.98 60 8 60 C8 53.4 8 46.8 8 40 C8.66 40 9.32 40 10 40 C10 38.02 10 36.04 10 34 C10.66 34 11.32 34 12 34 C12 33.01 12 32.02 12 31 C16.29 31 20.58 31 25 31 C25 29.68 25 28.36 25 27 C21.17482 24.60927 17.40334 24.44033 13 24 C12.835 23.34 12.835 23.34 12 20 C12.99 20 13.98 20 15 20 C15 19.34 15 18.68 15 18 C22.625 17 22.625 17 26 17 C19.92054 12.13644 12.29795 9.9945 4.71094 8.57031 C3 8 3 8 1.25 5.0625 C0 2 0 2 0 0 Z " fill="#222126" transform="translate(168,59)"/>
<path d="M0 0 C2.85906 3.31782 3.91921 6.52549 5.1875 10.6875 C7.27452 16.82693 9.82436 20.80325 14.42578 25.32812 C16 27 16 27 16 29 C16.28359 29.13535 16.28359 29.13535 17.71875 29.82031 C20.08335 31.0431 22.26175 32.43506 24.5 33.875 C47.35078 47.54555 79.44467 46.93054 104.51514 40.72412 C109.90701 39.15286 114.95635 36.87561 119.98047 34.39062 C123 33 123 33 126 33 C124.02 36.63 122.04 40.26 120 44 C119.34 44 118.68 44 118 44 C117.79375 44.68062 117.5875 45.36125 117.375 46.0625 C114.80911 51.54417 112.48544 54.86415 106.82031 57.45312 C89.93787 63.55255 71.59688 65.4435 54 62 C53.33919 61.87206 52.67839 61.74412 51.99756 61.6123 C38.21452 58.78201 23.24309 53.09831 15.12109 40.97656 C14.21507 39.53319 13.32057 38.08252 12.4375 36.625 C2.469 20.48967 2.469 20.48967 -2 19 C-1.97938 18.0925 -1.95875 17.185 -1.9375 16.25 C-2 13 -2 13 -2.59375 11.09375 C-3.11849 8.38932 -2.50637 6.81732 -1.5625 4.25 C-1.27504 3.45078 -0.98758 2.65156 -0.69141 1.82812 C-0.46324 1.22484 -0.23508 0.62156 0 0 Z " fill="#E6E2E7" transform="translate(81,115)"/>
<path d="M0 0 C0.41572 0.00137 0.41572 0.00137 2.51953 0.0083 C10.77657 0.14624 19.98522 0.63598 27 5.3125 C27.33 4.3225 27.66 3.3325 28 2.3125 C28.165 2.8075 28.165 2.8075 29 5.3125 C29.99 5.3125 30.98 5.3125 32 5.3125 C32 4.9825 32 4.6525 32 4.3125 C33.5756 3.86748 35.1611 3.45743 36.75 3.0625 C37.63172 2.83047 38.51344 2.59844 39.42188 2.35938 C40.27266 2.34391 41.12344 2.32844 42 2.3125 C42.64066 2.97895 43.28133 3.64539 43.94141 4.33203 C44.28107 4.65881 44.28107 4.65881 46 6.3125 C48.98047 6.15234 48.98047 6.15234 52.1875 5.25 C52.72053 5.11014 52.72053 5.11014 55.41797 4.40234 C56.27004 4.0427 57.12211 3.68305 58 3.3125 C58.33 2.3225 58.66 1.3325 59 0.3125 C62 4.0625 62 4.0625 62 6.3125 C62.66 6.3125 63.32 6.3125 64 6.3125 C65.72656 8.42969 65.72656 8.42969 67.625 11.1875 C68.25664 12.09242 68.88828 12.99734 69.53906 13.92969 C71 16.3125 71 16.3125 71 18.3125 C71.66 18.3125 72.32 18.3125 73 18.3125 C72.67 18.9725 72.34 19.6325 72 20.3125 C71.01 20.3125 70.02 20.3125 69 20.3125 C67.3125 18.3125 67.3125 18.3125 66 16.3125 C65.835 16.8075 65.835 16.8075 65 19.3125 C60.38 19.3125 55.76 19.3125 51 19.3125 C51 18.6525 51 17.9925 51 17.3125 C50.505 17.4775 50.505 17.4775 48 18.3125 C48 19.3025 48 20.2925 48 21.3125 C47.67 21.9725 47.34 22.6325 47 23.3125 C46.34 23.3125 45.68 23.3125 45 23.3125 C45.165 24.1375 45.165 24.1375 46 28.3125 C46.76313 28.20937 47.52625 28.10625 48.3125 28 C51 28.3125 51 28.3125 53 30.375 C54 33.3125 54 33.3125 53.0625 36.6875 C50.63898 41.44093 47.48842 46.07241 42.64062 48.48828 C36.88938 50.28342 30.37147 50.43882 24.9375 47.625 C21.86395 45.2054 21.17186 43.92572 20 40.3125 C19.01 39.9825 18.02 39.6525 17 39.3125 C15.46945 35.25653 14.58311 32.43437 16 28.3125 C16.34964 25.98155 16.68554 23.64845 17 21.3125 C18.32 20.9825 19.64 20.6525 21 20.3125 C21 19.3225 21 18.3325 21 17.3125 C23.31 16.6525 25.62 15.9925 28 15.3125 C27.505 14.85875 27.01 14.405 26.5 13.9375 C25 12.3125 25 12.3125 25 10.3125 C24.38254 10.3357 24.38254 10.3357 21.25781 10.45312 C9.37828 10.75643 -4.08718 10.76891 -15 5.3125 C-15 4.3225 -15 3.3325 -15 2.3125 C-9.88458 0.25485 -5.42594 -0.03604 0 0 Z " fill="#3F4452" transform="translate(23,137.6875)"/>
<path d="M0 0 C1.94092 0.89136 1.94092 0.89136 3.09668 2.72607 C5.64728 9.61241 7.47541 16.53817 9.06592 23.70386 C9.31729 24.78989 9.56865 25.87593 9.82764 26.99487 C10.57381 30.28624 11.26556 33.58479 11.94092 36.89136 C12.15047 37.83189 12.36002 38.77242 12.57593 39.74146 C14.5885 50.18316 14.00971 60.73796 13.71948 71.31274 C13.62825 74.64737 13.55367 77.98205 13.48193 81.31714 C13.43147 83.46169 13.38007 85.60623 13.32764 87.75073 C13.30465 88.73531 13.28166 89.7199 13.25798 90.73431 C13.09556 96.50718 12.65786 102.16026 11.94092 107.89136 C11.61092 107.89136 11.28092 107.89136 10.94092 107.89136 C10.77592 107.06636 10.77592 107.06636 9.94092 102.89136 C8.95092 103.05636 8.95092 103.05636 3.94092 103.89136 C3.28092 105.87136 2.62092 107.85136 1.94092 109.89136 C1.61092 109.89136 1.28092 109.89136 0.94092 109.89136 C0.94092 105.60136 0.94092 101.31136 0.94092 96.89136 C0.28092 99.86136 -0.37908 102.83136 -1.05908 105.89136 C-1.71908 105.89136 -2.37908 105.89136 -3.05908 105.89136 C-7.70418 96.60116 -4.50273 82.74632 -3.05908 72.89136 C-2.39908 72.89136 -1.73908 72.89136 -1.05908 72.89136 C-0.39908 77.84136 0.26092 82.79136 0.94092 87.89136 C1.00767 81.55536 0.85327 75.37793 0.19092 69.07886 C0.10729 68.23976 0.02366 67.40066 -0.0625 66.53613 C-0.60492 61.36554 -1.29144 56.23293 -2.08252 51.09448 C-3.99273 38.59792 -5.44724 26.36355 -5.49658 13.70386 C-5.5015 13.12471 -5.5015 13.12471 -5.52637 10.19385 C-5.51525 9.1311 -5.50413 8.06834 -5.49268 6.97339 C-5.48293 6.03729 -5.47318 5.10119 -5.46313 4.13672 C-5.3298 3.39575 -5.19646 2.65478 -5.05908 1.89136 C-2.05908 -0.10864 -2.05908 -0.10864 0 0 Z " fill="#E8E4E6" transform="translate(65.05908203125,8.108642578125)"/>
<path d="M0 0 C2.4375 0.375 2.4375 0.375 5 1 C11.85848 14.71696 3.76299 43.30295 1.38574 57.72705 C1.28987 58.30898 1.28987 58.30898 0.80469 61.25391 C0.62664 62.28975 0.44858 63.32559 0.26514 64.39282 C0 67 0 67 1 70 C0.91478 71.89952 0.76271 73.79664 0.5625 75.6875 C0.46066 76.68137 0.35883 77.67523 0.25391 78.69922 C0.17012 79.45848 0.08633 80.21773 0 81 C0.8913 78.32609 1.47732 75.76276 2 73 C2.66 73 3.32 73 4 73 C5.73346 78.99146 6.30959 84.34023 6.25 90.5625 C6.25773 91.37396 6.26547 92.18543 6.27344 93.02148 C6.25718 98.05819 5.61462 102.22663 4 107 C3.01 107 2.02 107 1 107 C1.16299 106.4428 1.32597 105.88561 1.4939 105.31152 C2.04272 102.8049 2.11329 100.58019 2.09766 98.01562 C2.09443 97.08105 2.09121 96.14648 2.08789 95.18359 C2.07951 94.21551 2.07113 93.24742 2.0625 92.25 C2.05799 91.26645 2.05348 90.28289 2.04883 89.26953 C2.03706 86.84629 2.02063 84.42318 2 82 C1.34 82 0.68 82 0 82 C0.01776 82.43401 0.01776 82.43401 0.10767 84.63037 C0.23678 87.84685 0.36111 91.06348 0.48218 94.28027 C0.53559 95.67325 0.59092 97.06616 0.64819 98.45898 C0.73012 100.45944 0.80462 102.46019 0.87891 104.46094 C0.92604 105.66541 0.97317 106.86987 1.02173 108.11084 C1 111 1 111 0 113 C-0.66 112.67 -1.32 112.34 -2 112 C-2 110.35 -2 108.7 -2 107 C-3.98 106.67 -5.96 106.34 -8 106 C-8 108.64 -8 111.28 -8 114 C-8.33 114 -8.66 114 -9 114 C-9.94158 103.30577 -10.29749 92.63875 -10.51758 81.9082 C-10.69136 75.48487 -11.17019 69.52071 -12.56592 63.25342 C-14.1296 55.13598 -12.35763 47.18373 -10.8125 39.1875 C-10.70043 38.59767 -10.70043 38.59767 -10.1333 35.61279 C-8.70487 28.24535 -7.15486 20.91575 -5.375 13.625 C-5.1814 12.81829 -4.9878 12.01158 -4.78833 11.18042 C-3.72191 6.99457 -2.48515 3.60562 0 0 Z " fill="#F9F6F3" transform="translate(240,8)"/>
<path d="M0 0 C4.60904 2.30452 7.94877 4.82551 11 9 C11.47168 12.59655 11.62342 14.75315 10 18 C10.59941 18.26168 11.19883 18.52336 11.81641 18.79297 C19.51036 23.04598 22.61376 33.10356 25 41 C25.61493 44.1228 26.09702 47.23437 26.53125 50.38672 C27.13194 53.73554 28.23678 56.11473 30 59 C30.33 59 30.66 59 31 59 C31.33 57.02 31.66 55.04 32 53 C34.65595 56.97854 34.40963 61.2592 34.5625 65.875 C34.88827 74.37263 34.88827 74.37263 35.57812 78.24609 C36.02875 81.18767 35.81169 83.2911 35.1875 86.1875 C35.01605 87.02668 34.84461 87.86586 34.66797 88.73047 C33.76236 91.80741 32.2506 93.7494 30 96 C28.96166 97.98 28.03471 99.9977 27.09766 102.02734 C25.94661 104.09595 24.81624 105.48725 23 107 C22.34 107 21.68 107 21 107 C20.505 108.01063 20.01 109.02125 19.5 110.0625 C15.76895 116.58522 9.84154 121.09235 3 124 C3 120.1086 4.28752 118.94786 6.625 115.875 C9.21991 112.41967 11.69812 108.9688 14 105.3125 C17.63778 99.76637 22.36345 95.4023 27.24219 90.95703 C29 89 29 89 29 86 C28.41992 86.73605 27.83984 87.47211 27.24219 88.23047 C23.14099 93.35358 19.27731 98.07584 14 102 C13.875 97.25 13.875 97.25 15 95 C15.76313 94.71125 16.52625 94.4225 17.3125 94.125 C20.41258 92.82729 21.93845 91.65056 24 89 C24.75 85.75 24.75 85.75 25 83 C24.34 82.67 24.34 82.67 21 81 C21.99 80.67 22.98 80.34 24 80 C24.20086 76.28401 24.15194 75.22792 22 72 C22.26763 69.65822 22.61365 67.32514 23 65 C23.96486 50.66639 22.60004 38.44099 15 26 C14.70223 25.29875 14.40445 24.5975 14.09766 23.875 C12.697 21.48241 11.53752 21.06585 9 20 C8.13246 19.53723 7.26492 19.07445 6.37109 18.59766 C-15.95359 6.9151 -44.62637 6.66515 -68.42969 14.06641 C-81.10556 18.5015 -90.25588 25.13049 -96.25 37.25 C-98.50792 42.62197 -99.26088 48.25237 -100 54 C-102 52 -102 52 -102.375 49.125 C-101.99007 38.81736 -96.94917 29.37985 -90 22 C-74.16191 9.26324 -54.37856 6.82252 -34.75 6.8125 C-33.50348 6.80025 -32.25695 6.78801 -30.97266 6.77539 C-20.09474 6.75834 -10.0693 7.73991 0 12 C0 8.04 0 4.08 0 0 Z " fill="#F4F2F0" transform="translate(193,45)"/>
<path d="M0 0 C12.80022 -0.92346 25.16258 2.51725 35 11 C40.10745 17.37918 43.50255 24.70785 43 33 C40.6875 32.875 40.6875 32.875 38 32 C36.92925 30.03697 35.93704 28.03026 35 26 C32.3125 23.125 32.3125 23.125 30 21 C30 23.64 30 26.28 30 29 C29.01 29 28.02 29 27 29 C27 29.99 27 30.98 27 32 C27.66 32.33 28.32 32.66 29 33 C29.66 33.33 30.32 33.66 31 34 C31 34.66 31 35.32 31 36 C30.01 36 29.02 36 28 36 C28.33 36.66 28.66 37.32 29 38 C29.15145 40.59788 29.23137 43.15109 29.25 45.75 C29.27062 46.45383 29.29125 47.15766 29.3125 47.88281 C29.35413 53.48199 27.87984 57.18025 24.75 61.875 C21.75563 63.79995 19.449 63.47572 16 63 C11.88618 59.89178 10.04202 57.02063 9 52 C8.61124 45.9128 9.10816 40.01995 10 34 C10.66 34 11.32 34 12 34 C12 33.01 12 32.02 12 31 C16.29 31 20.58 31 25 31 C25 29.68 25 28.36 25 27 C21.17482 24.60927 17.40334 24.44033 13 24 C12.67 22.68 12.34 21.36 12 20 C12.99 20 13.98 20 15 20 C15 19.34 15 18.68 15 18 C22.625 17 22.625 17 26 17 C19.92054 12.13644 12.29795 9.9945 4.71094 8.57031 C3 8 3 8 1.25 5.0625 C0 2 0 2 0 0 Z " fill="#3D3C47" transform="translate(168,59)"/>
<path d="M0 0 C17.92716 -0.65035 33.898 0.31406 50 9 C50.83789 9.44086 51.67578 9.88172 52.53906 10.33594 C62.15333 15.7235 70.23326 23.34186 77 32 C77.45931 32.58427 77.91862 33.16854 78.39185 33.77051 C83.33358 41.20895 82.59123 49.20062 82.375 57.75 C82.35845 59.23696 82.34411 60.72394 82.33203 62.21094 C82.23414 70.83838 81.7897 79.40523 81 88 C80.67 88 80.34 88 80 88 C79.93813 87.52562 79.93813 87.52562 79.625 85.125 C79 82 79 82 77 80 C75.03176 75.95377 74.46638 71.99044 73.8125 67.5625 C72.44593 59.37544 69.63082 49.16253 63.26172 43.4375 C62 42 62 42 61.92578 39.51953 C62.0534 38.62621 62.18102 37.73289 62.3125 36.8125 C62.43238 35.91145 62.55227 35.01039 62.67578 34.08203 C62.78277 33.39496 62.88977 32.70789 63 32 C63.99 32 64.98 32 66 32 C66.33 32.99 66.66 33.98 67 35 C67.99 35 68.98 35 70 35 C70.14437 35.76313 70.28875 36.52625 70.4375 37.3125 C71 40 71 40 72 43 C72.61875 43.12375 73.2375 43.2475 73.875 43.375 C76.96316 44.28328 77.48784 46.27812 79 49 C73.40751 38.19938 73.40751 38.19938 70.1875 34.6875 C67.75229 31.69567 67.27143 29.79997 67 26 C65.68 26.33 64.36 26.66 63 27 C62.835 26.505 62.835 26.505 62 24 C61.175 23.67 60.35 23.34 59.5 23 C58.675 22.67 57.85 22.34 57 22 C56.835 21.505 56.835 21.505 56 19 C53.77734 17.99219 53.77734 17.99219 51 17 C49.18218 16.05181 47.37002 15.09269 45.5625 14.125 C34.92175 8.77855 23.74581 6.48286 12 5 C12.66 4.34 13.32 3.68 14 3 C9.38 2.34 4.76 1.68 0 1 C0 0.67 0 0.34 0 0 Z " fill="#F9F8F8" transform="translate(144,23)"/>
<path d="M0 0 C2.124 0.21899 4.24752 0.44495 6.3667 0.70654 C10.75398 1.19547 15.15407 1.3652 19.5625 1.5625 C20.4758 1.60568 21.3891 1.64887 22.33008 1.69336 C24.55328 1.79812 26.77657 1.90029 29 2 C28.67 2.165 28.67 2.165 27 3 C27.33 4.65 27.66 6.3 28 8 C28.76313 7.89687 29.52625 7.79375 30.3125 7.6875 C33 8 33 8 35 10.0625 C36 13 36 13 35.0625 16.375 C32.63898 21.12843 29.48842 25.75991 24.64062 28.17578 C18.88938 29.97092 12.37147 30.12632 6.9375 27.3125 C3.86395 24.8929 3.17186 23.61322 2 20 C1.01 19.67 0.02 19.34 -1 19 C-2.53055 14.94403 -3.41689 12.12187 -2 8 C-1.835 6.78313 -1.67 5.56625 -1.5 4.3125 C-1 1 -1 1 0 0 Z " fill="#F9F5F2" transform="translate(41,158)"/>
<path d="M0 0 C0 0.99 0 1.98 0 3 C1.65 2.67 3.3 2.34 5 2 C5.02494 6.39249 5.04297 10.78495 5.05493 15.17749 C5.05992 16.66806 5.06672 18.15862 5.07544 19.64917 C5.12015 27.49485 5.11483 35.21373 4 43 C3.67 43 3.34 43 3 43 C2.67 41.35 2.34 39.7 2 38 C1.01 38.165 1.01 38.165 -4 39 C-4.66 40.98 -5.32 42.96 -6 45 C-6.33 45 -6.66 45 -7 45 C-7 40.71 -7 36.42 -7 32 C-7.66 34.97 -8.32 37.94 -9 41 C-9.66 41 -10.32 41 -11 41 C-15.6451 31.7098 -12.44364 17.85496 -11 8 C-10.34 8 -9.68 8 -9 8 C-8.34 12.95 -7.68 17.9 -7 23 C-6.91305 16.91322 -7.10492 11.07023 -7.87891 5.03125 C-8 3 -8 3 -7 1 C-4 0 -4 0 0 0 Z " fill="#F1F7F6" transform="translate(73,73)"/>
<path d="M0 0 C4.05548 1.25351 5.2317 2.49929 7.4375 6.0625 C9.59837 12.5451 9.61662 20.53839 6.625 26.75 C4.4375 30.0625 4.4375 30.0625 1.4375 32.0625 C-1.375 32.625 -1.375 32.625 -4.5625 32.0625 C-8.65924 28.51578 -11.35178 24.87074 -11.76562 19.35547 C-11.87786 11.91972 -11.52049 7.26699 -6.3125 1.625 C-3.5625 0.0625 -3.5625 0.0625 0 0 Z " fill="#26DFF7" transform="translate(124.5625,90.9375)"/>
<path d="M0 0 C4.67941 1.47771 5.79991 3.14362 8.5625 7.125 C10.75795 11.5159 9.89481 17.33268 9.5625 22.125 C8.25 25.75 8.25 25.75 6.5625 28.125 C6.15 28.74375 5.7375 29.3625 5.3125 30 C2.31813 31.92495 0.0115 31.60072 -3.4375 31.125 C-7.55132 28.01678 -9.39548 25.14563 -10.4375 20.125 C-11.12534 12.59561 -10.14977 7.90281 -5.6875 1.6875 C-3.4375 0.125 -3.4375 0.125 0 0 Z " fill="#26E0FA" transform="translate(187.4375,90.875)"/>
<path d="M0 0 C2.97 0 5.94 0 9 0 C9 5.94 9 11.88 9 18 C4.38 18 -0.24 18 -5 18 C-5.33 17.01 -5.66 16.02 -6 15 C-6.80437 15.33 -7.60875 15.66 -8.4375 16 C-12.73805 17.20717 -16.56966 17.17721 -21 17 C-20.39086 13.23686 -19.31203 10.16496 -17.625 6.75 C-17.41488 6.3143 -17.41488 6.3143 -16.35156 4.10938 C-15 2 -15 2 -12 1 C-11.01 1.66 -10.02 2.32 -9 3 C-5.4375 3.3125 -5.4375 3.3125 -2 3 C-1.34 2.01 -0.68 1.02 0 0 Z " fill="#444F5F" transform="translate(240,141)"/>
<path d="M0 0 C2.00317 0.82715 2.00317 0.82715 3.15674 2.64648 C5.76771 9.67443 7.58252 16.75899 9.19067 24.07715 C9.32055 24.64949 9.32055 24.64949 9.97778 27.5459 C11.94714 36.29861 13.16444 44.05201 12.69067 53.01465 C12.65522 53.91635 12.61978 54.81805 12.58325 55.74707 C12.54007 56.61268 12.49688 57.47828 12.45239 58.37012 C12.41461 59.15411 12.37682 59.9381 12.33789 60.74585 C12.00317 62.82715 12.00317 62.82715 10.00317 65.82715 C8.20073 61.79938 7.38626 57.95167 6.67114 53.60449 C6.43001 52.17289 6.18863 50.74133 5.94702 49.30981 C5.82353 48.5666 5.70005 47.82338 5.57281 47.05765 C3.50598 34.65579 1.17979 22.44426 -2.11401 10.2998 C-2.99683 6.82715 -2.99683 6.82715 -2.99683 3.82715 C-3.65683 3.82715 -4.31683 3.82715 -4.99683 3.82715 C-4.66683 2.83715 -4.33683 1.84715 -3.99683 0.82715 C-1.99683 -0.17285 -1.99683 -0.17285 0 0 Z " fill="#FAF6F3" transform="translate(64.996826171875,8.1728515625)"/>
<path d="M0 0 C0.33 1.32 0.66 2.64 1 4 C1.66 4 2.32 4 3 4 C3 4.66 3 5.32 3 6 C3.66 6 4.32 6 5 6 C5.33 6.66 5.66 7.32 6 8 C6.33 5.69 6.66 3.38 7 1 C7.33 1 7.66 1 8 1 C8 3.97 8 6.94 8 10 C8.8913 7.32609 9.47732 4.76276 10 2 C10.66 2 11.32 2 12 2 C13.73346 7.99146 14.30959 13.34023 14.25 19.5625 C14.25773 20.37396 14.26547 21.18543 14.27344 22.02148 C14.25718 27.05819 13.61462 31.22663 12 36 C11.01 36 10.02 36 9 36 C9.16299 35.4428 9.32597 34.88561 9.4939 34.31152 C10.04272 31.8049 10.11329 29.58019 10.09766 27.01562 C10.09443 26.08105 10.09121 25.14648 10.08789 24.18359 C10.07951 23.21551 10.07113 22.24742 10.0625 21.25 C10.05799 20.26645 10.05348 19.28289 10.04883 18.26953 C10.03706 15.84629 10.02063 13.42318 10 11 C9.34 11 8.68 11 8 11 C8.01776 11.43401 8.01776 11.43401 8.10767 13.63037 C8.23678 16.84685 8.36111 20.06348 8.48218 23.28027 C8.53559 24.67325 8.59092 26.06616 8.64819 27.45898 C8.73012 29.45944 8.80462 31.46019 8.87891 33.46094 C8.92604 34.66541 8.97317 35.86987 9.02173 37.11084 C9 40 9 40 8 42 C7.34 41.67 6.68 41.34 6 41 C6 39.35 6 37.7 6 36 C4.02 35.67 2.04 35.34 0 35 C0 37.64 0 40.28 0 43 C-0.33 43 -0.66 43 -1 43 C-1.73641 32.98476 -2.14319 23.09999 -1.625 13.0625 C-1.5819 12.2172 -1.53879 11.37189 -1.49438 10.50098 C-1.27823 6.86359 -0.9663 3.52516 0 0 Z " fill="#F6F3F0" transform="translate(232,79)"/>
<path d="M0 0 C4.29 0 8.58 0 13 0 C13 8.91 13 17.82 13 27 C3.58824 25.82353 3.58824 25.82353 -1 22 C-2.1875 19.875 -2.1875 19.875 -3 18 C-3.99 17.34 -4.98 16.68 -6 16 C-6.70052 13.33694 -6.77745 10.75964 -7 8 C-4 6 -4 6 -1.3125 6.375 C-0.54937 6.58125 0.21375 6.7875 1 7 C1.33 5.02 1.66 3.04 2 1 C1.34 0.67 0.68 0.34 0 0 Z " fill="#62E4EF" transform="translate(236,160)"/>
<path d="M0 0 C45.59582 -0.9371 45.59582 -0.9371 61.48047 11.50781 C69.50659 19.38951 73.99442 31.27896 74.09766 42.42578 C74.09106 44.05472 74.07921 45.68364 74.0625 47.3125 C74.05799 48.14846 74.05348 48.98441 74.04883 49.8457 C74.03711 51.89717 74.01917 53.94859 74 56 C73.505 55.835 73.505 55.835 71 55 C71.33 49.39 71.66 43.78 72 38 C71.505 38.165 71.505 38.165 69 39 C68.82984 38.46633 68.65969 37.93266 68.48438 37.38281 C66.56688 31.48753 64.43299 25.70325 62 20 C61.71254 19.28457 61.42508 18.56914 61.12891 17.83203 C59.69134 15.49909 58.51291 15.05437 56 14 C55.54883 13.76281 55.54883 13.76281 53.26562 12.5625 C43.72626 7.61982 35.7025 5.7476 25 5 C25.33 6.32 25.66 7.64 26 9 C23.125 8.8125 23.125 8.8125 20 8 C19.34 6.35 18.68 4.7 18 3 C12.06 2.34 6.12 1.68 0 1 C0 0.67 0 0.34 0 0 Z " fill="#26242B" transform="translate(143,54)"/>
<path d="M0 0 C0.33 0 0.66 0 1 0 C1.52122 12.17629 0.72995 23.9996 -0.875 36.0625 C-1.0487 37.36905 -1.2224 38.67559 -1.40137 40.02173 C-2.41815 47.38494 -3.59237 54.70133 -5 62 C-8 63 -8 63 -10.1875 62.0625 C-10.48656 61.88719 -10.48656 61.88719 -12 61 C-12.17618 55.78914 -11.54503 51.11198 -10.375 46.0625 C-8.94548 39.64488 -7.64776 33.21383 -6.46875 26.74609 C-6.33724 26.02761 -6.20572 25.30912 -6.07022 24.56886 C-5.53753 21.65334 -5.0061 18.73768 -4.48749 15.81961 C-4.12004 13.75361 -3.74425 11.68927 -3.36719 9.625 C-3.15175 8.42102 -2.93632 7.21703 -2.71436 5.97656 C-2 3 -2 3 0 0 Z " fill="#EBE7E8" transform="translate(245,11)"/>
<path d="M0 0 C1.05703 0.00645 2.11406 0.01289 3.20312 0.01953 C5.75 0.1875 5.75 0.1875 6.75 1.1875 C6.79064 2.85367 6.79272 4.52138 6.75 6.1875 C7.41 6.5175 8.07 6.8475 8.75 7.1875 C8.75 6.5275 8.75 5.8675 8.75 5.1875 C10.07 5.1875 11.39 5.1875 12.75 5.1875 C11.61695 8.58665 10.62482 9.24004 7.75 11.1875 C9.73 11.8475 11.71 12.5075 13.75 13.1875 C13.42 14.1775 13.09 15.1675 12.75 16.1875 C12.09 15.8575 11.43 15.5275 10.75 15.1875 C11.08 17.8275 11.41 20.4675 11.75 23.1875 C12.41 23.1875 13.07 23.1875 13.75 23.1875 C14.08 27.1475 14.41 31.1075 14.75 35.1875 C14.255 35.3525 14.255 35.3525 11.75 36.1875 C11.42 37.8375 11.09 39.4875 10.75 41.1875 C10.255 41.3525 10.255 41.3525 7.75 42.1875 C8.08 41.30062 8.41 40.41375 8.75 39.5 C10.67098 32.72821 10.79338 25.11891 8.4375 18.5 C6.75 16.1875 6.75 16.1875 3.75 14.1875 C-0.84422 14.43809 -3.83035 15.04142 -7.25 18.1875 C-7.25 16.8675 -7.25 15.5475 -7.25 14.1875 C-6.26 14.1875 -5.27 14.1875 -4.25 14.1875 C-4.25 13.1975 -4.25 12.2075 -4.25 11.1875 C-4.86875 11.39375 -5.4875 11.6 -6.125 11.8125 C-6.82625 11.93625 -7.5275 12.06 -8.25 12.1875 C-8.91 11.5275 -9.57 10.8675 -10.25 10.1875 C-11.24 10.1875 -12.23 10.1875 -13.25 10.1875 C-13.91 9.8575 -14.57 9.5275 -15.25 9.1875 C-15.25 8.5275 -15.25 7.8675 -15.25 7.1875 C-14.26 7.1875 -13.27 7.1875 -12.25 7.1875 C-12.18812 6.40375 -12.12625 5.62 -12.0625 4.8125 C-11.25 2.1875 -11.25 2.1875 -9.08984 1.03516 C-5.92179 0.08953 -3.30072 -0.04471 0 0 Z " fill="#1C232A" transform="translate(122.25,77.8125)"/>
<path d="M0 0 C0.55752 0.16242 0.55752 0.16242 3.37891 0.98438 C8.25948 2.19995 12.9291 2.29577 17.9375 2.25 C18.3587 2.25387 18.3587 2.25387 20.49023 2.27344 C26.26943 2.25564 31.39893 1.42429 37 0 C35.53762 4.82587 32.73098 8.65644 29 12 C23.38721 14.81103 16.78969 15.24528 10.80078 13.27734 C6.79372 11.20241 5.35833 9.18819 4 5 C3.01 4.67 2.02 4.34 1 4 C0.3125 1.9375 0.3125 1.9375 0 0 Z " fill="#47E2F2" transform="translate(39,173)"/>
<path d="M0 0 C0.41464 0.00064 0.41464 0.00064 2.51294 0.00391 C9.95587 0.11847 16.81016 1.34204 24 3.3125 C23.67 3.9725 23.34 4.6325 23 5.3125 C22.34 5.3125 21.68 5.3125 21 5.3125 C20.67 6.6325 20.34 7.9525 20 9.3125 C8.45981 10.87843 -4.32058 10.65221 -15 5.3125 C-15 4.3225 -15 3.3325 -15 2.3125 C-9.88406 0.25464 -5.42626 -0.03496 0 0 Z " fill="#4D5060" transform="translate(23,137.6875)"/>
<path d="M0 0 C1.24652 -0.01225 2.49305 -0.02449 3.77734 -0.03711 C14.65526 -0.05416 24.6807 0.92741 34.75 5.1875 C34.42 5.8475 34.09 6.5075 33.75 7.1875 C33.32719 7.08502 33.32719 7.08502 31.1875 6.56641 C30.05312 6.29699 28.91875 6.02758 27.75 5.75 C26.63625 5.48316 25.5225 5.21633 24.375 4.94141 C0.79017 0.03637 -28.05235 0.97936 -48.6875 14.5 C-58.97753 22.22169 -63.15164 32.43935 -64.95312 44.87891 C-65.05109 45.64074 -65.14906 46.40258 -65.25 47.1875 C-67.25 45.1875 -67.25 45.1875 -67.625 42.3125 C-67.24007 32.00486 -62.19917 22.56735 -55.25 15.1875 C-39.41191 2.45074 -19.62856 0.01002 0 0 Z " fill="#C7C5C9" transform="translate(158.25,51.8125)"/>
<path d="M0 0 C0.77602 0.16242 1.55203 0.32484 2.35156 0.49219 C7.04762 1.14581 11.64022 1.14501 16.375 1.125 C17.2825 1.12887 18.19 1.13273 19.125 1.13672 C24.50866 1.12896 29.67353 0.78587 35 0 C36.0625 1.875 36.0625 1.875 37 4 C35.70134 6.59732 34.77191 6.67187 32.06641 7.60156 C26.97089 9.20027 22.24635 9.44811 16.9375 9.375 C16.51437 9.3808 16.51437 9.3808 14.37305 9.41016 C8.61524 9.38352 4.20633 8.51748 -1 6 C-1.33 5.01 -1.66 4.02 -2 3 C-1.34 2.01 -0.68 1.02 0 0 Z " fill="#BAFDFE" transform="translate(40,167)"/>
<path d="M0 0 C4.67941 1.47771 5.79991 3.14362 8.5625 7.125 C10.75795 11.5159 9.89481 17.33268 9.5625 22.125 C8.25 25.75 8.25 25.75 6.5625 28.125 C6.15 28.74375 5.7375 29.3625 5.3125 30 C2.31813 31.92495 0.0115 31.60072 -3.4375 31.125 C-7.55132 28.01678 -9.39548 25.14563 -10.4375 20.125 C-11.12534 12.59561 -10.14977 7.90281 -5.6875 1.6875 C-3.4375 0.125 -3.4375 0.125 0 0 Z M-2.4375 4.125 C-3.4275 4.785 -4.4175 5.445 -5.4375 6.125 C-6.0975 6.125 -6.7575 6.125 -7.4375 6.125 C-8.46095 9.50403 -8.5713 12.6036 -8.5625 16.125 C-8.56508 17.15625 -8.56766 18.1875 -8.57031 19.25 C-8.45614 21.72157 -8.15101 23.7693 -7.4375 26.125 C-6.4475 26.125 -5.4575 26.125 -4.4375 26.125 C-4.1075 27.115 -3.7775 28.105 -3.4375 29.125 C-2.7775 29.125 -2.1175 29.125 -1.4375 29.125 C-1.4375 28.465 -1.4375 27.805 -1.4375 27.125 C-0.4475 26.795 0.5425 26.465 1.5625 26.125 C1.5625 24.145 1.5625 22.165 1.5625 20.125 C2.2225 20.125 2.8825 20.125 3.5625 20.125 C3.8925 21.445 4.2225 22.765 4.5625 24.125 C5.8825 23.135 7.2025 22.145 8.5625 21.125 C8.2325 18.485 7.9025 15.845 7.5625 13.125 C5.625 12.5625 5.625 12.5625 3.5625 12.125 C3.2325 12.455 2.9025 12.785 2.5625 13.125 C2.48 12.01125 2.3975 10.8975 2.3125 9.75 C1.5625 6.125 1.5625 6.125 -0.5 4.6875 C-1.13938 4.50187 -1.77875 4.31625 -2.4375 4.125 Z " fill="#33D5EB" transform="translate(187.4375,90.875)"/>
<path d="M0 0 C0.66 0 1.32 0 2 0 C2.12117 1.07121 2.24234 2.14242 2.36719 3.24609 C2.53598 4.64329 2.70527 6.04042 2.875 7.4375 C2.95363 8.14455 3.03227 8.8516 3.11328 9.58008 C3.33928 11.39673 3.66301 13.20063 4 15 C4.66 15.33 5.32 15.66 6 16 C6 17.65 6 19.3 6 21 C6.72187 20.95875 7.44375 20.9175 8.1875 20.875 C11 21 11 21 16 23 C15.67 26.96 15.34 30.92 15 35 C14.67 35 14.34 35 14 35 C13.67 33.35 13.34 31.7 13 30 C11.02 30.33 9.04 30.66 7 31 C6.34 32.98 5.68 34.96 5 37 C4.67 37 4.34 37 4 37 C4 32.71 4 28.42 4 24 C3.34 26.97 2.68 29.94 2 33 C1.34 33 0.68 33 0 33 C-4.6451 23.7098 -1.44364 9.85496 0 0 Z " fill="#CCF2F9" transform="translate(62,81)"/>
<path d="M0 0 C0.66 0 1.32 0 2 0 C1.47606 5.8681 0.23891 10.54874 -2 16 C-2.99 16 -3.98 16 -5 16 C-5.495 17.01063 -5.99 18.02125 -6.5 19.0625 C-10.23105 25.58522 -16.15846 30.09235 -23 33 C-23 29.1086 -21.71248 27.94786 -19.375 24.875 C-16.78009 21.41967 -14.30188 17.9688 -12 14.3125 C-9.33568 10.23162 -6.175 6.965 -2.63672 3.62891 C-1 2 -1 2 0 0 Z " fill="#7FE4F8" transform="translate(219,136)"/>
<path d="M0 0 C2.31 0.66 4.62 1.32 7 2 C7.33 3.32 7.66 4.64 8 6 C8.99 6.165 8.99 6.165 14 7 C14 7.99 14 8.98 14 10 C15.32 10 16.64 10 18 10 C18.35063 10.94875 18.70125 11.8975 19.0625 12.875 C20.47997 16.21619 22.31837 18.99527 24.4375 21.9375 C27.47239 26.16444 29.97797 30.19769 32 35 C31.67 35.99 31.34 36.98 31 38 C30.83693 37.64486 30.83693 37.64486 30.01172 35.84766 C29.57473 34.92855 29.13773 34.00945 28.6875 33.0625 C28.25824 32.14598 27.82898 31.22945 27.38672 30.28516 C26 28 26 28 23 27 C20.72382 24.46119 19.59887 22.35369 19 19 C18.34 19.33 17.68 19.66 17 20 C16.34 18.68 15.68 17.36 15 16 C14.34 18.97 13.68 21.94 13 25 C12.01 24.67 11.02 24.34 10 24 C10.09281 23.44312 10.18562 22.88625 10.28125 22.3125 C10.66045 18.30376 10.69724 15.93119 8.21875 12.62109 C6.21265 10.64679 4.17689 8.7833 2 7 C2.99 6.67 3.98 6.34 5 6 C3.35 4.02 1.7 2.04 0 0 Z " fill="#F4F5F7" transform="translate(193,39)"/>
<path d="M0 0 C-0.33 2.97 -0.66 5.94 -1 9 C-1.99 9 -2.98 9 -4 9 C-4 9.99 -4 10.98 -4 12 C-3.34 12.33 -2.68 12.66 -2 13 C-1.34 13.33 -0.68 13.66 0 14 C0 14.66 0 15.32 0 16 C-0.99 16 -1.98 16 -3 16 C-2.67 17.65 -2.34 19.3 -2 21 C-2.5775 20.23687 -3.155 19.47375 -3.75 18.6875 C-6.44306 15.47079 -8.29447 13.39358 -12.4375 12.4375 C-16.39477 13.30617 -17.60578 15.80771 -20 19 C-20.33 19 -20.66 19 -21 19 C-21 17.35 -21 15.7 -21 14 C-20.34 14 -19.68 14 -19 14 C-19 13.01 -19 12.02 -19 11 C-14.71 11 -10.42 11 -6 11 C-6 9.68 -6 8.36 -6 7 C-9.82518 4.60927 -13.59666 4.44033 -18 4 C-18.33 2.68 -18.66 1.36 -19 0 C-18.01 0 -17.02 0 -16 0 C-16 -0.66 -16 -1.32 -16 -2 C-10.50158 -3.83281 -5.28935 -1.93513 0 0 Z " fill="#112C36" transform="translate(199,79)"/>
<path d="M0 0 C0.33 0 0.66 0 1 0 C1 2.97 1 5.94 1 9 C1.8913 6.32609 2.47732 3.76276 3 1 C3.66 1 4.32 1 5 1 C6.73346 6.99146 7.30959 12.34023 7.25 18.5625 C7.25773 19.37396 7.26547 20.18543 7.27344 21.02148 C7.25718 26.05819 6.61462 30.22663 5 35 C4.01 35 3.02 35 2 35 C2.16299 34.4428 2.32597 33.88561 2.4939 33.31152 C3.04272 30.8049 3.11329 28.58019 3.09766 26.01562 C3.09443 25.08105 3.09121 24.14648 3.08789 23.18359 C3.07951 22.21551 3.07113 21.24742 3.0625 20.25 C3.05799 19.26645 3.05348 18.28289 3.04883 17.26953 C3.03706 14.84629 3.02063 12.42318 3 10 C2.34 10 1.68 10 1 10 C1.03553 10.86802 1.07106 11.73604 1.10767 12.63037 C1.23678 15.84685 1.36111 19.06348 1.48218 22.28027 C1.53559 23.67325 1.59092 25.06616 1.64819 26.45898 C1.73012 28.45944 1.80462 30.46019 1.87891 32.46094 C1.92604 33.66541 1.97317 34.86987 2.02173 36.11084 C2 39 2 39 1 41 C0.34 40.67 -0.32 40.34 -1 40 C-1.14849 26.63577 -0.70654 13.34525 0 0 Z " fill="#B9F1F9" transform="translate(239,80)"/>
<path d="M0 0 C6.27 0.66 12.54 1.32 19 2 C19 5.96 19 9.92 19 14 C13.16812 13.5978 9.63697 12.86414 5 9 C3.8125 6.875 3.8125 6.875 3 5 C2.01 4.34 1.02 3.68 0 3 C0 2.01 0 1.02 0 0 Z " fill="#42DFEE" transform="translate(230,173)"/>
<path d="M0 0 C1.32 0 2.64 0 4 0 C4.33 1.65 4.66 3.3 5 5 C5.825 5.165 5.825 5.165 10 6 C10 7.65 10 9.3 10 11 C7.36 11 4.72 11 2 11 C1.67 10.01 1.34 9.02 1 8 C0.2575 8.165 -0.485 8.33 -1.25 8.5 C-6.50409 9.20055 -11.70752 9.07707 -17 9 C-16.39816 6.97955 -15.72694 4.97889 -15 3 C-11.51088 1.25544 -7.50258 1.53763 -3.65234 1.28125 C-1 1 -1 1 0 0 Z " fill="#383D4D" transform="translate(239,145)"/>
<path d="M0 0 C4.02242 1.31643 5.2366 2.56971 7.4375 6.125 C8.54289 9.44116 8.60504 12.01037 8.625 15.5 C8.63918 16.62148 8.65336 17.74297 8.66797 18.89844 C8.44115 22.07385 7.79141 24.26735 6.4375 27.125 C5.7775 27.125 5.1175 27.125 4.4375 27.125 C4.4375 25.475 4.4375 23.825 4.4375 22.125 C3.7775 22.125 3.1175 22.125 2.4375 22.125 C2.4375 21.465 2.4375 20.805 2.4375 20.125 C3.4275 20.125 4.4175 20.125 5.4375 20.125 C5.7675 17.815 6.0975 15.505 6.4375 13.125 C6.1075 13.29 6.1075 13.29 4.4375 14.125 C1.74737 14.31204 -0.85936 14.21081 -3.5625 14.125 C-4.5625 13.125 -4.5625 13.125 -4.625 10.0625 C-4.60438 9.09313 -4.58375 8.12375 -4.5625 7.125 C-4.2325 7.125 -3.9025 7.125 -3.5625 7.125 C-3.2325 8.775 -2.9025 10.425 -2.5625 12.125 C-1.2425 12.125 0.0775 12.125 1.4375 12.125 C1.7675 10.145 2.0975 8.165 2.4375 6.125 C-1.3125 5 -1.3125 5 -3.5625 6.125 C-3.8925 5.135 -4.2225 4.145 -4.5625 3.125 C-5.2225 3.455 -5.2225 3.455 -8.5625 5.125 C-4.56646 0.16023 -4.56646 0.16023 0 0 Z " fill="#39DDEF" transform="translate(124.5625,90.875)"/>
<path d="M0 0 C1.00031 0.16242 2.00062 0.32484 3.03125 0.49219 C6.86588 1.03806 10.62406 1.13301 14.5 1.125 C15.74781 1.12758 16.99563 1.13016 18.28125 1.13281 C21.95292 1.00168 25.37997 0.58779 29 0 C27.523 3.03606 26.25066 4.81827 23.5 6.8125 C18.0404 8.66486 12.33541 9.1573 6.80469 7.23828 C3.42904 5.45159 1.18457 3.68533 0 0 Z " fill="#2A424F" transform="translate(43,179)"/>
<path d="M0 0 C2.46235 2.99 3.84052 5.79139 5.125 9.4375 C5.45758 10.36434 5.79016 11.29117 6.13281 12.24609 C7.95661 18.03789 8.12433 23.28599 8.0625 29.3125 C8.05799 30.14846 8.05348 30.98441 8.04883 31.8457 C8.03711 33.89717 8.01917 35.94859 8 38 C7.01 37.67 6.02 37.34 5 37 C5.33 31.39 5.66 25.78 6 20 C5.01 20.33 4.02 20.66 3 21 C1 15 -1 9 -3 3 C-2.01 2.67 -1.02 2.34 0 2 C0 1.34 0 0.68 0 0 Z " fill="#28262D" transform="translate(209,72)"/>
<path d="M0 0 C1.22396 -0.00773 2.44793 -0.01547 3.70898 -0.02344 C14.48014 -0.00051 24.46908 1.03259 34.4375 5.25 C34.1075 5.91 33.7775 6.57 33.4375 7.25 C33.01469 7.14752 33.01469 7.14752 30.875 6.62891 C30.30781 6.4942 30.30781 6.4942 27.4375 5.8125 C26.32375 5.54566 25.21 5.27883 24.0625 5.00391 C15.52997 3.22936 7.32009 3.09741 -1.375 3.125 C-1.9786 3.12307 -1.9786 3.12307 -5.0332 3.11328 C-12.26581 3.1211 -19.37429 3.44221 -26.5625 4.25 C-26.8925 3.59 -27.2225 2.93 -27.5625 2.25 C-18.3138 0.54958 -9.39471 -0.05955 0 0 Z " fill="#D0CED2" transform="translate(158.5625,51.75)"/>
<path d="M0 0 C4.60032 2.30016 7.96605 4.821 11 9 C11.4375 12.9375 11.4375 12.9375 11 16 C10.34 16.33 9.68 16.66 9 17 C7.66667 16.33333 6.33333 15.66667 5 15 C4.01 14.835 4.01 14.835 -1 14 C-0.67 9.38 -0.34 4.76 0 0 Z " fill="#BDE8F2" transform="translate(193,45)"/>
<path d="M0 0 C5.4576 -0.83963 8.55632 1.09442 12.82812 4.18359 C21.33184 11.29551 25.59073 22.17088 27 33 C27.29862 37.77797 26.94058 42.29708 26 47 C25.67 47 25.34 47 25 47 C24.96262 46.12859 24.92523 45.25719 24.88672 44.35938 C24.21863 32.25509 22.34321 22.38361 16 12 C15.70223 11.29875 15.40445 10.5975 15.09766 9.875 C13.69939 7.48649 12.53576 7.05207 10 6 C6.66667 4.33333 3.33333 2.66667 0 1 C0 0.67 0 0.34 0 0 Z " fill="#DBD9DD" transform="translate(192,59)"/>
<path d="M0 0 C5.76253 5.31926 5.76253 5.31926 6 9 C5.68934 10.3388 5.35859 11.67323 5 13 C-5.55809 13.36902 -5.55809 13.36902 -10 11 C-10 10.01 -10 9.02 -10 8 C-9.4341 7.89043 -8.8682 7.78086 -8.28516 7.66797 C-7.91842 7.58869 -7.91842 7.58869 -6.0625 7.1875 C-5.3316 7.03668 -4.6007 6.88586 -3.84766 6.73047 C-3.23793 6.48941 -2.6282 6.24836 -2 6 C-1.67 5.01 -1.34 4.02 -1 3 C-1.99 2.67 -2.98 2.34 -4 2 C-2.68 1.34 -1.36 0.68 0 0 Z " fill="#2C2F3B" transform="translate(81,141)"/>
<path d="M0 0 C0.79664 0.1418 1.59328 0.28359 2.41406 0.42969 C7.09102 1.17352 11.64778 1.14497 16.375 1.125 C17.2825 1.12887 18.19 1.13273 19.125 1.13672 C24.50866 1.12896 29.67353 0.78587 35 0 C35.165 0.33 35.165 0.33 36 2 C35.67 2.66 35.34 3.32 35 4 C31.23966 5.06894 27.60179 5.12877 23.71094 5.13281 C22.52242 5.1341 21.33391 5.13539 20.10938 5.13672 C18.87703 5.13285 17.64469 5.12898 16.375 5.125 C15.13492 5.12887 13.89484 5.13273 12.61719 5.13672 C12.02422 5.13607 12.02422 5.13607 9.02344 5.13281 C7.93982 5.13168 6.8562 5.13056 5.73975 5.12939 C3 5 3 5 0 4 C-0.33 3.01 -0.66 2.02 -1 1 C-0.67 0.67 -0.34 0.34 0 0 Z " fill="#58E1ED" transform="translate(40,167)"/>
<path d="M0 0 C0.66 0.33 1.32 0.66 2 1 C3.67245 6.43546 2.57216 11.65833 1 17 C-1 20 -1 20 -3 22 C-4.07066 24.04512 -5.03033 26.12801 -6 28.22266 C-7 30 -7 30 -9 31 C-8.80664 30.38254 -8.61328 29.76508 -8.41406 29.12891 C-6.40153 22.58319 -4.75247 16.04451 -3.5 9.3125 C-1.89655 1.89655 -1.89655 1.89655 0 0 Z " fill="#E0E3ED" transform="translate(226,119)"/>
<path d="M0 0 C1.37563 1.28965 2.70766 2.62689 4 4 C4 4.66 4 5.32 4 6 C4.66 6 5.32 6 6 6 C7.72656 8.11719 7.72656 8.11719 9.625 10.875 C9.94082 11.32746 9.94082 11.32746 11.53906 13.61719 C13 16 13 16 13 18 C13.66 18 14.32 18 15 18 C14.67 18.66 14.34 19.32 14 20 C13.01 20 12.02 20 11 20 C9.3125 18 9.3125 18 8 16 C7.67 16.99 7.34 17.98 7 19 C2.38 19 -2.24 19 -7 19 C-7 18.34 -7 17.68 -7 17 C-8.98 17 -10.96 17 -13 17 C-13 16.67 -13 16.34 -13 16 C-7.06 16 -1.12 16 5 16 C5 9.27778 5 9.27778 2.5 5.75 C0 2.16667 0 2.16667 0 0 Z " fill="#4E5565" transform="translate(81,138)"/>
<path d="M0 0 C4.29 0 8.58 0 13 0 C13 2.97 13 5.94 13 9 C9.04 9 5.08 9 1 9 C0 7 0 7 0.9375 3.875 C1.11281 3.40062 1.11281 3.40062 2 1 C1.34 0.67 0.68 0.34 0 0 Z " fill="#FAF8F4" transform="translate(236,160)"/>
<path d="M0 0 C2 1 2 1 3 2 C4.32594 2.36162 5.65938 2.69728 7 3 C7.625 5.3125 7.625 5.3125 8 8 C7.67 8.495 7.67 8.495 6 11 C5.23687 10.81437 4.47375 10.62875 3.6875 10.4375 C1 10 1 10 -2 11 C-3.1875 13.5625 -3.1875 13.5625 -4 16 C-4.33 16 -4.66 16 -5 16 C-5.02724 14.58344 -5.0465 13.16673 -5.0625 11.75 C-5.0741 10.96109 -5.0857 10.17219 -5.09766 9.35938 C-5.00232 7.056 -4.75087 5.17753 -4 3 C-1.9375 1.25 -1.9375 1.25 0 0 Z " fill="#2EDEF3" transform="translate(120,93)"/>
<path d="M0 0 C3.03906 -0.29297 3.03906 -0.29297 6.625 -0.1875 C7.81352 -0.16043 9.00203 -0.13336 10.22656 -0.10547 C11.1418 -0.07066 12.05703 -0.03586 13 0 C12.67 2.31 12.34 4.62 12 7 C11.01 7 10.02 7 9 7 C8.67 7.99 8.34 8.98 8 10 C7.01 10 6.02 10 5 10 C5 8.68 5 7.36 5 6 C4.67 6.66 4.34 7.32 4 8 C0.9375 8.625 0.9375 8.625 -2 9 C-2.25 3.375 -2.25 3.375 0 0 Z " fill="#28E2FA" transform="translate(118,104)"/>
<path d="M0 0 C0.33 0 0.66 0 1 0 C1 7.59 1 15.18 1 23 C0.01 23 -0.98 23 -2 23 C-2.33 21.35 -2.66 19.7 -3 18 C-3.99 18 -4.98 18 -6 18 C-6 15.03 -6 12.06 -6 9 C-4.68 9 -3.36 9 -2 9 C-2.04125 8.07188 -2.0825 7.14375 -2.125 6.1875 C-2 3 -2 3 0 0 Z " fill="#F8F4F1" transform="translate(76,81)"/>
<path d="M0 0 C1.13438 0.02062 2.26875 0.04125 3.4375 0.0625 C3.4375 4.3525 3.4375 8.6425 3.4375 13.0625 C2.4475 12.8975 2.4475 12.8975 -2.5625 12.0625 C-2.5625 14.7025 -2.5625 17.3425 -2.5625 20.0625 C-2.8925 20.0625 -3.2225 20.0625 -3.5625 20.0625 C-3.75845 16.91713 -3.94284 13.77119 -4.125 10.625 C-4.18107 9.72717 -4.23715 8.82934 -4.29492 7.9043 C-4.34326 7.05029 -4.3916 6.19629 -4.44141 5.31641 C-4.48854 4.52565 -4.53567 3.73489 -4.58423 2.92017 C-4.54396 -0.52256 -3.50462 0.06148 0 0 Z " fill="#E7E7EF" transform="translate(234.5625,101.9375)"/>
<path d="M0 0 C2.49362 1.20381 4.68143 2.45429 7 4 C11.60632 4.74184 15.00206 4.69422 18.875 2 C19.57625 1.34 20.2775 0.68 21 0 C21.99 0 22.98 0 24 0 C23.62294 2.52092 23.29542 3.7262 21.39844 5.48438 C16.78956 8.36715 13.58457 9.91384 8 9 C4.47249 7.58756 1.65685 6.02811 -0.4375 2.75 C-0.62312 2.1725 -0.80875 1.595 -1 1 C-0.67 0.67 -0.34 0.34 0 0 Z " fill="#3AC4D3" transform="translate(144,118)"/>
<path d="M0 0 C1.07508 -0.00258 2.15016 -0.00516 3.25781 -0.00781 C5.875 0.125 5.875 0.125 6.875 1.125 C6.91564 2.79117 6.91772 4.45888 6.875 6.125 C5.97137 6.18559 5.06773 6.24617 4.13672 6.30859 C2.95723 6.39238 1.77773 6.47617 0.5625 6.5625 C-0.02338 6.60311 -0.02338 6.60311 -2.98828 6.80859 C-6.125 7.125 -6.125 7.125 -9.125 8.125 C-9.125 5.815 -9.125 3.505 -9.125 1.125 C-5.87031 0.0401 -3.41957 -0.00824 0 0 Z " fill="#113A46" transform="translate(122.125,77.875)"/>
<path d="M0 0 C1.32 0.66 2.64 1.32 4 2 C4 4.64 4 7.28 4 10 C1.36 10 -1.28 10 -4 10 C-3.97938 10.47437 -3.97938 10.47437 -3.875 12.875 C-4 16 -4 16 -6 18 C-6.02712 16.08341 -6.04645 14.16671 -6.0625 12.25 C-6.0741 11.18266 -6.0857 10.11531 -6.09766 9.01562 C-6.0151 6.46631 -5.74618 4.42066 -5 2 C-4.36062 1.85563 -3.72125 1.71125 -3.0625 1.5625 C-1 1 -1 1 0 0 Z " fill="#37DEF1" transform="translate(185,95)"/>
<path d="M0 0 C0.33 0 0.66 0 1 0 C1.33 1.65 1.66 3.3 2 5 C3.65 5 5.3 5 7 5 C6.67 5.66 6.34 6.32 6 7 C0.60394 8.37529 -4.96744 8.18364 -10.5 8.1875 C-11.42426 8.19975 -12.34852 8.21199 -13.30078 8.22461 C-18.27586 8.23529 -22.33686 7.96629 -27 6 C-27 5.01 -27 4.02 -27 3 C-26.67 3.33 -26.34 3.66 -26 4 C-17.37169 5.09889 -8.68292 5.1279 0 5 C0 3.35 0 1.7 0 0 Z " fill="#DBF9FB" transform="translate(67,161)"/>
<path d="M0 0 C2 3 2 3 2 6 C1.67 6.165 1.67 6.165 0 7 C0 7.66 0 8.32 0 9 C1.32 9.66 2.64 10.32 4 11 C0.37 10.67 -3.26 10.34 -7 10 C-7 9.34 -7 8.68 -7 8 C-8.98 8.33 -10.96 8.66 -13 9 C-12.34 8.67 -11.68 8.34 -11 8 C-11 6.68 -11 5.36 -11 4 C-9.185 3.34 -9.185 3.34 0 0 Z " fill="#F0ECE8" transform="translate(198,137)"/>
<path d="M0 0 C8.25273 0.37512 16.80547 4.58902 23 10 C23 10.66 23 11.32 23 12 C21.35 12 19.7 12 18 12 C18 15.96 18 19.92 18 24 C17.67 24 17.34 24 17 24 C17.04383 23.04738 17.08766 22.09477 17.13281 21.11328 C17.12474 17.18716 16.97914 13.80874 16 10 C12.97603 7.30573 9.87386 6.08271 6 5 C6 4.34 6 3.68 6 3 C4.02 2.34 2.04 1.68 0 1 C0 0.67 0 0.34 0 0 Z " fill="#F8F9FB" transform="translate(175,33)"/>
<path d="M0 0 C1.26582 3.86724 1.11188 7.73151 1.0625 11.75 C1.05799 12.44738 1.05348 13.14477 1.04883 13.86328 C1.0371 15.57556 1.01917 17.28779 1 19 C2.32 19.33 3.64 19.66 5 20 C5 21.65 5 23.3 5 25 C5.9075 24.64937 6.815 24.29875 7.75 23.9375 C10.87758 23.03531 12.05208 22.86618 15 24 C12.72825 26.097 11.17016 26.96301 8.125 27.625 C4.02665 26.80533 2.73997 25.00516 0.19922 21.82422 C-2.10615 18.31736 -2.16203 15.20992 -2.1875 11.125 C-2.20168 10.09633 -2.21586 9.06766 -2.23047 8.00781 C-1.99581 4.94537 -1.29185 2.76751 0 0 Z " fill="#38CBDB" transform="translate(115,96)"/>
<path d="M0 0 C4.21047 -0.2406 5.79003 0.31601 10 2 C9.67 5.96 9.34 9.92 9 14 C8.67 14 8.34 14 8 14 C7.67 12.35 7.34 10.7 7 9 C5.02 9.33 3.04 9.66 1 10 C-0.60726 6.78549 -0.05748 3.56387 0 0 Z " fill="#E1E1E8" transform="translate(68,102)"/>
<path d="M0 0 C4.95 0.33 9.9 0.66 15 1 C15 3.31 15 5.62 15 8 C9.17048 7.59796 5.64652 6.85321 1 3 C0.67 2.01 0.34 1.02 0 0 Z " fill="#254A5A" transform="translate(234,179)"/>
<path d="M0 0 C4.62 0 9.24 0 14 0 C14 0.99 14 1.98 14 3 C14.66 3.33 15.32 3.66 16 4 C15 5 15 5 11.40234 5.09766 C9.91403 5.09098 8.42574 5.07902 6.9375 5.0625 C6.17889 5.05799 5.42027 5.05348 4.63867 5.04883 C2.75908 5.03701 0.87953 5.01907 -1 5 C-1.33 4.01 -1.66 3.02 -2 2 C-1.34 2 -0.68 2 0 2 C0 1.34 0 0.68 0 0 Z " fill="#191B23" transform="translate(51,151)"/>
<path d="M0 0 C0.66 0.33 1.32 0.66 2 1 C0.02 4.63 -1.96 8.26 -4 12 C-4.66 12 -5.32 12 -6 12 C-6.20625 12.68062 -6.4125 13.36125 -6.625 14.0625 C-8.45409 17.9701 -11.10279 20.83858 -14 24 C-14.66 23.67 -15.32 23.34 -16 23 C-15.505 22.60813 -15.01 22.21625 -14.5 21.8125 C-12.54407 19.44908 -12.75792 17.98565 -13 15 C-11.35 14.67 -9.7 14.34 -8 14 C-8.22688 13.23687 -8.45375 12.47375 -8.6875 11.6875 C-9 9 -9 9 -7.75 7.1875 C-6 6 -6 6 -3 6 C-3 5.34 -3 4.68 -3 4 C-2.34 4 -1.68 4 -1 4 C-0.67 2.68 -0.34 1.36 0 0 Z " fill="#DAE4EF" transform="translate(205,147)"/>
<path d="M0 0 C0.66 0 1.32 0 2 0 C1.47606 5.8681 0.23891 10.54874 -2 16 C-5.875 14.25 -5.875 14.25 -7 12 C-7.66 12.33 -7.66 12.33 -11 14 C-9.53418 10.57719 -7.61938 8.4352 -4.9375 5.875 C-1.09722 2.19444 -1.09722 2.19444 0 0 Z " fill="#87E5FA" transform="translate(219,136)"/>
<path d="M0 0 C0.825 0.165 0.825 0.165 5 1 C5.33 3.64 5.66 6.28 6 9 C6.66 9 7.32 9 8 9 C8.33 12.96 8.66 16.92 9 21 C8.01 21.33 7.02 21.66 6 22 C5.67 23.65 5.34 25.3 5 27 C4.01 27.33 3.02 27.66 2 28 C2.33 27.11312 2.66 26.22625 3 25.3125 C4.92147 18.53896 5.11863 10.86953 2.5625 4.3125 C2.04688 3.54937 1.53125 2.78625 1 2 C0.67 1.34 0.34 0.68 0 0 Z " fill="#112934" transform="translate(128,92)"/>
<path d="M0 0 C2.97 0 5.94 0 9 0 C9 3.3 9 6.6 9 10 C7.35 10 5.7 10 4 10 C2.0239 7.95575 1 6.88232 1 4 C0.34 4 -0.32 4 -1 4 C-0.67 2.68 -0.34 1.36 0 0 Z " fill="#404655" transform="translate(240,141)"/>
<path d="M0 0 C3.63986 5.45978 3.15419 11.14593 3.125 17.5 C3.12887 18.34176 3.13273 19.18352 3.13672 20.05078 C3.13024 24.16269 3.03532 27.99019 2 32 C1.67 32 1.34 32 1 32 C0.2142 27.85077 -0.11855 23.94707 -0.09766 19.72656 C-0.09443 18.57285 -0.09121 17.41914 -0.08789 16.23047 C-0.07951 15.04066 -0.07113 13.85086 -0.0625 12.625 C-0.05799 11.41199 -0.05348 10.19898 -0.04883 8.94922 C-0.03708 5.96609 -0.02066 2.98307 0 0 Z " fill="#EAF0F4" transform="translate(243,81)"/>
<path d="M0 0 C0.66 0.33 1.32 0.66 2 1 C2 3 2 3 -0.25 5.4375 C-3 8 -3 8 -5.07422 9.34375 C-7.5058 11.435 -7.83875 12.97179 -8.5625 16.0625 C-9.67926 20.78617 -9.67926 20.78617 -13 23 C-11.59851 14.9353 -10.18708 7.76352 -4 2 C-1.93359 0.73047 -1.93359 0.73047 0 0 Z " fill="#1D1C21" transform="translate(108,68)"/>
<path d="M0 0 C0.89203 0.19465 1.78406 0.3893 2.70312 0.58984 C3.37859 0.74582 4.05406 0.9018 4.75 1.0625 C4.75 1.7225 4.75 2.3825 4.75 3.0625 C8.71 3.0625 12.67 3.0625 16.75 3.0625 C16.75 3.3925 16.75 3.7225 16.75 4.0625 C8.24676 5.37069 -1.1848 6.64703 -9.25 3.0625 C-9.25 2.0725 -9.25 1.0825 -9.25 0.0625 C-5.84598 -1.07482 -3.47543 -0.7774 0 0 Z " fill="#464D5A" transform="translate(53.25,154.9375)"/>
<path d="M0 0 C0.66 0 1.32 0 2 0 C2.33 0.99 2.66 1.98 3 3 C3.66 2.67 4.32 2.34 5 2 C5.35789 7.36842 5.35789 7.36842 3.9375 9.875 C0.88406 11.64797 -1.54738 11.36343 -5 11 C-7.4375 9.625 -7.4375 9.625 -9 8 C-9 7.34 -9 6.68 -9 6 C-6 6 -6 6 -4.3125 7.5 C-3.87938 7.995 -3.44625 8.49 -3 9 C-2.67 7.68 -2.34 6.36 -2 5 C-1.34 5 -0.68 5 0 5 C0 3.35 0 1.7 0 0 Z " fill="#29DDF5" transform="translate(189,111)"/>
<path d="M0 0 C0.33 0.99 0.66 1.98 1 3 C-1.66667 4.33333 -4.33333 5.66667 -7 7 C-7.66 6.67 -8.32 6.34 -9 6 C-9 12.6 -9 19.2 -9 26 C-12.17575 22.82425 -12.16847 19.48666 -12.25 15.125 C-12.1835 9.47271 -10.62164 6.05407 -7.125 1.625 C-4.54845 -0.3453 -3.16834 -0.35204 0 0 Z " fill="#3BC4D7" transform="translate(189,91)"/>
<path d="M0 0 C2.68668 3.0614 3.372 4.88095 3.25 8.9375 C3.22422 9.89141 3.19844 10.84531 3.17188 11.82812 C2.8793 17.22754 2.47951 22.6141 2 28 C-1.88205 24.11795 -0.8826 17.25114 -1 12 C-0.81639 7.97807 -0.47588 3.99739 0 0 Z " fill="#E1E6ED" transform="translate(61,86)"/>
<path d="M0 0 C-1.29448 2.58895 -2.20861 2.67564 -4.90234 3.61328 C-10.17389 5.27298 -15.07882 5.34441 -20.5625 5.1875 C-21.4758 5.17396 -22.3891 5.16043 -23.33008 5.14648 C-25.55403 5.11155 -27.77668 5.06252 -30 5 C-30 4.67 -30 4.34 -30 4 C-24.06 3.67 -18.12 3.34 -12 3 C-17.28 2.67 -22.56 2.34 -28 2 C-28 1.67 -28 1.34 -28 1 C-27.39003 0.97494 -26.78006 0.94989 -26.15161 0.92407 C-23.37172 0.80759 -20.59213 0.6851 -17.8125 0.5625 C-16.85279 0.52318 -15.89309 0.48387 -14.9043 0.44336 C-14.43862 0.42241 -14.43862 0.42241 -12.08203 0.31641 C-11.22843 0.27975 -10.37483 0.24309 -9.49536 0.20532 C-7 0 -7 0 -4.30737 -0.58228 C-2 -1 -2 -1 0 0 Z " fill="#96F8FD" transform="translate(77,171)"/>
<path d="M0 0 C2 3 2 3 2 5 C3.32 5 4.64 5 6 5 C6 5.66 6 6.32 6 7 C7.65 7 9.3 7 11 7 C11 6.01 11 5.02 11 4 C11.99 4 12.98 4 14 4 C14 3.34 14 2.68 14 2 C15.98 2 17.96 2 20 2 C14.01512 8.14237 14.01512 8.14237 8.6875 8.3125 C4.21067 8.29094 2.28924 7.09575 -1 4 C-1.99 4 -2.98 4 -4 4 C-3.67 3.01 -3.34 2.02 -3 1 C-2.01 0.67 -1.02 0.34 0 0 Z " fill="#0E2F38" transform="translate(147,115)"/>
<path d="M0 0 C3.99459 1.30732 5.27391 2.57672 7.4375 6.125 C7.4375 6.785 7.4375 7.445 7.4375 8.125 C6.7775 8.125 6.1175 8.125 5.4375 8.125 C5.1075 9.445 4.7775 10.765 4.4375 12.125 C3.7775 12.125 3.1175 12.125 2.4375 12.125 C2.4375 10.145 2.4375 8.165 2.4375 6.125 C-1.3125 5 -1.3125 5 -3.5625 6.125 C-3.8925 5.135 -4.2225 4.145 -4.5625 3.125 C-5.2225 3.455 -5.2225 3.455 -8.5625 5.125 C-4.56646 0.16023 -4.56646 0.16023 0 0 Z " fill="#3DC4D6" transform="translate(124.5625,90.875)"/>
<path d="M0 0 C0.33 0 0.66 0 1 0 C1.33 1.65 1.66 3.3 2 5 C3.65 5.33 5.3 5.66 7 6 C7 7.65 7 9.3 7 11 C4.36 11 1.72 11 -1 11 C-1.91059 7.92677 -2.08886 5.19903 -2 2 C-1.34 2 -0.68 2 0 2 C0 1.34 0 0.68 0 0 Z " fill="#23252F" transform="translate(242,145)"/>
<path d="M0 0 C2 2 2 2 2.25 5.5 C2 9 2 9 0 11 C-2.125 10.625 -2.125 10.625 -4 10 C-4 8.68 -4 7.36 -4 6 C-5.32 5.67 -6.64 5.34 -8 5 C-6.35 4.67 -4.7 4.34 -3 4 C-3 3.01 -3 2.02 -3 1 C-2.01 0.67 -1.02 0.34 0 0 Z " fill="#363B49" transform="translate(65,141)"/>
<path d="M0 0 C0.66 0.33 1.32 0.66 2 1 C3.45133 5.62784 3.11173 10.5146 3.0625 15.3125 C3.05799 16.14846 3.05348 16.98441 3.04883 17.8457 C3.03711 19.89717 3.01917 21.94859 3 24 C2.01 23.67 1.02 23.34 0 23 C0.33 17.39 0.66 11.78 1 6 C0.01 6.33 -0.98 6.66 -2 7 C-2 3 -2 3 0 0 Z " fill="#2D2C30" transform="translate(214,86)"/>
<path d="M0 0 C6.6 0.66 13.2 1.32 20 2 C20 2.99 20 3.98 20 5 C12.56621 5.33452 6.80123 5.13903 0 2 C0 1.34 0 0.68 0 0 Z " fill="#B5FDFE" transform="translate(229,170)"/>
<path d="M0 0 C0.66 0.33 1.32 0.66 2 1 C5.86061 2.28687 8.9415 2.13758 13 2 C12.67 2.99 12.34 3.98 12 5 C7.38 5.33 2.76 5.66 -2 6 C-2.33 6.99 -2.66 7.98 -3 9 C-3.66 8.67 -4.32 8.34 -5 8 C-3.35 5.36 -1.7 2.72 0 0 Z " fill="#4A4F62" transform="translate(226,142)"/>
<path d="M0 0 C10.01026 0.62029 10.01026 0.62029 13 4 C13 4.99 13 5.98 13 7 C9.125 6.125 9.125 6.125 8 5 C6.31816 4.76713 4.62876 4.58736 2.9375 4.4375 C2.0184 4.35371 1.0993 4.26992 0.15234 4.18359 C-0.20279 4.1533 -0.20279 4.1533 -2 4 C-1.34 2.68 -0.68 1.36 0 0 Z " fill="#35A9BA" transform="translate(184,78)"/>
<path d="M0 0 C2.125 0.375 2.125 0.375 4 1 C4.625 3.3125 4.625 3.3125 5 6 C4.67 6.495 4.67 6.495 3 9 C1.35 8.67 -0.3 8.34 -2 8 C-2.125 5.125 -2.125 5.125 -2 2 C-1.34 1.34 -0.68 0.68 0 0 Z " fill="#B5FAFC" transform="translate(123,95)"/>
<path d="M0 0 C3.05398 0.32721 4.03117 1.03117 6.25 3.25 C8.13357 6.2099 8.39142 7.57509 8 11 C7.34 11 6.68 11 6 11 C6 10.01 6 9.02 6 8 C4.35 8.33 2.7 8.66 1 9 C-0.47832 6.04335 -0.06033 3.2577 0 0 Z " fill="#A7E9FA" transform="translate(195,49)"/>
<path d="M0 0 C0.66 0.33 1.32 0.66 2 1 C0.625 2.5 0.625 2.5 -1 4 C-1.66 4 -2.32 4 -3 4 C-3.33 4.99 -3.66 5.98 -4 7 C-4.66 7 -5.32 7 -6 7 C-6 7.66 -6 8.32 -6 9 C-6.66 9 -7.32 9 -8 9 C-8.66 10.32 -9.32 11.64 -10 13 C-11.46063 10.35261 -12 9.10552 -12 6 C-10.02 5.34 -8.04 4.68 -6 4 C-6 3.34 -6 2.68 -6 2 C-5.59781 1.92781 -5.59781 1.92781 -3.5625 1.5625 C-1 1 -1 1 0 0 Z " fill="#F1EEEC" transform="translate(101,45)"/>
<path d="M0 0 C1.37563 1.28965 2.70766 2.62689 4 4 C4 4.66 4 5.32 4 6 C4.66 6 5.32 6 6 6 C7.72656 8.11719 7.72656 8.11719 9.625 10.875 C10.25664 11.77992 10.88828 12.68484 11.53906 13.61719 C13 16 13 16 13 18 C13.66 18 14.32 18 15 18 C14.67 18.66 14.34 19.32 14 20 C13.01 20 12.02 20 11 20 C9.31641 17.58594 9.31641 17.58594 7.5625 14.375 C3.68092 7.40132 3.68092 7.40132 1.5625 4.375 C0 2 0 2 0 0 Z " fill="#D5E0EC" transform="translate(81,138)"/>
<path d="M0 0 C4.8682 4.29547 7.8676 9.35066 11 15 C11.40863 15.69996 11.81727 16.39992 12.23828 17.12109 C13 19 13 19 12 22 C11.67387 21.28973 11.34773 20.57945 11.01172 19.84766 C10.57473 18.92855 10.13773 18.00945 9.6875 17.0625 C9.25824 16.14598 8.82898 15.22945 8.38672 14.28516 C7 12 7 12 4 11 C0.72654 7.72654 0.43265 4.49952 0 0 Z " fill="#EFEDEF" transform="translate(212,55)"/>
<path d="M0 0 C2.31 0.66 4.62 1.32 7 2 C7.33 3.32 7.66 4.64 8 6 C8.99 6.165 8.99 6.165 14 7 C14 8.32 14 9.64 14 11 C13.34 11 12.68 11 12 11 C12 10.34 12 9.68 12 9 C10.35 8.67 8.7 8.34 7 8 C6.67 8.99 6.34 9.98 6 11 C4.68 9.35 3.36 7.7 2 6 C2.99 6 3.98 6 5 6 C3.35 4.02 1.7 2.04 0 0 Z " fill="#E8F0F4" transform="translate(193,39)"/>
<path d="M0 0 C3.45855 3.45855 4 7.21904 4 12 C3.01 12.33 2.02 12.66 1 13 C-0.1875 16.0625 -0.1875 16.0625 -1 19 C-2.32 18.67 -3.64 18.34 -5 18 C-4.76281 17.70094 -4.76281 17.70094 -3.5625 16.1875 C-1.06166 12.68633 -0.78255 9.50235 -0.4375 5.3125 C-0.35371 4.31863 -0.26992 3.32477 -0.18359 2.30078 C-0.12301 1.54152 -0.06242 0.78227 0 0 Z " fill="#10363E" transform="translate(197,102)"/>
<path d="M0 0 C0.79922 0.01805 1.59844 0.03609 2.42188 0.05469 C3.02516 0.07789 3.62844 0.10109 4.25 0.125 C4.58 1.115 4.91 2.105 5.25 3.125 C4.90646 3.14369 4.90646 3.14369 3.16797 3.23828 C2.26691 3.30402 1.36586 3.36977 0.4375 3.4375 C-0.45582 3.49551 -1.34914 3.55352 -2.26953 3.61328 C-5.09525 4.19622 -5.87506 5.02484 -7.75 7.125 C-8.41 7.125 -9.07 7.125 -9.75 7.125 C-9.5 4.75 -9.5 4.75 -8.75 2.125 C-5.80249 0.17754 -3.48465 -0.10249 0 0 Z " fill="#42B5C5" transform="translate(122.75,78.875)"/>
<path d="M0 0 C-0.37706 2.52092 -0.70458 3.7262 -2.60156 5.48438 C-7.3624 8.46219 -10.38283 9.58512 -16 9 C-14.23973 7.82649 -12.45588 6.68498 -10.625 5.625 C-8 4 -8 4 -5.375 1.8125 C-3 0 -3 0 0 0 Z " fill="#3AB7C8" transform="translate(168,118)"/>
<path d="M0 0 C0.66 0 1.32 0 2 0 C1.9826 0.38672 1.9826 0.38672 1.89453 2.34375 C1.72138 9.00587 2.00124 14.00248 5 20 C8.08889 22.05926 8.70936 22.23904 12.1875 22.125 C13.44563 22.08375 14.70375 22.0425 16 22 C16 22.66 16 23.32 16 24 C14.58377 24.05447 13.16692 24.09301 11.75 24.125 C11.35555 24.1366 11.35555 24.1366 9.35938 24.19531 C6.72351 23.97711 5.21552 23.42967 3 22 C-0.30171 17.04743 -0.11723 12.54348 -0.0625 6.6875 C-0.05348 5.43324 -0.04445 4.17898 -0.03516 2.88672 C-0.02936 2.41041 -0.02936 2.41041 0 0 Z " fill="#083642" transform="translate(176,99)"/>
<path d="M0 0 C-0.33 0.99 -0.66 1.98 -1 3 C-4.86207 3.90817 -8.43149 4.11644 -12.39453 4.09766 C-13.59658 4.09443 -14.79863 4.09121 -16.03711 4.08789 C-17.28299 4.07951 -18.52887 4.07113 -19.8125 4.0625 C-21.07771 4.05799 -22.34293 4.05348 -23.64648 4.04883 C-26.76437 4.03706 -29.88216 4.02062 -33 4 C-33 3.67 -33 3.34 -33 3 C-24.42 2.67 -15.84 2.34 -7 2 C-7.66 1.34 -8.32 0.68 -9 0 C-3.375 -1.125 -3.375 -1.125 0 0 Z " fill="#68E2EE" transform="translate(76,168)"/>
<path d="M0 0 C0.66 0 1.32 0 2 0 C2 3.96 2 7.92 2 12 C1.01 11.835 1.01 11.835 -4 11 C-3.67 9.35 -3.34 7.7 -3 6 C-2.34 6 -1.68 6 -1 6 C-0.67 4.02 -0.34 2.04 0 0 Z " fill="#E1E3EA" transform="translate(236,103)"/>
<path d="M0 0 C1.32 0.66 2.64 1.32 4 2 C4 3.98 4 5.96 4 8 C2.34385 8.38219 0.67543 8.71395 -1 9 C-2 8 -2 8 -2.1875 5.0625 C-2 2 -2 2 0 0 Z " fill="#B7FAFC" transform="translate(185,95)"/>
<path d="M0 0 C1.1773 3.42203 0.79947 5.36667 -0.375 8.75 C-1.8241 13.20978 -2.56824 17.33701 -3 22 C-5 20 -5 20 -5.375 17.125 C-5.25767 12.0904 -3.62813 3.62813 0 0 Z " fill="#D0CECF" transform="translate(96,77)"/>
<path d="M0 0 C0.33 0.66 0.66 1.32 1 2 C0.67 2.495 0.67 2.495 -1 5 C-1.37891 6.875 -1.37891 6.875 -1.5625 9 C-1.63469 9.78246 -1.70687 10.56492 -1.78125 11.37109 C-1.85344 12.23863 -1.92562 13.10617 -2 14 C-2.18726 16.02086 -2.37476 18.04169 -2.5625 20.0625 C-2.70924 21.70825 -2.8554 23.35406 -3 25 C-3.33 25 -3.66 25 -4 25 C-4.33 17.41 -4.66 9.82 -5 2 C-3.68 2.33 -2.36 2.66 -1 3 C-0.67 2.01 -0.34 1.02 0 0 Z " fill="#ECEBEE" transform="translate(85,64)"/>
<path d="M0 0 C2.97 0 5.94 0 9 0 C9 1.32 9 2.64 9 4 C5.32589 5.17571 1.83071 5.07367 -2 5 C-1.34 3.35 -0.68 1.7 0 0 Z " fill="#23242D" transform="translate(224,149)"/>
<path d="M0 0 C0.33 0 0.66 0 1 0 C1.0294 3.16665 1.04693 6.33326 1.0625 9.5 C1.07088 10.38687 1.07926 11.27375 1.08789 12.1875 C1.10764 17.55823 0.78836 22.68634 0 28 C-0.33 28 -0.66 28 -1 28 C-1.19457 26.04236 -1.38044 24.08385 -1.5625 22.125 C-1.61471 21.57973 -1.61471 21.57973 -1.87891 18.82031 C-2 16 -2 16 -1 14 C-0.76812 6.69565 -0.76812 6.69565 -2 3 C-1.34 2.01 -0.68 1.02 0 0 Z " fill="#EFEDED" transform="translate(245,11)"/>
<path d="M0 0 C0.33 0 0.66 0 1 0 C1.41695 1.59881 1.80791 3.20441 2.1875 4.8125 C2.40793 5.70582 2.62836 6.59914 2.85547 7.51953 C3 10 3 10 1.55078 11.82422 C1.2949 12.01822 1.2949 12.01822 0 13 C0 12.01 0 11.02 0 10 C-1.32 9.34 -2.64 8.68 -4 8 C-3.67 6.68 -3.34 5.36 -3 4 C-2.34 4 -1.68 4 -1 4 C-0.67 2.68 -0.34 1.36 0 0 Z " fill="#F0ECEA" transform="translate(92,111)"/>
<path d="M0 0 C0.99 0.33 1.98 0.66 3 1 C3.05404 3.75026 3.09369 6.49946 3.125 9.25 C3.13338 9.63865 3.13338 9.63865 3.17578 11.60547 C3.23663 18.72431 3.23663 18.72431 1 22 C1.0116 21.07316 1.0232 20.14633 1.03516 19.19141 C1.04418 17.99387 1.0532 16.79633 1.0625 15.5625 C1.0741 14.36754 1.0857 13.17258 1.09766 11.94141 C1 9 1 9 0 8 C-0.14115 5.32941 -0.04247 2.67568 0 0 Z " fill="#9FE8F3" transform="translate(65,96)"/>
<path d="M0 0 C0.66 0.33 1.32 0.66 2 1 C0.19073 3.00301 -1.62219 5.00248 -3.4375 7 C-3.69563 7.28617 -3.69563 7.28617 -5.00195 8.73438 C-6.31413 10.1752 -7.65491 11.58986 -9 13 C-9.33 13 -9.66 13 -10 13 C-10.125 8.25 -10.125 8.25 -9 6 C-8.23687 5.71125 -7.47375 5.4225 -6.6875 5.125 C-3.71091 3.87899 -2.13993 2.3777 0 0 Z " fill="#E3F3F6" transform="translate(217,134)"/>
<path d="M0 0 C0.66 0 1.32 0 2 0 C2 1.98 2 3.96 2 6 C3.65 5.34 5.3 4.68 7 4 C6.375 5.9375 6.375 5.9375 5 8 C2.0625 8.875 2.0625 8.875 -1 9 C-1.99 8.34 -2.98 7.68 -4 7 C-4 6.34 -4 5.68 -4 5 C-3.01 5 -2.02 5 -1 5 C-0.67 3.35 -0.34 1.7 0 0 Z " fill="#18282E" transform="translate(111,80)"/>
<path d="M0 0 C0.33 0 0.66 0 1 0 C0.67 5.61 0.34 11.22 0 17 C-1.65 17.33 -3.3 17.66 -5 18 C-5 17.01 -5 16.02 -5 15 C-5.66 14.67 -6.32 14.34 -7 14 C-6.34 14 -5.68 14 -5 14 C-4.67 13.01 -4.34 12.02 -4 11 C-3.67 12.32 -3.34 13.64 -3 15 C-1.25544 11.51088 -1.53763 7.50258 -1.28125 3.65234 C-1 1 -1 1 0 0 Z " fill="#EEEBEB" transform="translate(78,58)"/>
<path d="M0 0 C-0.19531 1.88281 -0.19531 1.88281 -1 4 C-3.17969 5.11719 -3.17969 5.11719 -5.875 5.875 C-6.31715 6.00777 -6.31715 6.00777 -8.55469 6.67969 C-11 7 -11 7 -14 5 C-12.23244 4.15974 -10.46083 3.32801 -8.6875 2.5 C-7.70137 2.03594 -6.71523 1.57187 -5.69922 1.09375 C-3 0 -3 0 0 0 Z " fill="#26242A" transform="translate(127,58)"/>
<path d="M0 0 C0 0.66 0 1.32 0 2 C-3.96 2.66 -7.92 3.32 -12 4 C-11.67 2.68 -11.34 1.36 -11 0 C-7.18243 -1.37432 -3.92745 -0.67975 0 0 Z " fill="#454B5A" transform="translate(79,144)"/>
<path d="M0 0 C0.99 0 1.98 0 3 0 C2.66831 6.30215 -0.67324 10.85217 -4 16 C-4.33 15.34 -4.66 14.68 -5 14 C-4.30896 12.02559 -3.60916 10.05308 -2.83594 8.10938 C-1.77877 5.44175 -0.88669 2.72829 0 0 Z " fill="#BBE5F6" transform="translate(222,134)"/>
<path d="M0 0 C2 2 4 4 6 6 C9.94837 6.26322 12.60379 6.08997 16 4 C15.67 5.32 15.34 6.64 15 8 C14.31293 8.06059 13.62586 8.12117 12.91797 8.18359 C12.01691 8.26738 11.11586 8.35117 10.1875 8.4375 C9.74084 8.47811 9.74084 8.47811 7.48047 8.68359 C5 9 5 9 2 10 C2 8.02 2 6.04 2 4 C1.34 4 0.68 4 0 4 C0 2.68 0 1.36 0 0 Z " fill="#0D313A" transform="translate(114,116)"/>
<path d="M0 0 C5.65287 -0.86967 8.69022 1.40327 13.14453 4.49219 C15 6 15 6 16 8 C15.34 8.66 14.68 9.32 14 10 C14 9.34 14 8.68 14 8 C13.44828 7.72414 12.89656 7.44828 12.32812 7.16406 C8.21875 5.10938 4.10938 3.05469 0 1 C0 0.67 0 0.34 0 0 Z " fill="#C3CCD4" transform="translate(192,59)"/>
<path d="M0 0 C4.29 0 8.58 0 13 0 C13.33 0.66 13.66 1.32 14 2 C13.34 2 12.68 2 12 2 C12 2.66 12 3.32 12 4 C10.02 3.67 10.02 3.67 0 2 C0 1.34 0 0.68 0 0 Z " fill="#1C1B21" transform="translate(166,55)"/>
<path d="M0 0 C3.63 0 7.26 0 11 0 C11 0.66 11 1.32 11 2 C12.98 2 14.96 2 17 2 C17 2.33 17 2.66 17 3 C11.72 3 6.44 3 1 3 C0.67 2.01 0.34 1.02 0 0 Z " fill="#252630" transform="translate(49,153)"/>
<path d="M0 0 C0.33 0 0.66 0 1 0 C1.05435 2.0622 1.09295 4.12483 1.125 6.1875 C1.1482 7.33605 1.17141 8.48461 1.19531 9.66797 C1.00484 12.9174 0.3936 15.08661 -1 18 C-1.66 18 -2.32 18 -3 18 C-3 16.35 -3 14.7 -3 13 C-3.66 13 -4.32 13 -5 13 C-5 12.34 -5 11.68 -5 11 C-3.35 10.67 -1.7 10.34 0 10 C0 6.7 0 3.4 0 0 Z " fill="#37D2E7" transform="translate(132,100)"/>
<path d="M0 0 C0.66 0.33 1.32 0.66 2 1 C0.33146 4.12852 -0.9046 4.96331 -4.25 6.25 C-10.68351 7.62861 -17.45431 7.15341 -24 7 C-24 6.67 -24 6.34 -24 6 C-23.08219 5.93941 -22.16437 5.87883 -21.21875 5.81641 C-14.78149 5.37689 -8.39064 4.89469 -2 4 C-2.33 3.01 -2.66 2.02 -3 1 C-2.01 0.67 -1.02 0.34 0 0 Z " fill="#3FBECF" transform="translate(74,174)"/>
<path d="M0 0 C0.99 0 1.98 0 3 0 C3 0.66 3 1.32 3 2 C4.98 2 6.96 2 9 2 C8.67 3.65 8.34 5.3 8 7 C5.69 6.67 3.38 6.34 1 6 C1.33 4.35 1.66 2.7 2 1 C1.34 0.67 0.68 0.34 0 0 Z " fill="#F4EFED" transform="translate(236,160)"/>
<path d="M0 0 C3.63 0 7.26 0 11 0 C11 1.32 11 2.64 11 4 C8.36 4 5.72 4 3 4 C2.67 3.01 2.34 2.02 2 1 C1.34 0.67 0.68 0.34 0 0 Z " fill="#313846" transform="translate(49,183)"/>
<path d="M0 0 C5.13732 0.40007 10.33564 1.8233 15 4 C14.67 4.66 14.34 5.32 14 6 C8.72 4.68 3.44 3.36 -2 2 C-1.34 1.34 -0.68 0.68 0 0 Z " fill="#D5D4D6" transform="translate(178,53)"/>
<path d="M0 0 C3 0 3 0 4.6875 1.5 C5.12062 1.995 5.55375 2.49 6 3 C6 2.34 6 1.68 6 1 C8.31 1.33 10.62 1.66 13 2 C12.67 2.495 12.67 2.495 11 5 C7.25132 5.41652 4.88267 5.49792 1.5625 3.625 C0 2 0 2 0 0 Z " fill="#3BD2E2" transform="translate(180,117)"/>
<path d="M0 0 C3.96 0 7.92 0 12 0 C11.67 0.99 11.34 1.98 11 3 C9.94813 2.71125 8.89625 2.4225 7.8125 2.125 C4 2 4 2 2.45703 3.26953 C1.2383 4.79563 0.11338 6.39543 -1 8 C-1.33 8 -1.66 8 -2 8 C-2 6.35 -2 4.7 -2 3 C-1.34 3 -0.68 3 0 3 C0 2.01 0 1.02 0 0 Z " fill="#0E323B" transform="translate(180,90)"/>
<path d="M0 0 C0.66 0 1.32 0 2 0 C1.47606 5.8681 0.23891 10.54874 -2 16 C-2.33 16 -2.66 16 -3 16 C-3 13.69 -3 11.38 -3 9 C-2.34 9 -1.68 9 -1 9 C-1 7.68 -1 6.36 -1 5 C-1.66 4.67 -2.32 4.34 -3 4 C-1.625 2 -1.625 2 0 0 Z " fill="#9AE4F7" transform="translate(219,136)"/>
<path d="M0 0 C2.35964 0.40683 3.85934 0.89814 5.8125 2.3125 C7 4 7 4 6.6875 6.1875 C6.57406 6.48656 6.57406 6.48656 6 8 C5.67 7.01 5.34 6.02 5 5 C1.37 4.67 -2.26 4.34 -6 4 C-5.34 3.34 -4.68 2.68 -4 2 C-2.68 2 -1.36 2 0 2 C0 1.34 0 0.68 0 0 Z " fill="#1A232C" transform="translate(123,74)"/>
<path d="M0 0 C1.46225 0.42423 2.91973 0.8649 4.375 1.3125 C5.18711 1.55613 5.99922 1.79977 6.83594 2.05078 C9 3 9 3 11 6 C8.875 6.75 8.875 6.75 6 7 C2.6875 5.25 2.6875 5.25 0 3 C0 2.01 0 1.02 0 0 Z " fill="#1E1C23" transform="translate(193,61)"/>
<path d="M0 0 C1.45823 -0.027 2.91661 -0.0464 4.375 -0.0625 C5.18711 -0.0741 5.99922 -0.0857 6.83594 -0.09766 C9 0 9 0 11 1 C11 1.99 11 2.98 11 4 C2.83036 3.33036 2.83036 3.33036 0 0 Z " fill="#363C45" transform="translate(238,183)"/>
<path d="M0 0 C2.8125 -0.25 2.8125 -0.25 6 0 C7.875 2 7.875 2 9 4 C8.01 4 7.02 4 6 4 C6 5.98 6 7.96 6 10 C5.67 10.165 5.67 10.165 4 11 C3.34 8.36 2.68 5.72 2 3 C2.66 2.67 3.32 2.34 4 2 C2.68 1.34 1.36 0.68 0 0 Z " fill="#43D8EB" transform="translate(185,92)"/>
<path d="M0 0 C0.66 0.66 1.32 1.32 2 2 C1.67 2.66 1.34 3.32 1 4 C0.84777 5.66566 0.75083 7.33656 0.68359 9.00781 C0.6417 9.99395 0.5998 10.98008 0.55664 11.99609 C0.51732 13.02863 0.47801 14.06117 0.4375 15.125 C0.39432 16.16527 0.35113 17.20555 0.30664 18.27734 C0.20037 20.85143 0.09833 23.42561 0 26 C-0.33 26 -0.66 26 -1 26 C-1.02887 21.85418 -1.04675 17.70839 -1.0625 13.5625 C-1.07088 12.3785 -1.07926 11.19449 -1.08789 9.97461 C-1.09111 8.8499 -1.09434 7.7252 -1.09766 6.56641 C-1.10289 5.52428 -1.10813 4.48215 -1.11353 3.40845 C-1 1 -1 1 0 0 Z " fill="#E6FCFD" transform="translate(239,76)"/>
<path d="M0 0 C6.27 0.66 12.54 1.32 19 2 C19 2.33 19 2.66 19 3 C12.66667 3 6.33333 3 0 3 C0 2.01 0 1.02 0 0 Z " fill="#5FE7F2" transform="translate(230,173)"/>
<path d="M0 0 C3.96 0.33 7.92 0.66 12 1 C12 1.66 12 2.32 12 3 C8.04 3 4.08 3 0 3 C0 2.01 0 1.02 0 0 Z " fill="#D3F4FB" transform="translate(237,166)"/>
<path d="M0 0 C0.33 0 0.66 0 1 0 C1.33 1.65 1.66 3.3 2 5 C3.65 5 5.3 5 7 5 C6.67 5.66 6.34 6.32 6 7 C-0.27 6.67 -6.54 6.34 -13 6 C-13 5.67 -13 5.34 -13 5 C-8.71 5 -4.42 5 0 5 C0 3.35 0 1.7 0 0 Z " fill="#DEEEF2" transform="translate(67,161)"/>
<path d="M0 0 C0.22267 1.43535 0.42762 2.87346 0.625 4.3125 C0.74102 5.11301 0.85703 5.91352 0.97656 6.73828 C1 9 1 9 -1 12 C-1 10.35 -1 8.7 -1 7 C-1.66 7 -2.32 7 -3 7 C-3.33 5.02 -3.66 3.04 -4 1 C-2 0 -2 0 0 0 Z " fill="#D6E3F0" transform="translate(226,127)"/>
<path d="M0 0 C0.56848 0.34934 1.13695 0.69867 1.72266 1.05859 C6.58814 3.9259 10.35037 5.63939 16 6 C16 6.33 16 6.66 16 7 C6.05218 7.78398 6.05218 7.78398 1.8125 4.625 C0 2 0 2 0 0 Z " fill="#082C38" transform="translate(143,121)"/>
<path d="M0 0 C1.32 0.66 2.64 1.32 4 2 C4 3.65 4 5.3 4 7 C2.35 6.67 0.7 6.34 -1 6 C-1.625 4.125 -1.625 4.125 -2 2 C-1.34 1.34 -0.68 0.68 0 0 Z " fill="#37363F" transform="translate(207,85)"/>
<path d="M0 0 C2.5 1.5625 2.5 1.5625 5 4 C5.3125 7.75 5.3125 7.75 5 11 C4.67 11.165 4.67 11.165 3 12 C0.96855 11.06553 -1.03534 10.06775 -3 9 C0 7 0 7 2 7 C2 7.99 2 8.98 2 10 C2.66 10 3.32 10 4 10 C2.89059 6.51329 1.73662 3.22516 0 0 Z " fill="#B3E6F3" transform="translate(199,50)"/>
<path d="M0 0 C0.66 0.66 1.32 1.32 2 2 C1.625 5.125 1.625 5.125 1 8 C-1.31 8 -3.62 8 -6 8 C-6 7.01 -6 6.02 -6 5 C-4.35 5 -2.7 5 -1 5 C-0.67 3.35 -0.34 1.7 0 0 Z " fill="#3F4350" transform="translate(87,149)"/>
<path d="M0 0 C4.95 0 9.9 0 15 0 C11.47321 2.35119 9.97121 2.21443 5.8125 2.125 C4.72582 2.10695 3.63914 2.08891 2.51953 2.07031 C2.10381 2.05871 2.10381 2.05871 0 2 C0 1.34 0 0.68 0 0 Z " fill="#536073" transform="translate(147,180)"/>
<path d="M0 0 C0.33 0.66 0.66 1.32 1 2 C1.66 2 2.32 2 3 2 C3 2.99 3 3.98 3 5 C1.35 5.33 -0.3 5.66 -2 6 C-2 5.34 -2 4.68 -2 4 C-3.32 3.67 -4.64 3.34 -6 3 C-4.02 2.01 -2.04 1.02 0 0 Z " fill="#313341" transform="translate(63,143)"/>
<path d="M0 0 C0.33 0 0.66 0 1 0 C1.05397 2.4378 1.09366 4.8744 1.125 7.3125 C1.13338 7.65765 1.13338 7.65765 1.17578 9.4043 C1.21218 13.17135 1.14379 14.78432 -1 18 C-1.66 18 -2.32 18 -3 18 C-2.69063 17.07188 -2.38125 16.14375 -2.0625 15.1875 C-0.62168 10.22128 -0.35306 5.13795 0 0 Z " fill="#0E444F" transform="translate(133,102)"/>
<path d="M0 0 C1.875 0.1875 1.875 0.1875 4 1 C5.25 3.5625 5.25 3.5625 6 6 C5.34 6 4.68 6 4 6 C3.67 7.32 3.34 8.64 3 10 C2.34 10 1.68 10 1 10 C1.02062 9.0925 1.04125 8.185 1.0625 7.25 C1.01102 4.57327 0.7785 2.53012 0 0 Z " fill="#3ECFE1" transform="translate(126,93)"/>
<path d="M0 0 C0.33 0.66 0.66 1.32 1 2 C0.01 2 -0.98 2 -2 2 C-2 2.99 -2 3.98 -2 5 C-4.31 5 -6.62 5 -9 5 C-9 4.01 -9 3.02 -9 2 C-6.03 1.34 -3.06 0.68 0 0 Z " fill="#495365" transform="translate(64,140)"/>
<path d="M0 0 C2.31 0.66 4.62 1.32 7 2 C6.01 2.99 5.02 3.98 4 5 C2.02 4.34 0.04 3.68 -2 3 C-1.34 2.01 -0.68 1.02 0 0 Z M1 5 C3 6 3 6 3 6 Z " fill="#EFECEA" transform="translate(108,137)"/>
<path d="M0 0 C0.93065 2.60582 1.14917 3.64198 0.0625 6.25 C-0.11281 6.53875 -0.11281 6.53875 -1 8 C-1.33 7.01 -1.66 6.02 -2 5 C-3.98 5.33 -5.96 5.66 -8 6 C-5.33333 4 -2.66667 2 0 0 Z " fill="#102E3A" transform="translate(167,121)"/>
<path d="M0 0 C-2.88088 2.40073 -5.56405 4.47291 -9 6 C-9.66 5.34 -10.32 4.68 -11 4 C-9.7376 3.13341 -8.46472 2.28208 -7.1875 1.4375 C-6.4798 0.96184 -5.77211 0.48617 -5.04297 -0.00391 C-3 -1 -3 -1 0 0 Z " fill="#C0BEC3" transform="translate(117,61)"/>
<path d="M0 0 C4.875 1.875 4.875 1.875 6 3 C5.94922 5.03125 5.94922 5.03125 5.6875 7.5 C5.60887 8.31469 5.53023 9.12937 5.44922 9.96875 C5.3751 10.30391 5.3751 10.30391 5 12 C4.67 12.165 4.67 12.165 3 13 C3.0348 12.39672 3.06961 11.79344 3.10547 11.17188 C3.32933 4.56261 3.32933 4.56261 1.5 1.4375 C1.005 0.96312 0.51 0.48875 0 0 Z " fill="#E0F5FB" transform="translate(200,50)"/>
<path d="M0 0 C1 4 1 4 1 4 Z " fill="#DCDFF2" transform="translate(75,118)"/>
<path d="M0 0 C0.33 0.66 0.66 1.32 1 2 C0.34 1.67 -0.32 1.34 -1 1 C-0.67 0.67 -0.34 0.34 0 0 Z " fill="#D7E9ED" transform="translate(75,164)"/>
<path d="" fill="#C6E0F4" transform="translate(0,0)"/>
<path d="" fill="#CBE7ED" transform="translate(0,0)"/>
<path d="" fill="#D4E1EE" transform="translate(0,0)"/>
<path d="" fill="#DEE1E9" transform="translate(0,0)"/>
<path d="M0 0 C2 1 2 1 2 1 Z " fill="#DDE0E7" transform="translate(235,122)"/>
<path d="" fill="#DBDDEC" transform="translate(0,0)"/>
<path d="" fill="#DDDFEC" transform="translate(0,0)"/>
<path d="" fill="#B6E7F8" transform="translate(0,0)"/>
<path d="" fill="#E4DFE6" transform="translate(0,0)"/>
<path d="" fill="#C0E3F6" transform="translate(0,0)"/>
<path d="" fill="#8BE2F5" transform="translate(0,0)"/>
<path d="" fill="#BEE5F4" transform="translate(0,0)"/>
<path d="" fill="#D6E0EC" transform="translate(0,0)"/>
<path d="" fill="#E0DDE8" transform="translate(0,0)"/>
<path d="" fill="#C1E4F8" transform="translate(0,0)"/>
<path d="" fill="#DCDDEF" transform="translate(0,0)"/>
<path d="" fill="#DFE3E6" transform="translate(0,0)"/>
<path d="" fill="#BFE4F6" transform="translate(0,0)"/>
<path d="" fill="#DDDCEA" transform="translate(0,0)"/>
<path d="" fill="#BCE8F3" transform="translate(0,0)"/>
<path d="" fill="#D4E0EE" transform="translate(0,0)"/>
<path d="" fill="#DCDEEA" transform="translate(0,0)"/>
<path d="" fill="#C4E6F2" transform="translate(0,0)"/>
<path d="" fill="#C0E5F8" transform="translate(0,0)"/>
<path d="" fill="#D9E1EE" transform="translate(0,0)"/>
<path d="" fill="#BEE5F6" transform="translate(0,0)"/>
<path d="" fill="#E2E3E8" transform="translate(0,0)"/>
<path d="" fill="#DEE2ED" transform="translate(0,0)"/>
<path d="" fill="#DFDEEC" transform="translate(0,0)"/>
<path d="" fill="#DCE0E9" transform="translate(0,0)"/>
<path d="" fill="#D0E6F3" transform="translate(0,0)"/>
<path d="" fill="#DFDDEB" transform="translate(0,0)"/>
<path d="" fill="#72E4E5" transform="translate(0,0)"/>
</svg>
